<mxfile host="app.diagrams.net" agent="Mozilla/5.0 (Macintosh; Intel Mac OS X 10_15_7) AppleWebKit/605.1.15 (KHTML, like Gecko) Version/18.6 Safari/605.1.15" version="28.0.9">
  <diagram name="Seite-1" id="aluw8Fbli3eUOemtzBO-">
    <mxGraphModel dx="1566" dy="1072" grid="1" gridSize="10" guides="1" tooltips="1" connect="1" arrows="1" fold="1" page="1" pageScale="1" pageWidth="827" pageHeight="1169" math="0" shadow="0">
      <root>
        <mxCell id="0" />
        <mxCell id="1" parent="0" />
        <mxCell id="7iGNXJQkttV0HCJYnzMc-1" value="src/features/concept-versioning/components/EventGeneralInfo.vue&lt;div&gt;&lt;div style=&quot;color: rgb(204, 204, 204); background-color: rgb(31, 31, 31); font-family: Menlo, Monaco, &amp;quot;Courier New&amp;quot;, monospace; line-height: 18px; white-space: pre;&quot;&gt;&lt;div&gt;&lt;span style=&quot;color: rgb(128, 128, 128);&quot;&gt;&amp;lt;&lt;/span&gt;&lt;span style=&quot;color: rgb(86, 156, 214);&quot;&gt;template&lt;/span&gt;&lt;span style=&quot;color: rgb(128, 128, 128);&quot;&gt;&amp;gt;&lt;/span&gt;&lt;/div&gt;&lt;div&gt;    &lt;span style=&quot;color: rgb(128, 128, 128);&quot;&gt;&amp;lt;&lt;/span&gt;&lt;span style=&quot;color: rgb(78, 201, 176);&quot;&gt;SubsectionHeading&lt;/span&gt; &lt;span style=&quot;color: rgb(156, 220, 254);&quot;&gt;label&lt;/span&gt;=&lt;span style=&quot;color: rgb(206, 145, 120);&quot;&gt;&quot;Allgemeine Angaben&quot;&lt;/span&gt; &lt;span style=&quot;color: rgb(156, 220, 254);&quot;&gt;badgelabel&lt;/span&gt;=&lt;span style=&quot;color: rgb(206, 145, 120);&quot;&gt;&quot;1&quot;&lt;/span&gt;&lt;span style=&quot;color: rgb(128, 128, 128);&quot;&gt; /&amp;gt;&lt;/span&gt;&lt;/div&gt;&lt;div&gt;&lt;span style=&quot;color: rgb(128, 128, 128);&quot;&gt;&amp;lt;/&lt;/span&gt;&lt;span style=&quot;color: rgb(86, 156, 214);&quot;&gt;template&lt;/span&gt;&lt;span style=&quot;color: rgb(128, 128, 128);&quot;&gt;&amp;gt;&lt;/span&gt;&lt;/div&gt;&lt;br&gt;&lt;div&gt;&lt;span style=&quot;color: rgb(128, 128, 128);&quot;&gt;&amp;lt;&lt;/span&gt;&lt;span style=&quot;color: rgb(86, 156, 214);&quot;&gt;script&lt;/span&gt; &lt;span style=&quot;color: rgb(156, 220, 254);&quot;&gt;setup&lt;/span&gt; &lt;span style=&quot;color: rgb(156, 220, 254);&quot;&gt;lang&lt;/span&gt;=&lt;span style=&quot;color: rgb(206, 145, 120);&quot;&gt;&quot;ts&quot;&lt;/span&gt;&lt;span style=&quot;color: rgb(128, 128, 128);&quot;&gt;&amp;gt;&lt;/span&gt;&lt;/div&gt;&lt;div&gt;&lt;span style=&quot;color: rgb(197, 134, 192);&quot;&gt;import&lt;/span&gt; &lt;span style=&quot;color: rgb(156, 220, 254);&quot;&gt;SubsectionHeading&lt;/span&gt; &lt;span style=&quot;color: rgb(197, 134, 192);&quot;&gt;from&lt;/span&gt; &lt;span style=&quot;color: rgb(206, 145, 120);&quot;&gt;&#39;@/shared/components/atoms/headings/SubsectionHeading.vue&#39;&lt;/span&gt;;&lt;/div&gt;&lt;div&gt;&lt;span style=&quot;color: rgb(128, 128, 128);&quot;&gt;&amp;lt;/&lt;/span&gt;&lt;span style=&quot;color: rgb(86, 156, 214);&quot;&gt;script&lt;/span&gt;&lt;span style=&quot;color: rgb(128, 128, 128);&quot;&gt;&amp;gt;&lt;/span&gt;&lt;/div&gt;&lt;br&gt;&lt;div&gt;&lt;span style=&quot;color: rgb(128, 128, 128);&quot;&gt;&amp;lt;&lt;/span&gt;&lt;span style=&quot;color: rgb(86, 156, 214);&quot;&gt;style&lt;/span&gt; &lt;span style=&quot;color: rgb(156, 220, 254);&quot;&gt;scoped&lt;/span&gt;&lt;span style=&quot;color: rgb(128, 128, 128);&quot;&gt;&amp;gt;&amp;lt;/&lt;/span&gt;&lt;span style=&quot;color: rgb(86, 156, 214);&quot;&gt;style&lt;/span&gt;&lt;span style=&quot;color: rgb(128, 128, 128);&quot;&gt;&amp;gt;&lt;/span&gt;&lt;/div&gt;&lt;br&gt;&lt;/div&gt;&lt;/div&gt;" style="rounded=0;whiteSpace=wrap;html=1;align=left;verticalAlign=top;" vertex="1" parent="1">
          <mxGeometry x="100" y="120" width="650" height="210" as="geometry" />
        </mxCell>
        <mxCell id="7iGNXJQkttV0HCJYnzMc-2" value="src/features/concept-versioning/components/EventVersionTable.vue&lt;div&gt;&lt;div style=&quot;color: rgb(204, 204, 204); background-color: rgb(31, 31, 31); font-family: Menlo, Monaco, &amp;quot;Courier New&amp;quot;, monospace; line-height: 18px; white-space: pre;&quot;&gt;&lt;div&gt;&lt;span style=&quot;color: rgb(128, 128, 128);&quot;&gt;&amp;lt;&lt;/span&gt;&lt;span style=&quot;color: rgb(86, 156, 214);&quot;&gt;template&lt;/span&gt;&lt;span style=&quot;color: rgb(128, 128, 128);&quot;&gt;&amp;gt;&lt;/span&gt;&lt;/div&gt;&lt;div&gt;    &lt;span style=&quot;color: rgb(128, 128, 128);&quot;&gt;&amp;lt;&lt;/span&gt;&lt;span style=&quot;color: rgb(86, 156, 214);&quot;&gt;div&lt;/span&gt;&lt;span style=&quot;color: rgb(128, 128, 128);&quot;&gt;&amp;gt;&lt;/span&gt;&lt;/div&gt;&lt;div&gt;        &lt;span style=&quot;color: rgb(128, 128, 128);&quot;&gt;&amp;lt;&lt;/span&gt;&lt;span style=&quot;color: rgb(78, 201, 176);&quot;&gt;DataTable&lt;/span&gt; :&lt;span style=&quot;color: rgb(156, 220, 254);&quot;&gt;value&lt;/span&gt;=&quot;&lt;span style=&quot;color: rgb(156, 220, 254);&quot;&gt;items&lt;/span&gt;&quot; &lt;span style=&quot;color: rgb(156, 220, 254);&quot;&gt;dataKey&lt;/span&gt;=&lt;span style=&quot;color: rgb(206, 145, 120);&quot;&gt;&quot;id&quot;&lt;/span&gt; &lt;span style=&quot;color: rgb(156, 220, 254);&quot;&gt;responsiveLayout&lt;/span&gt;=&lt;span style=&quot;color: rgb(206, 145, 120);&quot;&gt;&quot;scroll&quot;&lt;/span&gt;&lt;span style=&quot;color: rgb(128, 128, 128);&quot;&gt;&amp;gt;&lt;/span&gt;&lt;/div&gt;&lt;div&gt;            &lt;span style=&quot;color: rgb(128, 128, 128);&quot;&gt;&amp;lt;&lt;/span&gt;&lt;span style=&quot;color: rgb(78, 201, 176);&quot;&gt;Column&lt;/span&gt; &lt;span style=&quot;color: rgb(156, 220, 254);&quot;&gt;field&lt;/span&gt;=&lt;span style=&quot;color: rgb(206, 145, 120);&quot;&gt;&quot;versionNum&quot;&lt;/span&gt; &lt;span style=&quot;color: rgb(156, 220, 254);&quot;&gt;header&lt;/span&gt;=&lt;span style=&quot;color: rgb(206, 145, 120);&quot;&gt;&quot;Versionsnr.&quot;&lt;/span&gt; &lt;span style=&quot;color: rgb(156, 220, 254);&quot;&gt;sortable&lt;/span&gt;&lt;span style=&quot;color: rgb(128, 128, 128);&quot;&gt;&amp;gt;&amp;lt;/&lt;/span&gt;&lt;span style=&quot;color: rgb(78, 201, 176);&quot;&gt;Column&lt;/span&gt;&lt;span style=&quot;color: rgb(128, 128, 128);&quot;&gt;&amp;gt;&lt;/span&gt;&lt;/div&gt;&lt;div&gt;            &lt;span style=&quot;color: rgb(128, 128, 128);&quot;&gt;&amp;lt;&lt;/span&gt;&lt;span style=&quot;color: rgb(78, 201, 176);&quot;&gt;Column&lt;/span&gt; &lt;span style=&quot;color: rgb(156, 220, 254);&quot;&gt;field&lt;/span&gt;=&lt;span style=&quot;color: rgb(206, 145, 120);&quot;&gt;&quot;updatedAt&quot;&lt;/span&gt; &lt;span style=&quot;color: rgb(156, 220, 254);&quot;&gt;header&lt;/span&gt;=&lt;span style=&quot;color: rgb(206, 145, 120);&quot;&gt;&quot;Zuletzt bearbeitet&quot;&lt;/span&gt; &lt;span style=&quot;color: rgb(156, 220, 254);&quot;&gt;sortable&lt;/span&gt;&lt;span style=&quot;color: rgb(128, 128, 128);&quot;&gt;&amp;gt;&lt;/span&gt;&lt;/div&gt;&lt;div&gt;                &lt;span style=&quot;color: rgb(128, 128, 128);&quot;&gt;&amp;lt;&lt;/span&gt;&lt;span style=&quot;color: rgb(86, 156, 214);&quot;&gt;template&lt;/span&gt; #&lt;span style=&quot;color: rgb(156, 220, 254);&quot;&gt;body&lt;/span&gt;=&quot;&lt;span style=&quot;color: rgb(79, 193, 255);&quot;&gt;slotProps&lt;/span&gt;&quot;&lt;span style=&quot;color: rgb(128, 128, 128);&quot;&gt;&amp;gt;&lt;/span&gt;&lt;/div&gt;&lt;div&gt;                    {{ &lt;span style=&quot;color: rgb(220, 220, 170);&quot;&gt;formatDateToDE&lt;/span&gt;(&lt;span style=&quot;color: rgb(79, 193, 255);&quot;&gt;slotProps&lt;/span&gt;.&lt;span style=&quot;color: rgb(156, 220, 254);&quot;&gt;data&lt;/span&gt;.&lt;span style=&quot;color: rgb(156, 220, 254);&quot;&gt;updatedAt&lt;/span&gt;) }}&lt;/div&gt;&lt;div&gt;                &lt;span style=&quot;color: rgb(128, 128, 128);&quot;&gt;&amp;lt;/&lt;/span&gt;&lt;span style=&quot;color: rgb(86, 156, 214);&quot;&gt;template&lt;/span&gt;&lt;span style=&quot;color: rgb(128, 128, 128);&quot;&gt;&amp;gt;&lt;/span&gt;&lt;/div&gt;&lt;div&gt;            &lt;span style=&quot;color: rgb(128, 128, 128);&quot;&gt;&amp;lt;/&lt;/span&gt;&lt;span style=&quot;color: rgb(78, 201, 176);&quot;&gt;Column&lt;/span&gt;&lt;span style=&quot;color: rgb(128, 128, 128);&quot;&gt;&amp;gt;&lt;/span&gt;&lt;/div&gt;&lt;div&gt;            &lt;span style=&quot;color: rgb(128, 128, 128);&quot;&gt;&amp;lt;&lt;/span&gt;&lt;span style=&quot;color: rgb(78, 201, 176);&quot;&gt;Column&lt;/span&gt; &lt;span style=&quot;color: rgb(156, 220, 254);&quot;&gt;field&lt;/span&gt;=&lt;span style=&quot;color: rgb(206, 145, 120);&quot;&gt;&quot;status&quot;&lt;/span&gt; &lt;span style=&quot;color: rgb(156, 220, 254);&quot;&gt;header&lt;/span&gt;=&lt;span style=&quot;color: rgb(206, 145, 120);&quot;&gt;&quot;Status&quot;&lt;/span&gt;&lt;span style=&quot;color: rgb(128, 128, 128);&quot;&gt;&amp;gt;&lt;/span&gt;&lt;/div&gt;&lt;div&gt;                &lt;span style=&quot;color: rgb(128, 128, 128);&quot;&gt;&amp;lt;&lt;/span&gt;&lt;span style=&quot;color: rgb(86, 156, 214);&quot;&gt;template&lt;/span&gt; #&lt;span style=&quot;color: rgb(156, 220, 254);&quot;&gt;body&lt;/span&gt;=&quot;&lt;span style=&quot;color: rgb(79, 193, 255);&quot;&gt;slotProps&lt;/span&gt;&quot;&lt;span style=&quot;color: rgb(128, 128, 128);&quot;&gt;&amp;gt;&lt;/span&gt;&lt;/div&gt;&lt;div&gt;                    &lt;span style=&quot;color: rgb(128, 128, 128);&quot;&gt;&amp;lt;&lt;/span&gt;&lt;span style=&quot;color: rgb(78, 201, 176);&quot;&gt;Tag&lt;/span&gt;&lt;/div&gt;&lt;div&gt;                        :&lt;span style=&quot;color: rgb(156, 220, 254);&quot;&gt;value&lt;/span&gt;=&quot;&lt;span style=&quot;color: rgb(79, 193, 255);&quot;&gt;slotProps&lt;/span&gt;.&lt;span style=&quot;color: rgb(156, 220, 254);&quot;&gt;data&lt;/span&gt;.&lt;span style=&quot;color: rgb(156, 220, 254);&quot;&gt;isShared&lt;/span&gt; &lt;span style=&quot;color: rgb(212, 212, 212);&quot;&gt;?&lt;/span&gt; &lt;span style=&quot;color: rgb(206, 145, 120);&quot;&gt;&#39;freigegeben&#39;&lt;/span&gt; &lt;span style=&quot;color: rgb(212, 212, 212);&quot;&gt;:&lt;/span&gt; &lt;span style=&quot;color: rgb(206, 145, 120);&quot;&gt;&#39;nicht freigegeben&#39;&lt;/span&gt;&quot;&lt;/div&gt;&lt;div&gt;                        :&lt;span style=&quot;color: rgb(156, 220, 254);&quot;&gt;severity&lt;/span&gt;=&quot;&lt;span style=&quot;color: rgb(79, 193, 255);&quot;&gt;slotProps&lt;/span&gt;.&lt;span style=&quot;color: rgb(156, 220, 254);&quot;&gt;data&lt;/span&gt;.&lt;span style=&quot;color: rgb(156, 220, 254);&quot;&gt;isShared&lt;/span&gt; &lt;span style=&quot;color: rgb(212, 212, 212);&quot;&gt;?&lt;/span&gt; &lt;span style=&quot;color: rgb(206, 145, 120);&quot;&gt;&#39;success&#39;&lt;/span&gt; &lt;span style=&quot;color: rgb(212, 212, 212);&quot;&gt;:&lt;/span&gt; &lt;span style=&quot;color: rgb(206, 145, 120);&quot;&gt;&#39;danger&#39;&lt;/span&gt;&quot;&lt;/div&gt;&lt;div&gt;                   &lt;span style=&quot;color: rgb(128, 128, 128);&quot;&gt; /&amp;gt;&lt;/span&gt;&lt;/div&gt;&lt;div&gt;                &lt;span style=&quot;color: rgb(128, 128, 128);&quot;&gt;&amp;lt;/&lt;/span&gt;&lt;span style=&quot;color: rgb(86, 156, 214);&quot;&gt;template&lt;/span&gt;&lt;span style=&quot;color: rgb(128, 128, 128);&quot;&gt;&amp;gt;&lt;/span&gt;&lt;/div&gt;&lt;div&gt;            &lt;span style=&quot;color: rgb(128, 128, 128);&quot;&gt;&amp;lt;/&lt;/span&gt;&lt;span style=&quot;color: rgb(78, 201, 176);&quot;&gt;Column&lt;/span&gt;&lt;span style=&quot;color: rgb(128, 128, 128);&quot;&gt;&amp;gt;&lt;/span&gt;&lt;/div&gt;&lt;br&gt;&lt;div&gt;            &lt;span style=&quot;color: rgb(128, 128, 128);&quot;&gt;&amp;lt;&lt;/span&gt;&lt;span style=&quot;color: rgb(78, 201, 176);&quot;&gt;Column&lt;/span&gt; &lt;span style=&quot;color: rgb(156, 220, 254);&quot;&gt;header&lt;/span&gt;=&lt;span style=&quot;color: rgb(206, 145, 120);&quot;&gt;&quot;Kommentare&quot;&lt;/span&gt;&lt;span style=&quot;color: rgb(128, 128, 128);&quot;&gt;&amp;gt;&lt;/span&gt;&lt;/div&gt;&lt;div&gt;                &lt;span style=&quot;color: rgb(128, 128, 128);&quot;&gt;&amp;lt;&lt;/span&gt;&lt;span style=&quot;color: rgb(86, 156, 214);&quot;&gt;template&lt;/span&gt; #&lt;span style=&quot;color: rgb(156, 220, 254);&quot;&gt;body&lt;/span&gt;=&quot;&lt;span style=&quot;color: rgb(79, 193, 255);&quot;&gt;slotProps&lt;/span&gt;&quot;&lt;span style=&quot;color: rgb(128, 128, 128);&quot;&gt;&amp;gt;&lt;/span&gt;&lt;/div&gt;&lt;div&gt;                    {{ &lt;span style=&quot;color: rgb(79, 193, 255);&quot;&gt;slotProps&lt;/span&gt;.&lt;span style=&quot;color: rgb(156, 220, 254);&quot;&gt;data&lt;/span&gt;.&lt;span style=&quot;color: rgb(156, 220, 254);&quot;&gt;comments&lt;/span&gt;.&lt;span style=&quot;color: rgb(156, 220, 254);&quot;&gt;length&lt;/span&gt; }}&lt;/div&gt;&lt;div&gt;                &lt;span style=&quot;color: rgb(128, 128, 128);&quot;&gt;&amp;lt;/&lt;/span&gt;&lt;span style=&quot;color: rgb(86, 156, 214);&quot;&gt;template&lt;/span&gt;&lt;span style=&quot;color: rgb(128, 128, 128);&quot;&gt;&amp;gt;&lt;/span&gt;&lt;/div&gt;&lt;div&gt;            &lt;span style=&quot;color: rgb(128, 128, 128);&quot;&gt;&amp;lt;/&lt;/span&gt;&lt;span style=&quot;color: rgb(78, 201, 176);&quot;&gt;Column&lt;/span&gt;&lt;span style=&quot;color: rgb(128, 128, 128);&quot;&gt;&amp;gt;&lt;/span&gt;&lt;/div&gt;&lt;br&gt;&lt;div&gt;            &lt;span style=&quot;color: rgb(128, 128, 128);&quot;&gt;&amp;lt;&lt;/span&gt;&lt;span style=&quot;color: rgb(78, 201, 176);&quot;&gt;Column&lt;/span&gt; &lt;span style=&quot;color: rgb(156, 220, 254);&quot;&gt;header&lt;/span&gt;=&lt;span style=&quot;color: rgb(206, 145, 120);&quot;&gt;&quot;Aktion&quot;&lt;/span&gt;&lt;span style=&quot;color: rgb(128, 128, 128);&quot;&gt;&amp;gt;&lt;/span&gt;&lt;/div&gt;&lt;div&gt;                &lt;span style=&quot;color: rgb(128, 128, 128);&quot;&gt;&amp;lt;&lt;/span&gt;&lt;span style=&quot;color: rgb(86, 156, 214);&quot;&gt;template&lt;/span&gt; #&lt;span style=&quot;color: rgb(156, 220, 254);&quot;&gt;body&lt;/span&gt;=&quot;&lt;span style=&quot;color: rgb(79, 193, 255);&quot;&gt;slotProps&lt;/span&gt;&quot;&lt;span style=&quot;color: rgb(128, 128, 128);&quot;&gt;&amp;gt;&lt;/span&gt;&lt;/div&gt;&lt;div&gt;                    &lt;span style=&quot;color: rgb(128, 128, 128);&quot;&gt;&amp;lt;&lt;/span&gt;&lt;span style=&quot;color: rgb(78, 201, 176);&quot;&gt;Button&lt;/span&gt;&lt;/div&gt;&lt;div&gt;                        &lt;span style=&quot;color: rgb(156, 220, 254);&quot;&gt;icon&lt;/span&gt;=&lt;span style=&quot;color: rgb(206, 145, 120);&quot;&gt;&quot;pi pi-cog&quot;&lt;/span&gt;&lt;/div&gt;&lt;div&gt;                        &lt;span style=&quot;color: rgb(156, 220, 254);&quot;&gt;variant&lt;/span&gt;=&lt;span style=&quot;color: rgb(206, 145, 120);&quot;&gt;&quot;text&quot;&lt;/span&gt;&lt;/div&gt;&lt;div&gt;                        &lt;span style=&quot;color: rgb(156, 220, 254);&quot;&gt;rounded&lt;/span&gt;&lt;/div&gt;&lt;div&gt;                        @&lt;span style=&quot;color: rgb(156, 220, 254);&quot;&gt;click&lt;/span&gt;=&quot;&lt;span style=&quot;color: rgb(220, 220, 170);&quot;&gt;toggleMenu&lt;/span&gt;(&lt;span style=&quot;color: rgb(156, 220, 254);&quot;&gt;$event&lt;/span&gt;, &lt;span style=&quot;color: rgb(79, 193, 255);&quot;&gt;slotProps&lt;/span&gt;)&quot;&lt;/div&gt;&lt;div&gt;                        :&lt;span style=&quot;color: rgb(156, 220, 254);&quot;&gt;title&lt;/span&gt;=&quot;&lt;span style=&quot;color: rgb(206, 145, 120);&quot;&gt;`Version &lt;/span&gt;&lt;span style=&quot;color: rgb(86, 156, 214);&quot;&gt;${&lt;/span&gt;&lt;span style=&quot;color: rgb(79, 193, 255);&quot;&gt;slotProps&lt;/span&gt;&lt;span style=&quot;color: rgb(212, 212, 212);&quot;&gt;.&lt;/span&gt;&lt;span style=&quot;color: rgb(156, 220, 254);&quot;&gt;index&lt;/span&gt;&lt;span style=&quot;color: rgb(212, 212, 212);&quot;&gt; + &lt;/span&gt;&lt;span style=&quot;color: rgb(181, 206, 168);&quot;&gt;1&lt;/span&gt;&lt;span style=&quot;color: rgb(86, 156, 214);&quot;&gt;}&lt;/span&gt;&lt;span style=&quot;color: rgb(206, 145, 120);&quot;&gt; bearbeiten`&lt;/span&gt;&quot;&lt;/div&gt;&lt;div&gt;                    &lt;span style=&quot;color: rgb(244, 71, 71);&quot;&gt;/&lt;/span&gt;&lt;span style=&quot;color: rgb(128, 128, 128);&quot;&gt;&amp;gt;&lt;/span&gt;&lt;/div&gt;&lt;div&gt;                    &lt;span style=&quot;color: rgb(128, 128, 128);&quot;&gt;&amp;lt;&lt;/span&gt;&lt;span style=&quot;color: rgb(78, 201, 176);&quot;&gt;Menu&lt;/span&gt; &lt;span style=&quot;color: rgb(156, 220, 254);&quot;&gt;ref&lt;/span&gt;=&lt;span style=&quot;color: rgb(206, 145, 120);&quot;&gt;&quot;menu&quot;&lt;/span&gt; :&lt;span style=&quot;color: rgb(156, 220, 254);&quot;&gt;model&lt;/span&gt;=&quot;&lt;span style=&quot;color: rgb(156, 220, 254);&quot;&gt;menuItems&lt;/span&gt;&quot; &lt;span style=&quot;color: rgb(156, 220, 254);&quot;&gt;popup&lt;/span&gt; &lt;span style=&quot;color: rgb(244, 71, 71);&quot;&gt;/&lt;/span&gt;&lt;span style=&quot;color: rgb(128, 128, 128);&quot;&gt;&amp;gt;&lt;/span&gt;&lt;/div&gt;&lt;div&gt;                &lt;span style=&quot;color: rgb(128, 128, 128);&quot;&gt;&amp;lt;/&lt;/span&gt;&lt;span style=&quot;color: rgb(86, 156, 214);&quot;&gt;template&lt;/span&gt;&lt;span style=&quot;color: rgb(128, 128, 128);&quot;&gt;&amp;gt;&lt;/span&gt;&lt;/div&gt;&lt;div&gt;            &lt;span style=&quot;color: rgb(128, 128, 128);&quot;&gt;&amp;lt;/&lt;/span&gt;&lt;span style=&quot;color: rgb(78, 201, 176);&quot;&gt;Column&lt;/span&gt;&lt;span style=&quot;color: rgb(128, 128, 128);&quot;&gt;&amp;gt;&lt;/span&gt;&lt;/div&gt;&lt;div&gt;        &lt;span style=&quot;color: rgb(128, 128, 128);&quot;&gt;&amp;lt;/&lt;/span&gt;&lt;span style=&quot;color: rgb(78, 201, 176);&quot;&gt;DataTable&lt;/span&gt;&lt;span style=&quot;color: rgb(128, 128, 128);&quot;&gt;&amp;gt;&lt;/span&gt;&lt;/div&gt;&lt;div&gt;    &lt;span style=&quot;color: rgb(128, 128, 128);&quot;&gt;&amp;lt;/&lt;/span&gt;&lt;span style=&quot;color: rgb(86, 156, 214);&quot;&gt;div&lt;/span&gt;&lt;span style=&quot;color: rgb(128, 128, 128);&quot;&gt;&amp;gt;&lt;/span&gt;&lt;/div&gt;&lt;div&gt;    &lt;span style=&quot;color: rgb(128, 128, 128);&quot;&gt;&amp;lt;&lt;/span&gt;&lt;span style=&quot;color: rgb(78, 201, 176);&quot;&gt;ShareVersionDialog&lt;/span&gt;&lt;/div&gt;&lt;div&gt;        :&lt;span style=&quot;color: rgb(156, 220, 254);&quot;&gt;visible&lt;/span&gt;=&quot;&lt;span style=&quot;color: rgb(156, 220, 254);&quot;&gt;isDialogVisible&lt;/span&gt;&quot;&lt;/div&gt;&lt;div&gt;        @&lt;span style=&quot;color: rgb(156, 220, 254);&quot;&gt;update&lt;/span&gt;:&lt;span style=&quot;color: rgb(156, 220, 254);&quot;&gt;visible&lt;/span&gt;=&quot;&lt;span style=&quot;color: rgb(156, 220, 254);&quot;&gt;isDialogVisible&lt;/span&gt; &lt;span style=&quot;color: rgb(212, 212, 212);&quot;&gt;=&lt;/span&gt; &lt;span style=&quot;color: rgb(156, 220, 254);&quot;&gt;$event&lt;/span&gt;&quot;&lt;/div&gt;&lt;div&gt;        :&lt;span style=&quot;color: rgb(156, 220, 254);&quot;&gt;selectedVersion&lt;/span&gt;=&quot;&lt;span style=&quot;color: rgb(156, 220, 254);&quot;&gt;selectedVersion&lt;/span&gt;&quot;&lt;/div&gt;&lt;div&gt;   &lt;span style=&quot;color: rgb(128, 128, 128);&quot;&gt; /&amp;gt;&lt;/span&gt;&lt;/div&gt;&lt;div&gt;&lt;span style=&quot;color: rgb(128, 128, 128);&quot;&gt;&amp;lt;/&lt;/span&gt;&lt;span style=&quot;color: rgb(86, 156, 214);&quot;&gt;template&lt;/span&gt;&lt;span style=&quot;color: rgb(128, 128, 128);&quot;&gt;&amp;gt;&lt;/span&gt;&lt;/div&gt;&lt;br&gt;&lt;div&gt;&lt;span style=&quot;color: rgb(128, 128, 128);&quot;&gt;&amp;lt;&lt;/span&gt;&lt;span style=&quot;color: rgb(86, 156, 214);&quot;&gt;script&lt;/span&gt; &lt;span style=&quot;color: rgb(156, 220, 254);&quot;&gt;setup&lt;/span&gt; &lt;span style=&quot;color: rgb(156, 220, 254);&quot;&gt;lang&lt;/span&gt;=&lt;span style=&quot;color: rgb(206, 145, 120);&quot;&gt;&quot;ts&quot;&lt;/span&gt;&lt;span style=&quot;color: rgb(128, 128, 128);&quot;&gt;&amp;gt;&lt;/span&gt;&lt;/div&gt;&lt;div&gt;&lt;span style=&quot;color: rgb(197, 134, 192);&quot;&gt;import&lt;/span&gt; { &lt;span style=&quot;color: rgb(156, 220, 254);&quot;&gt;ref&lt;/span&gt;, &lt;span style=&quot;color: rgb(197, 134, 192);&quot;&gt;type&lt;/span&gt; &lt;span style=&quot;color: rgb(156, 220, 254);&quot;&gt;Ref&lt;/span&gt; } &lt;span style=&quot;color: rgb(197, 134, 192);&quot;&gt;from&lt;/span&gt; &lt;span style=&quot;color: rgb(206, 145, 120);&quot;&gt;&#39;vue&#39;&lt;/span&gt;;&lt;/div&gt;&lt;div&gt;&lt;span style=&quot;color: rgb(197, 134, 192);&quot;&gt;import&lt;/span&gt; { &lt;span style=&quot;color: rgb(156, 220, 254);&quot;&gt;Button&lt;/span&gt;, &lt;span style=&quot;color: rgb(156, 220, 254);&quot;&gt;Column&lt;/span&gt;, &lt;span style=&quot;color: rgb(156, 220, 254);&quot;&gt;DataTable&lt;/span&gt;, &lt;span style=&quot;color: rgb(156, 220, 254);&quot;&gt;Tag&lt;/span&gt;, &lt;span style=&quot;color: rgb(156, 220, 254);&quot;&gt;Menu&lt;/span&gt; } &lt;span style=&quot;color: rgb(197, 134, 192);&quot;&gt;from&lt;/span&gt; &lt;span style=&quot;color: rgb(206, 145, 120);&quot;&gt;&#39;primevue&#39;&lt;/span&gt;;&lt;/div&gt;&lt;div&gt;&lt;span style=&quot;color: rgb(197, 134, 192);&quot;&gt;import&lt;/span&gt; { &lt;span style=&quot;color: rgb(156, 220, 254);&quot;&gt;formatDateToDE&lt;/span&gt; } &lt;span style=&quot;color: rgb(197, 134, 192);&quot;&gt;from&lt;/span&gt; &lt;span style=&quot;color: rgb(206, 145, 120);&quot;&gt;&#39;@/shared/utils/dateUtils&#39;&lt;/span&gt;;&lt;/div&gt;&lt;div&gt;&lt;span style=&quot;color: rgb(197, 134, 192);&quot;&gt;import&lt;/span&gt; &lt;span style=&quot;color: rgb(156, 220, 254);&quot;&gt;VersionDummyService&lt;/span&gt; &lt;span style=&quot;color: rgb(197, 134, 192);&quot;&gt;from&lt;/span&gt; &lt;span style=&quot;color: rgb(206, 145, 120);&quot;&gt;&#39;../services/VersionDummyService&#39;&lt;/span&gt;;&lt;/div&gt;&lt;div&gt;&lt;span style=&quot;color: rgb(197, 134, 192);&quot;&gt;import&lt;/span&gt; &lt;span style=&quot;color: rgb(156, 220, 254);&quot;&gt;ShareVersionDialog&lt;/span&gt; &lt;span style=&quot;color: rgb(197, 134, 192);&quot;&gt;from&lt;/span&gt; &lt;span style=&quot;color: rgb(206, 145, 120);&quot;&gt;&#39;./ShareVersionDialog.vue&#39;&lt;/span&gt;;&lt;/div&gt;&lt;div&gt;&lt;span style=&quot;color: rgb(197, 134, 192);&quot;&gt;import&lt;/span&gt; &lt;span style=&quot;color: rgb(197, 134, 192);&quot;&gt;type&lt;/span&gt; { &lt;span style=&quot;color: rgb(156, 220, 254);&quot;&gt;PublicEventVersion&lt;/span&gt; } &lt;span style=&quot;color: rgb(197, 134, 192);&quot;&gt;from&lt;/span&gt; &lt;span style=&quot;color: rgb(206, 145, 120);&quot;&gt;&#39;@/features/concept-versioning/types/PublicEventVersion&#39;&lt;/span&gt;;&lt;/div&gt;&lt;br&gt;&lt;div&gt;&lt;span style=&quot;color: rgb(106, 153, 85);&quot;&gt;/**&lt;/span&gt;&lt;/div&gt;&lt;div&gt;&lt;span style=&quot;color: rgb(106, 153, 85);&quot;&gt; * Reactive list of dummy version data.&lt;/span&gt;&lt;/div&gt;&lt;div&gt;&lt;span style=&quot;color: rgb(106, 153, 85);&quot;&gt; */&lt;/span&gt;&lt;/div&gt;&lt;div&gt;&lt;span style=&quot;color: rgb(86, 156, 214);&quot;&gt;const&lt;/span&gt; &lt;span style=&quot;color: rgb(79, 193, 255);&quot;&gt;items&lt;/span&gt;&lt;span style=&quot;color: rgb(212, 212, 212);&quot;&gt;:&lt;/span&gt; &lt;span style=&quot;color: rgb(78, 201, 176);&quot;&gt;Ref&lt;/span&gt;&amp;lt;&lt;span style=&quot;color: rgb(78, 201, 176);&quot;&gt;PublicEventVersion&lt;/span&gt;[]&amp;gt; &lt;span style=&quot;color: rgb(212, 212, 212);&quot;&gt;=&lt;/span&gt; &lt;span style=&quot;color: rgb(220, 220, 170);&quot;&gt;ref&lt;/span&gt;(&lt;span style=&quot;color: rgb(156, 220, 254);&quot;&gt;VersionDummyService&lt;/span&gt;.&lt;span style=&quot;color: rgb(220, 220, 170);&quot;&gt;getVersions&lt;/span&gt;());&lt;/div&gt;&lt;br&gt;&lt;div&gt;&lt;span style=&quot;color: rgb(106, 153, 85);&quot;&gt;/**&lt;/span&gt;&lt;/div&gt;&lt;div&gt;&lt;span style=&quot;color: rgb(106, 153, 85);&quot;&gt; * Reference to the PrimeVue Menu component instance.&lt;/span&gt;&lt;/div&gt;&lt;div&gt;&lt;span style=&quot;color: rgb(106, 153, 85);&quot;&gt; * &lt;/span&gt;&lt;span style=&quot;color: rgb(86, 156, 214);&quot;&gt;@see&lt;/span&gt;&lt;span style=&quot;color: rgb(106, 153, 85);&quot;&gt; &lt;/span&gt;&lt;span style=&quot;color: rgb(78, 201, 176);&quot;&gt;PrimeVue&lt;/span&gt;&lt;span style=&quot;color: rgb(106, 153, 85);&quot;&gt; `Menu`&lt;/span&gt;&lt;/div&gt;&lt;div&gt;&lt;span style=&quot;color: rgb(106, 153, 85);&quot;&gt; */&lt;/span&gt;&lt;/div&gt;&lt;div&gt;&lt;span style=&quot;color: rgb(86, 156, 214);&quot;&gt;const&lt;/span&gt; &lt;span style=&quot;color: rgb(79, 193, 255);&quot;&gt;menu&lt;/span&gt; &lt;span style=&quot;color: rgb(212, 212, 212);&quot;&gt;=&lt;/span&gt; &lt;span style=&quot;color: rgb(220, 220, 170);&quot;&gt;ref&lt;/span&gt;&amp;lt;&lt;span style=&quot;color: rgb(78, 201, 176);&quot;&gt;InstanceType&lt;/span&gt;&amp;lt;&lt;span style=&quot;color: rgb(86, 156, 214);&quot;&gt;typeof&lt;/span&gt; &lt;span style=&quot;color: rgb(78, 201, 176);&quot;&gt;Menu&lt;/span&gt;&amp;gt; &lt;span style=&quot;color: rgb(212, 212, 212);&quot;&gt;|&lt;/span&gt; &lt;span style=&quot;color: rgb(78, 201, 176);&quot;&gt;null&lt;/span&gt;&amp;gt;(&lt;span style=&quot;color: rgb(86, 156, 214);&quot;&gt;null&lt;/span&gt;);&lt;/div&gt;&lt;br&gt;&lt;div&gt;&lt;span style=&quot;color: rgb(106, 153, 85);&quot;&gt;/**&lt;/span&gt;&lt;/div&gt;&lt;div&gt;&lt;span style=&quot;color: rgb(106, 153, 85);&quot;&gt; * The row data currently targeted by the context menu.&lt;/span&gt;&lt;/div&gt;&lt;div&gt;&lt;span style=&quot;color: rgb(106, 153, 85);&quot;&gt; */&lt;/span&gt;&lt;/div&gt;&lt;div&gt;&lt;span style=&quot;color: rgb(86, 156, 214);&quot;&gt;const&lt;/span&gt; &lt;span style=&quot;color: rgb(79, 193, 255);&quot;&gt;menuTarget&lt;/span&gt; &lt;span style=&quot;color: rgb(212, 212, 212);&quot;&gt;=&lt;/span&gt; &lt;span style=&quot;color: rgb(220, 220, 170);&quot;&gt;ref&lt;/span&gt;&amp;lt;&lt;span style=&quot;color: rgb(78, 201, 176);&quot;&gt;PublicEventVersion&lt;/span&gt; &lt;span style=&quot;color: rgb(212, 212, 212);&quot;&gt;|&lt;/span&gt; &lt;span style=&quot;color: rgb(78, 201, 176);&quot;&gt;null&lt;/span&gt;&amp;gt;(&lt;span style=&quot;color: rgb(86, 156, 214);&quot;&gt;null&lt;/span&gt;);&lt;/div&gt;&lt;br&gt;&lt;div&gt;&lt;span style=&quot;color: rgb(106, 153, 85);&quot;&gt;/**&lt;/span&gt;&lt;/div&gt;&lt;div&gt;&lt;span style=&quot;color: rgb(106, 153, 85);&quot;&gt; * Controls visibility of the version dialog.&lt;/span&gt;&lt;/div&gt;&lt;div&gt;&lt;span style=&quot;color: rgb(106, 153, 85);&quot;&gt; */&lt;/span&gt;&lt;/div&gt;&lt;div&gt;&lt;span style=&quot;color: rgb(86, 156, 214);&quot;&gt;const&lt;/span&gt; &lt;span style=&quot;color: rgb(79, 193, 255);&quot;&gt;isDialogVisible&lt;/span&gt; &lt;span style=&quot;color: rgb(212, 212, 212);&quot;&gt;=&lt;/span&gt; &lt;span style=&quot;color: rgb(220, 220, 170);&quot;&gt;ref&lt;/span&gt;&amp;lt;&lt;span style=&quot;color: rgb(78, 201, 176);&quot;&gt;boolean&lt;/span&gt;&amp;gt;(&lt;span style=&quot;color: rgb(86, 156, 214);&quot;&gt;false&lt;/span&gt;);&lt;/div&gt;&lt;br&gt;&lt;div&gt;&lt;span style=&quot;color: rgb(106, 153, 85);&quot;&gt;/**&lt;/span&gt;&lt;/div&gt;&lt;div&gt;&lt;span style=&quot;color: rgb(106, 153, 85);&quot;&gt; * The version selected for dialog display.&lt;/span&gt;&lt;/div&gt;&lt;div&gt;&lt;span style=&quot;color: rgb(106, 153, 85);&quot;&gt; */&lt;/span&gt;&lt;/div&gt;&lt;div&gt;&lt;span style=&quot;color: rgb(86, 156, 214);&quot;&gt;const&lt;/span&gt; &lt;span style=&quot;color: rgb(79, 193, 255);&quot;&gt;selectedVersion&lt;/span&gt; &lt;span style=&quot;color: rgb(212, 212, 212);&quot;&gt;=&lt;/span&gt; &lt;span style=&quot;color: rgb(220, 220, 170);&quot;&gt;ref&lt;/span&gt;&amp;lt;&lt;span style=&quot;color: rgb(78, 201, 176);&quot;&gt;PublicEventVersion&lt;/span&gt; &lt;span style=&quot;color: rgb(212, 212, 212);&quot;&gt;|&lt;/span&gt; &lt;span style=&quot;color: rgb(78, 201, 176);&quot;&gt;null&lt;/span&gt;&amp;gt;(&lt;span style=&quot;color: rgb(86, 156, 214);&quot;&gt;null&lt;/span&gt;);&lt;/div&gt;&lt;br&gt;&lt;div&gt;&lt;span style=&quot;color: rgb(106, 153, 85);&quot;&gt;/**&lt;/span&gt;&lt;/div&gt;&lt;div&gt;&lt;span style=&quot;color: rgb(106, 153, 85);&quot;&gt; * Opens the context menu for a specific row.&lt;/span&gt;&lt;/div&gt;&lt;div&gt;&lt;span style=&quot;color: rgb(106, 153, 85);&quot;&gt; * &lt;/span&gt;&lt;span style=&quot;color: rgb(86, 156, 214);&quot;&gt;@param&lt;/span&gt;&lt;span style=&quot;color: rgb(106, 153, 85);&quot;&gt; &lt;/span&gt;&lt;span style=&quot;color: rgb(156, 220, 254);&quot;&gt;event&lt;/span&gt;&lt;span style=&quot;color: rgb(106, 153, 85);&quot;&gt; - The DOM event triggering the menu&lt;/span&gt;&lt;/div&gt;&lt;div&gt;&lt;span style=&quot;color: rgb(106, 153, 85);&quot;&gt; * &lt;/span&gt;&lt;span style=&quot;color: rgb(86, 156, 214);&quot;&gt;@param&lt;/span&gt;&lt;span style=&quot;color: rgb(106, 153, 85);&quot;&gt; &lt;/span&gt;&lt;span style=&quot;color: rgb(156, 220, 254);&quot;&gt;rowData&lt;/span&gt;&lt;span style=&quot;color: rgb(106, 153, 85);&quot;&gt; - The row data object from the table&lt;/span&gt;&lt;/div&gt;&lt;div&gt;&lt;span style=&quot;color: rgb(106, 153, 85);&quot;&gt; * &lt;/span&gt;&lt;span style=&quot;color: rgb(86, 156, 214);&quot;&gt;@see&lt;/span&gt;&lt;span style=&quot;color: rgb(106, 153, 85);&quot;&gt; &lt;/span&gt;&lt;span style=&quot;color: rgb(78, 201, 176);&quot;&gt;PrimeVue&lt;/span&gt;&lt;span style=&quot;color: rgb(106, 153, 85);&quot;&gt; `Menu.toggle`&lt;/span&gt;&lt;/div&gt;&lt;div&gt;&lt;span style=&quot;color: rgb(106, 153, 85);&quot;&gt; */&lt;/span&gt;&lt;/div&gt;&lt;div&gt;&lt;span style=&quot;color: rgb(86, 156, 214);&quot;&gt;function&lt;/span&gt; &lt;span style=&quot;color: rgb(220, 220, 170);&quot;&gt;toggleMenu&lt;/span&gt;(&lt;span style=&quot;color: rgb(156, 220, 254);&quot;&gt;event&lt;/span&gt;&lt;span style=&quot;color: rgb(212, 212, 212);&quot;&gt;:&lt;/span&gt; &lt;span style=&quot;color: rgb(78, 201, 176);&quot;&gt;Event&lt;/span&gt;, &lt;span style=&quot;color: rgb(156, 220, 254);&quot;&gt;rowData&lt;/span&gt;&lt;span style=&quot;color: rgb(212, 212, 212);&quot;&gt;:&lt;/span&gt; { &lt;span style=&quot;color: rgb(156, 220, 254);&quot;&gt;data&lt;/span&gt;&lt;span style=&quot;color: rgb(212, 212, 212);&quot;&gt;:&lt;/span&gt; &lt;span style=&quot;color: rgb(78, 201, 176);&quot;&gt;PublicEventVersion&lt;/span&gt; })&lt;span style=&quot;color: rgb(212, 212, 212);&quot;&gt;:&lt;/span&gt; &lt;span style=&quot;color: rgb(78, 201, 176);&quot;&gt;void&lt;/span&gt; {&lt;/div&gt;&lt;div&gt;    &lt;span style=&quot;color: rgb(79, 193, 255);&quot;&gt;menuTarget&lt;/span&gt;.&lt;span style=&quot;color: rgb(156, 220, 254);&quot;&gt;value&lt;/span&gt; &lt;span style=&quot;color: rgb(212, 212, 212);&quot;&gt;=&lt;/span&gt; &lt;span style=&quot;color: rgb(156, 220, 254);&quot;&gt;rowData&lt;/span&gt;.&lt;span style=&quot;color: rgb(156, 220, 254);&quot;&gt;data&lt;/span&gt;;&lt;/div&gt;&lt;div&gt;    &lt;span style=&quot;color: rgb(79, 193, 255);&quot;&gt;menu&lt;/span&gt;.&lt;span style=&quot;color: rgb(156, 220, 254);&quot;&gt;value&lt;/span&gt;?.&lt;span style=&quot;color: rgb(220, 220, 170);&quot;&gt;toggle&lt;/span&gt;(&lt;span style=&quot;color: rgb(156, 220, 254);&quot;&gt;event&lt;/span&gt;);&lt;/div&gt;&lt;div&gt;}&lt;/div&gt;&lt;br&gt;&lt;div&gt;&lt;span style=&quot;color: rgb(106, 153, 85);&quot;&gt;/**&lt;/span&gt;&lt;/div&gt;&lt;div&gt;&lt;span style=&quot;color: rgb(106, 153, 85);&quot;&gt; * Opens the dialog for the selected version.&lt;/span&gt;&lt;/div&gt;&lt;div&gt;&lt;span style=&quot;color: rgb(106, 153, 85);&quot;&gt; */&lt;/span&gt;&lt;/div&gt;&lt;div&gt;&lt;span style=&quot;color: rgb(86, 156, 214);&quot;&gt;function&lt;/span&gt; &lt;span style=&quot;color: rgb(220, 220, 170);&quot;&gt;showDialog&lt;/span&gt;()&lt;span style=&quot;color: rgb(212, 212, 212);&quot;&gt;:&lt;/span&gt; &lt;span style=&quot;color: rgb(78, 201, 176);&quot;&gt;void&lt;/span&gt; {&lt;/div&gt;&lt;div&gt;    &lt;span style=&quot;color: rgb(197, 134, 192);&quot;&gt;if&lt;/span&gt; (&lt;span style=&quot;color: rgb(79, 193, 255);&quot;&gt;menuTarget&lt;/span&gt;.&lt;span style=&quot;color: rgb(156, 220, 254);&quot;&gt;value&lt;/span&gt;) {&lt;/div&gt;&lt;div&gt;        &lt;span style=&quot;color: rgb(79, 193, 255);&quot;&gt;selectedVersion&lt;/span&gt;.&lt;span style=&quot;color: rgb(156, 220, 254);&quot;&gt;value&lt;/span&gt; &lt;span style=&quot;color: rgb(212, 212, 212);&quot;&gt;=&lt;/span&gt; &lt;span style=&quot;color: rgb(79, 193, 255);&quot;&gt;menuTarget&lt;/span&gt;.&lt;span style=&quot;color: rgb(156, 220, 254);&quot;&gt;value&lt;/span&gt;;&lt;/div&gt;&lt;div&gt;        &lt;span style=&quot;color: rgb(79, 193, 255);&quot;&gt;isDialogVisible&lt;/span&gt;.&lt;span style=&quot;color: rgb(156, 220, 254);&quot;&gt;value&lt;/span&gt; &lt;span style=&quot;color: rgb(212, 212, 212);&quot;&gt;=&lt;/span&gt; &lt;span style=&quot;color: rgb(86, 156, 214);&quot;&gt;true&lt;/span&gt;;&lt;/div&gt;&lt;div&gt;    }&lt;/div&gt;&lt;div&gt;}&lt;/div&gt;&lt;br&gt;&lt;div&gt;&lt;span style=&quot;color: rgb(106, 153, 85);&quot;&gt;/**&lt;/span&gt;&lt;/div&gt;&lt;div&gt;&lt;span style=&quot;color: rgb(106, 153, 85);&quot;&gt; * Menu items for the context menu.&lt;/span&gt;&lt;/div&gt;&lt;div&gt;&lt;span style=&quot;color: rgb(106, 153, 85);&quot;&gt; * &lt;/span&gt;&lt;span style=&quot;color: rgb(86, 156, 214);&quot;&gt;@see&lt;/span&gt;&lt;span style=&quot;color: rgb(106, 153, 85);&quot;&gt; &lt;/span&gt;&lt;span style=&quot;color: rgb(78, 201, 176);&quot;&gt;PrimeVue&lt;/span&gt;&lt;span style=&quot;color: rgb(106, 153, 85);&quot;&gt; `Menu` component&lt;/span&gt;&lt;/div&gt;&lt;div&gt;&lt;span style=&quot;color: rgb(106, 153, 85);&quot;&gt; */&lt;/span&gt;&lt;/div&gt;&lt;div&gt;&lt;span style=&quot;color: rgb(86, 156, 214);&quot;&gt;const&lt;/span&gt; &lt;span style=&quot;color: rgb(79, 193, 255);&quot;&gt;menuItems&lt;/span&gt; &lt;span style=&quot;color: rgb(212, 212, 212);&quot;&gt;=&lt;/span&gt; &lt;span style=&quot;color: rgb(220, 220, 170);&quot;&gt;ref&lt;/span&gt;([&lt;/div&gt;&lt;div&gt;    {&lt;/div&gt;&lt;div&gt;        &lt;span style=&quot;color: rgb(156, 220, 254);&quot;&gt;label&lt;/span&gt;&lt;span style=&quot;color: rgb(156, 220, 254);&quot;&gt;:&lt;/span&gt; &lt;span style=&quot;color: rgb(206, 145, 120);&quot;&gt;&#39;Freigeben&#39;&lt;/span&gt;,&lt;/div&gt;&lt;div&gt;        &lt;span style=&quot;color: rgb(156, 220, 254);&quot;&gt;icon&lt;/span&gt;&lt;span style=&quot;color: rgb(156, 220, 254);&quot;&gt;:&lt;/span&gt; &lt;span style=&quot;color: rgb(206, 145, 120);&quot;&gt;&#39;pi pi-share-alt&#39;&lt;/span&gt;,&lt;/div&gt;&lt;div&gt;        &lt;span style=&quot;color: rgb(220, 220, 170);&quot;&gt;command&lt;/span&gt;&lt;span style=&quot;color: rgb(156, 220, 254);&quot;&gt;:&lt;/span&gt; () &lt;span style=&quot;color: rgb(86, 156, 214);&quot;&gt;=&amp;gt;&lt;/span&gt; &lt;span style=&quot;color: rgb(220, 220, 170);&quot;&gt;showDialog&lt;/span&gt;(),&lt;/div&gt;&lt;div&gt;        &lt;span style=&quot;color: rgb(220, 220, 170);&quot;&gt;visible&lt;/span&gt;&lt;span style=&quot;color: rgb(156, 220, 254);&quot;&gt;:&lt;/span&gt; () &lt;span style=&quot;color: rgb(86, 156, 214);&quot;&gt;=&amp;gt;&lt;/span&gt; {&lt;/div&gt;&lt;div&gt;            &lt;span style=&quot;color: rgb(197, 134, 192);&quot;&gt;return&lt;/span&gt; &lt;span style=&quot;color: rgb(79, 193, 255);&quot;&gt;menuTarget&lt;/span&gt;.&lt;span style=&quot;color: rgb(156, 220, 254);&quot;&gt;value&lt;/span&gt; &lt;span style=&quot;color: rgb(212, 212, 212);&quot;&gt;?&lt;/span&gt; &lt;span style=&quot;color: rgb(212, 212, 212);&quot;&gt;!&lt;/span&gt;&lt;span style=&quot;color: rgb(79, 193, 255);&quot;&gt;menuTarget&lt;/span&gt;.&lt;span style=&quot;color: rgb(156, 220, 254);&quot;&gt;value&lt;/span&gt;.&lt;span style=&quot;color: rgb(156, 220, 254);&quot;&gt;isShared&lt;/span&gt; &lt;span style=&quot;color: rgb(212, 212, 212);&quot;&gt;:&lt;/span&gt; &lt;span style=&quot;color: rgb(86, 156, 214);&quot;&gt;false&lt;/span&gt;;&lt;/div&gt;&lt;div&gt;        },&lt;/div&gt;&lt;div&gt;    },&lt;/div&gt;&lt;div&gt;    {&lt;/div&gt;&lt;div&gt;        &lt;span style=&quot;color: rgb(156, 220, 254);&quot;&gt;label&lt;/span&gt;&lt;span style=&quot;color: rgb(156, 220, 254);&quot;&gt;:&lt;/span&gt; &lt;span style=&quot;color: rgb(206, 145, 120);&quot;&gt;&#39;Details&#39;&lt;/span&gt;,&lt;/div&gt;&lt;div&gt;        &lt;span style=&quot;color: rgb(156, 220, 254);&quot;&gt;icon&lt;/span&gt;&lt;span style=&quot;color: rgb(156, 220, 254);&quot;&gt;:&lt;/span&gt; &lt;span style=&quot;color: rgb(206, 145, 120);&quot;&gt;&#39;pi pi-info-circle&#39;&lt;/span&gt;,&lt;/div&gt;&lt;div&gt;        &lt;span style=&quot;color: rgb(220, 220, 170);&quot;&gt;command&lt;/span&gt;&lt;span style=&quot;color: rgb(156, 220, 254);&quot;&gt;:&lt;/span&gt; () &lt;span style=&quot;color: rgb(86, 156, 214);&quot;&gt;=&amp;gt;&lt;/span&gt; {&lt;/div&gt;&lt;div&gt;            &lt;span style=&quot;color: rgb(197, 134, 192);&quot;&gt;if&lt;/span&gt; (&lt;span style=&quot;color: rgb(79, 193, 255);&quot;&gt;menuTarget&lt;/span&gt;.&lt;span style=&quot;color: rgb(156, 220, 254);&quot;&gt;value&lt;/span&gt;) {&lt;/div&gt;&lt;div&gt;                &lt;span style=&quot;color: rgb(86, 156, 214);&quot;&gt;const&lt;/span&gt; &lt;span style=&quot;color: rgb(79, 193, 255);&quot;&gt;version&lt;/span&gt; &lt;span style=&quot;color: rgb(212, 212, 212);&quot;&gt;=&lt;/span&gt; &lt;span style=&quot;color: rgb(156, 220, 254);&quot;&gt;VersionDummyService&lt;/span&gt;.&lt;span style=&quot;color: rgb(220, 220, 170);&quot;&gt;getVersionById&lt;/span&gt;(&lt;span style=&quot;color: rgb(79, 193, 255);&quot;&gt;menuTarget&lt;/span&gt;.&lt;span style=&quot;color: rgb(156, 220, 254);&quot;&gt;value&lt;/span&gt;.&lt;span style=&quot;color: rgb(156, 220, 254);&quot;&gt;id&lt;/span&gt;);&lt;/div&gt;&lt;div&gt;                &lt;span style=&quot;color: rgb(156, 220, 254);&quot;&gt;console&lt;/span&gt;.&lt;span style=&quot;color: rgb(220, 220, 170);&quot;&gt;debug&lt;/span&gt;(&lt;span style=&quot;color: rgb(206, 145, 120);&quot;&gt;&#39;Selected Version:&#39;&lt;/span&gt;, &lt;span style=&quot;color: rgb(79, 193, 255);&quot;&gt;version&lt;/span&gt;);&lt;/div&gt;&lt;div&gt;            }&lt;/div&gt;&lt;div&gt;        },&lt;/div&gt;&lt;div&gt;    },&lt;/div&gt;&lt;div&gt;]);&lt;/div&gt;&lt;div&gt;&lt;span style=&quot;color: rgb(128, 128, 128);&quot;&gt;&amp;lt;/&lt;/span&gt;&lt;span style=&quot;color: rgb(86, 156, 214);&quot;&gt;script&lt;/span&gt;&lt;span style=&quot;color: rgb(128, 128, 128);&quot;&gt;&amp;gt;&lt;/span&gt;&lt;/div&gt;&lt;br&gt;&lt;div&gt;&lt;span style=&quot;color: rgb(128, 128, 128);&quot;&gt;&amp;lt;&lt;/span&gt;&lt;span style=&quot;color: rgb(86, 156, 214);&quot;&gt;style&lt;/span&gt; &lt;span style=&quot;color: rgb(156, 220, 254);&quot;&gt;scoped&lt;/span&gt;&lt;span style=&quot;color: rgb(128, 128, 128);&quot;&gt;&amp;gt;&lt;/span&gt;&lt;/div&gt;&lt;div&gt;&lt;span style=&quot;color: rgb(106, 153, 85);&quot;&gt;/* Inline settings button */&lt;/span&gt;&lt;/div&gt;&lt;div&gt;:deep(&lt;span style=&quot;color: rgb(215, 186, 125);&quot;&gt;.p-button-icon&lt;/span&gt;) {&lt;/div&gt;&lt;div&gt;    &lt;span style=&quot;color: rgb(156, 220, 254);&quot;&gt;font-size&lt;/span&gt;: &lt;span style=&quot;color: rgb(181, 206, 168);&quot;&gt;1.5rem&lt;/span&gt;;&lt;/div&gt;&lt;div&gt;}&lt;/div&gt;&lt;div&gt;&lt;span style=&quot;color: rgb(128, 128, 128);&quot;&gt;&amp;lt;/&lt;/span&gt;&lt;span style=&quot;color: rgb(86, 156, 214);&quot;&gt;style&lt;/span&gt;&lt;span style=&quot;color: rgb(128, 128, 128);&quot;&gt;&amp;gt;&lt;/span&gt;&lt;/div&gt;&lt;br&gt;&lt;/div&gt;&lt;/div&gt;" style="rounded=0;whiteSpace=wrap;html=1;align=left;verticalAlign=top;" vertex="1" parent="1">
          <mxGeometry x="100" y="350" width="710" height="2425" as="geometry" />
        </mxCell>
        <mxCell id="7iGNXJQkttV0HCJYnzMc-3" value="src/features/concept-versioning/components/EventVersionView.vue&lt;div&gt;&lt;div style=&quot;color: rgb(204, 204, 204); background-color: rgb(31, 31, 31); font-family: Menlo, Monaco, &amp;quot;Courier New&amp;quot;, monospace; line-height: 18px; white-space: pre;&quot;&gt;&lt;div&gt;&lt;span style=&quot;color: rgb(128, 128, 128);&quot;&gt;&amp;lt;&lt;/span&gt;&lt;span style=&quot;color: rgb(86, 156, 214);&quot;&gt;template&lt;/span&gt;&lt;span style=&quot;color: rgb(128, 128, 128);&quot;&gt;&amp;gt;&lt;/span&gt;&lt;/div&gt;&lt;div&gt;    &lt;span style=&quot;color: rgb(128, 128, 128);&quot;&gt;&amp;lt;&lt;/span&gt;&lt;span style=&quot;color: rgb(78, 201, 176);&quot;&gt;SubsectionHeading&lt;/span&gt; &lt;span style=&quot;color: rgb(156, 220, 254);&quot;&gt;label&lt;/span&gt;=&lt;span style=&quot;color: rgb(206, 145, 120);&quot;&gt;&quot;Versionen&quot;&lt;/span&gt; &lt;span style=&quot;color: rgb(156, 220, 254);&quot;&gt;badgelabel&lt;/span&gt;=&lt;span style=&quot;color: rgb(206, 145, 120);&quot;&gt;&quot;2&quot;&lt;/span&gt;&lt;span style=&quot;color: rgb(128, 128, 128);&quot;&gt; /&amp;gt;&lt;/span&gt;&lt;/div&gt;&lt;div&gt;    &lt;span style=&quot;color: rgb(128, 128, 128);&quot;&gt;&amp;lt;&lt;/span&gt;&lt;span style=&quot;color: rgb(78, 201, 176);&quot;&gt;EventVersionTable&lt;/span&gt;&lt;span style=&quot;color: rgb(128, 128, 128);&quot;&gt; /&amp;gt;&lt;/span&gt;&lt;/div&gt;&lt;div&gt;&lt;span style=&quot;color: rgb(128, 128, 128);&quot;&gt;&amp;lt;/&lt;/span&gt;&lt;span style=&quot;color: rgb(86, 156, 214);&quot;&gt;template&lt;/span&gt;&lt;span style=&quot;color: rgb(128, 128, 128);&quot;&gt;&amp;gt;&lt;/span&gt;&lt;/div&gt;&lt;br&gt;&lt;div&gt;&lt;span style=&quot;color: rgb(128, 128, 128);&quot;&gt;&amp;lt;&lt;/span&gt;&lt;span style=&quot;color: rgb(86, 156, 214);&quot;&gt;script&lt;/span&gt; &lt;span style=&quot;color: rgb(156, 220, 254);&quot;&gt;setup&lt;/span&gt; &lt;span style=&quot;color: rgb(156, 220, 254);&quot;&gt;lang&lt;/span&gt;=&lt;span style=&quot;color: rgb(206, 145, 120);&quot;&gt;&quot;ts&quot;&lt;/span&gt;&lt;span style=&quot;color: rgb(128, 128, 128);&quot;&gt;&amp;gt;&lt;/span&gt;&lt;/div&gt;&lt;div&gt;&lt;span style=&quot;color: rgb(197, 134, 192);&quot;&gt;import&lt;/span&gt; &lt;span style=&quot;color: rgb(156, 220, 254);&quot;&gt;EventVersionTable&lt;/span&gt; &lt;span style=&quot;color: rgb(197, 134, 192);&quot;&gt;from&lt;/span&gt; &lt;span style=&quot;color: rgb(206, 145, 120);&quot;&gt;&#39;./EventVersionTable.vue&#39;&lt;/span&gt;;&lt;/div&gt;&lt;div&gt;&lt;span style=&quot;color: rgb(197, 134, 192);&quot;&gt;import&lt;/span&gt; &lt;span style=&quot;color: rgb(156, 220, 254);&quot;&gt;SubsectionHeading&lt;/span&gt; &lt;span style=&quot;color: rgb(197, 134, 192);&quot;&gt;from&lt;/span&gt; &lt;span style=&quot;color: rgb(206, 145, 120);&quot;&gt;&#39;@/shared/components/atoms/headings/SubsectionHeading.vue&#39;&lt;/span&gt;;&lt;/div&gt;&lt;br&gt;&lt;div&gt;&lt;span style=&quot;color: rgb(220, 220, 170);&quot;&gt;defineProps&lt;/span&gt;&amp;lt;{ &lt;span style=&quot;color: rgb(156, 220, 254);&quot;&gt;eventId&lt;/span&gt;&lt;span style=&quot;color: rgb(212, 212, 212);&quot;&gt;:&lt;/span&gt; &lt;span style=&quot;color: rgb(78, 201, 176);&quot;&gt;string&lt;/span&gt; }&amp;gt;();&lt;/div&gt;&lt;div&gt;&lt;span style=&quot;color: rgb(128, 128, 128);&quot;&gt;&amp;lt;/&lt;/span&gt;&lt;span style=&quot;color: rgb(86, 156, 214);&quot;&gt;script&lt;/span&gt;&lt;span style=&quot;color: rgb(128, 128, 128);&quot;&gt;&amp;gt;&lt;/span&gt;&lt;/div&gt;&lt;br&gt;&lt;div&gt;&lt;span style=&quot;color: rgb(128, 128, 128);&quot;&gt;&amp;lt;&lt;/span&gt;&lt;span style=&quot;color: rgb(86, 156, 214);&quot;&gt;style&lt;/span&gt; &lt;span style=&quot;color: rgb(156, 220, 254);&quot;&gt;scoped&lt;/span&gt;&lt;span style=&quot;color: rgb(128, 128, 128);&quot;&gt;&amp;gt;&lt;/span&gt;&lt;/div&gt;&lt;div&gt;&lt;span style=&quot;color: rgb(215, 186, 125);&quot;&gt;.panel-header&lt;/span&gt; {&lt;/div&gt;&lt;div&gt;    &lt;span style=&quot;color: rgb(156, 220, 254);&quot;&gt;justify-content&lt;/span&gt;: &lt;span style=&quot;color: rgb(206, 145, 120);&quot;&gt;space-between&lt;/span&gt;;&lt;/div&gt;&lt;div&gt;}&lt;/div&gt;&lt;br&gt;&lt;div&gt;&lt;span style=&quot;color: rgb(215, 186, 125);&quot;&gt;.panel-heading&lt;/span&gt; {&lt;/div&gt;&lt;div&gt;    &lt;span style=&quot;color: rgb(156, 220, 254);&quot;&gt;display&lt;/span&gt;: &lt;span style=&quot;color: rgb(206, 145, 120);&quot;&gt;flex&lt;/span&gt;;&lt;/div&gt;&lt;div&gt;    &lt;span style=&quot;color: rgb(156, 220, 254);&quot;&gt;align-items&lt;/span&gt;: &lt;span style=&quot;color: rgb(206, 145, 120);&quot;&gt;center&lt;/span&gt;;&lt;/div&gt;&lt;div&gt;}&lt;/div&gt;&lt;div&gt;&lt;span style=&quot;color: rgb(128, 128, 128);&quot;&gt;&amp;lt;/&lt;/span&gt;&lt;span style=&quot;color: rgb(86, 156, 214);&quot;&gt;style&lt;/span&gt;&lt;span style=&quot;color: rgb(128, 128, 128);&quot;&gt;&amp;gt;&lt;/span&gt;&lt;/div&gt;&lt;br&gt;&lt;/div&gt;&lt;/div&gt;" style="rounded=0;whiteSpace=wrap;html=1;align=left;verticalAlign=top;" vertex="1" parent="1">
          <mxGeometry x="100" y="2800" width="650" height="440" as="geometry" />
        </mxCell>
        <mxCell id="7iGNXJQkttV0HCJYnzMc-4" value="src/features/concept-versioning/components/ShareVersionDialog.vue&lt;div&gt;&lt;div style=&quot;color: rgb(204, 204, 204); background-color: rgb(31, 31, 31); font-family: Menlo, Monaco, &amp;quot;Courier New&amp;quot;, monospace; line-height: 18px; white-space: pre;&quot;&gt;&lt;div&gt;&lt;span style=&quot;color: rgb(128, 128, 128);&quot;&gt;&amp;lt;&lt;/span&gt;&lt;span style=&quot;color: rgb(86, 156, 214);&quot;&gt;template&lt;/span&gt;&lt;span style=&quot;color: rgb(128, 128, 128);&quot;&gt;&amp;gt;&lt;/span&gt;&lt;/div&gt;&lt;div&gt;    &lt;span style=&quot;color: rgb(128, 128, 128);&quot;&gt;&amp;lt;&lt;/span&gt;&lt;span style=&quot;color: rgb(78, 201, 176);&quot;&gt;Dialog&lt;/span&gt;&lt;/div&gt;&lt;div&gt;        :&lt;span style=&quot;color: rgb(156, 220, 254);&quot;&gt;header&lt;/span&gt;=&quot;&lt;span style=&quot;color: rgb(156, 220, 254);&quot;&gt;dialogHeader&lt;/span&gt;&quot;&lt;/div&gt;&lt;div&gt;        :&lt;span style=&quot;color: rgb(156, 220, 254);&quot;&gt;visible&lt;/span&gt;=&quot;&lt;span style=&quot;color: rgb(156, 220, 254);&quot;&gt;visible&lt;/span&gt;&quot;&lt;/div&gt;&lt;div&gt;        &lt;span style=&quot;color: rgb(156, 220, 254);&quot;&gt;modal&lt;/span&gt;&lt;/div&gt;&lt;div&gt;        &lt;span style=&quot;color: rgb(156, 220, 254);&quot;&gt;closable&lt;/span&gt;&lt;/div&gt;&lt;div&gt;        @&lt;span style=&quot;color: rgb(156, 220, 254);&quot;&gt;show&lt;/span&gt;=&quot;&lt;span style=&quot;color: rgb(220, 220, 170);&quot;&gt;openFormDialog&lt;/span&gt;&quot;&lt;/div&gt;&lt;div&gt;        @&lt;span style=&quot;color: rgb(156, 220, 254);&quot;&gt;update&lt;/span&gt;:&lt;span style=&quot;color: rgb(156, 220, 254);&quot;&gt;visible&lt;/span&gt;=&quot;&lt;span style=&quot;color: rgb(220, 220, 170);&quot;&gt;$emit&lt;/span&gt;(&lt;span style=&quot;color: rgb(206, 145, 120);&quot;&gt;&#39;update:visible&#39;&lt;/span&gt;, &lt;span style=&quot;color: rgb(156, 220, 254);&quot;&gt;$event&lt;/span&gt;)&quot;&lt;/div&gt;&lt;div&gt;    &lt;span style=&quot;color: rgb(128, 128, 128);&quot;&gt;&amp;gt;&lt;/span&gt;&lt;/div&gt;&lt;div&gt;        &lt;span style=&quot;color: rgb(128, 128, 128);&quot;&gt;&amp;lt;&lt;/span&gt;&lt;span style=&quot;color: rgb(86, 156, 214);&quot;&gt;form&lt;/span&gt; @&lt;span style=&quot;color: rgb(156, 220, 254);&quot;&gt;submit&lt;/span&gt;.&lt;span style=&quot;color: rgb(156, 220, 254);&quot;&gt;prevent&lt;/span&gt;=&quot;&lt;span style=&quot;color: rgb(220, 220, 170);&quot;&gt;onSubmit&lt;/span&gt;&quot;&lt;span style=&quot;color: rgb(128, 128, 128);&quot;&gt;&amp;gt;&lt;/span&gt;&lt;/div&gt;&lt;div&gt;            &lt;span style=&quot;color: rgb(128, 128, 128);&quot;&gt;&amp;lt;&lt;/span&gt;&lt;span style=&quot;color: rgb(86, 156, 214);&quot;&gt;span&lt;/span&gt; &lt;span style=&quot;color: rgb(156, 220, 254);&quot;&gt;class&lt;/span&gt;=&lt;span style=&quot;color: rgb(206, 145, 120);&quot;&gt;&quot;txt-notice&quot;&lt;/span&gt;&lt;span style=&quot;color: rgb(128, 128, 128);&quot;&gt;&amp;gt;&lt;/span&gt;Pflichtangaben sind mit * gekennzeichnet&lt;span style=&quot;color: rgb(128, 128, 128);&quot;&gt;&amp;lt;/&lt;/span&gt;&lt;span style=&quot;color: rgb(86, 156, 214);&quot;&gt;span&lt;/span&gt;&lt;span style=&quot;color: rgb(128, 128, 128);&quot;&gt;&amp;gt;&lt;/span&gt;&lt;/div&gt;&lt;div&gt;            &lt;span style=&quot;color: rgb(128, 128, 128);&quot;&gt;&amp;lt;&lt;/span&gt;&lt;span style=&quot;color: rgb(78, 201, 176);&quot;&gt;Message&lt;/span&gt; &lt;span style=&quot;color: rgb(156, 220, 254);&quot;&gt;severity&lt;/span&gt;=&lt;span style=&quot;color: rgb(206, 145, 120);&quot;&gt;&quot;warn&quot;&lt;/span&gt; &lt;span style=&quot;color: rgb(156, 220, 254);&quot;&gt;icon&lt;/span&gt;=&lt;span style=&quot;color: rgb(206, 145, 120);&quot;&gt;&quot;pi pi-exclamation-triangle&quot;&lt;/span&gt; &lt;span style=&quot;color: rgb(156, 220, 254);&quot;&gt;class&lt;/span&gt;=&lt;span style=&quot;color: rgb(206, 145, 120);&quot;&gt;&quot;gap-btm gap-top&quot;&lt;/span&gt;&lt;span style=&quot;color: rgb(128, 128, 128);&quot;&gt;&amp;gt;&lt;/span&gt;&lt;/div&gt;&lt;div&gt;                &lt;span style=&quot;color: rgb(128, 128, 128);&quot;&gt;&amp;lt;&lt;/span&gt;&lt;span style=&quot;color: rgb(86, 156, 214);&quot;&gt;span&lt;/span&gt;&lt;span style=&quot;color: rgb(128, 128, 128);&quot;&gt;&amp;gt;&lt;/span&gt;&lt;/div&gt;&lt;div&gt;                    Nach dem Freigeben ist diese Version nicht mehr bearbeitbar. Zum Weiterarbeiten können Sie eine neue&lt;/div&gt;&lt;div&gt;                    Version erstellen.&lt;/div&gt;&lt;div&gt;                &lt;span style=&quot;color: rgb(128, 128, 128);&quot;&gt;&amp;lt;/&lt;/span&gt;&lt;span style=&quot;color: rgb(86, 156, 214);&quot;&gt;span&lt;/span&gt;&lt;span style=&quot;color: rgb(128, 128, 128);&quot;&gt;&amp;gt;&lt;/span&gt;&lt;/div&gt;&lt;div&gt;            &lt;span style=&quot;color: rgb(128, 128, 128);&quot;&gt;&amp;lt;/&lt;/span&gt;&lt;span style=&quot;color: rgb(78, 201, 176);&quot;&gt;Message&lt;/span&gt;&lt;span style=&quot;color: rgb(128, 128, 128);&quot;&gt;&amp;gt;&lt;/span&gt;&lt;/div&gt;&lt;br&gt;&lt;div&gt;            &lt;span style=&quot;color: rgb(128, 128, 128);&quot;&gt;&amp;lt;&lt;/span&gt;&lt;span style=&quot;color: rgb(78, 201, 176);&quot;&gt;ScrollPanel&lt;/span&gt;&lt;span style=&quot;color: rgb(128, 128, 128);&quot;&gt;&amp;gt;&lt;/span&gt;&lt;/div&gt;&lt;div&gt;                &lt;span style=&quot;color: rgb(128, 128, 128);&quot;&gt;&amp;lt;&lt;/span&gt;&lt;span style=&quot;color: rgb(86, 156, 214);&quot;&gt;h4&lt;/span&gt; &lt;span style=&quot;color: rgb(156, 220, 254);&quot;&gt;class&lt;/span&gt;=&lt;span style=&quot;color: rgb(206, 145, 120);&quot;&gt;&quot;gap-btm&quot;&lt;/span&gt;&lt;span style=&quot;color: rgb(128, 128, 128);&quot;&gt;&amp;gt;&lt;/span&gt;Inhalt&lt;span style=&quot;color: rgb(128, 128, 128);&quot;&gt;&amp;lt;/&lt;/span&gt;&lt;span style=&quot;color: rgb(86, 156, 214);&quot;&gt;h4&lt;/span&gt;&lt;span style=&quot;color: rgb(128, 128, 128);&quot;&gt;&amp;gt;&lt;/span&gt;&lt;/div&gt;&lt;br&gt;&lt;div&gt;                &lt;span style=&quot;color: rgb(128, 128, 128);&quot;&gt;&amp;lt;&lt;/span&gt;&lt;span style=&quot;color: rgb(78, 201, 176);&quot;&gt;TextareaField&lt;/span&gt;&lt;/div&gt;&lt;div&gt;                    &lt;span style=&quot;color: rgb(156, 220, 254);&quot;&gt;name&lt;/span&gt;=&lt;span style=&quot;color: rgb(206, 145, 120);&quot;&gt;&quot;description&quot;&lt;/span&gt;&lt;/div&gt;&lt;div&gt;                    &lt;span style=&quot;color: rgb(156, 220, 254);&quot;&gt;label&lt;/span&gt;=&lt;span style=&quot;color: rgb(206, 145, 120);&quot;&gt;&quot;Was hat sich in dieser Version geändert? *&quot;&lt;/span&gt;&lt;/div&gt;&lt;div&gt;                    &lt;span style=&quot;color: rgb(156, 220, 254);&quot;&gt;placeholder&lt;/span&gt;=&lt;span style=&quot;color: rgb(206, 145, 120);&quot;&gt;&quot;Beschreibung&quot;&lt;/span&gt;&lt;/div&gt;&lt;div&gt;                    :&lt;span style=&quot;color: rgb(156, 220, 254);&quot;&gt;ariaRequired&lt;/span&gt;=&quot;&lt;span style=&quot;color: rgb(86, 156, 214);&quot;&gt;true&lt;/span&gt;&quot;&lt;/div&gt;&lt;div&gt;               &lt;span style=&quot;color: rgb(128, 128, 128);&quot;&gt; /&amp;gt;&lt;/span&gt;&lt;/div&gt;&lt;br&gt;&lt;div&gt;                &lt;span style=&quot;color: rgb(128, 128, 128);&quot;&gt;&amp;lt;&lt;/span&gt;&lt;span style=&quot;color: rgb(86, 156, 214);&quot;&gt;h4&lt;/span&gt; &lt;span style=&quot;color: rgb(156, 220, 254);&quot;&gt;class&lt;/span&gt;=&lt;span style=&quot;color: rgb(206, 145, 120);&quot;&gt;&quot;gap-btm gap-top&quot;&lt;/span&gt;&lt;span style=&quot;color: rgb(128, 128, 128);&quot;&gt;&amp;gt;&lt;/span&gt;Empfänger&lt;span style=&quot;color: rgb(128, 128, 128);&quot;&gt;&amp;lt;/&lt;/span&gt;&lt;span style=&quot;color: rgb(86, 156, 214);&quot;&gt;h4&lt;/span&gt;&lt;span style=&quot;color: rgb(128, 128, 128);&quot;&gt;&amp;gt;&lt;/span&gt;&lt;/div&gt;&lt;br&gt;&lt;div&gt;                &lt;span style=&quot;color: rgb(128, 128, 128);&quot;&gt;&amp;lt;&lt;/span&gt;&lt;span style=&quot;color: rgb(78, 201, 176);&quot;&gt;DataTable&lt;/span&gt; :&lt;span style=&quot;color: rgb(156, 220, 254);&quot;&gt;value&lt;/span&gt;=&quot;&lt;span style=&quot;color: rgb(156, 220, 254);&quot;&gt;fields&lt;/span&gt;&quot; &lt;span style=&quot;color: rgb(156, 220, 254);&quot;&gt;dataKey&lt;/span&gt;=&lt;span style=&quot;color: rgb(206, 145, 120);&quot;&gt;&quot;key&quot;&lt;/span&gt; &lt;span style=&quot;color: rgb(156, 220, 254);&quot;&gt;editMode&lt;/span&gt;=&lt;span style=&quot;color: rgb(206, 145, 120);&quot;&gt;&quot;row&quot;&lt;/span&gt;&lt;span style=&quot;color: rgb(128, 128, 128);&quot;&gt;&amp;gt;&lt;/span&gt;&lt;/div&gt;&lt;div&gt;                    &lt;span style=&quot;color: rgb(128, 128, 128);&quot;&gt;&amp;lt;&lt;/span&gt;&lt;span style=&quot;color: rgb(78, 201, 176);&quot;&gt;Column&lt;/span&gt; :&lt;span style=&quot;color: rgb(156, 220, 254);&quot;&gt;class&lt;/span&gt;=&quot;&lt;span style=&quot;color: rgb(206, 145, 120);&quot;&gt;&#39;table-column-sm&#39;&lt;/span&gt;&quot;&lt;span style=&quot;color: rgb(128, 128, 128);&quot;&gt;&amp;gt;&lt;/span&gt;&lt;/div&gt;&lt;div&gt;                        &lt;span style=&quot;color: rgb(128, 128, 128);&quot;&gt;&amp;lt;&lt;/span&gt;&lt;span style=&quot;color: rgb(86, 156, 214);&quot;&gt;template&lt;/span&gt; #&lt;span style=&quot;color: rgb(156, 220, 254);&quot;&gt;body&lt;/span&gt;=&quot;&lt;span style=&quot;color: rgb(79, 193, 255);&quot;&gt;slotProps&lt;/span&gt;&quot;&lt;span style=&quot;color: rgb(128, 128, 128);&quot;&gt;&amp;gt;&lt;/span&gt;&lt;/div&gt;&lt;div&gt;                            &lt;span style=&quot;color: rgb(128, 128, 128);&quot;&gt;&amp;lt;&lt;/span&gt;&lt;span style=&quot;color: rgb(86, 156, 214);&quot;&gt;span&lt;/span&gt; &lt;span style=&quot;color: rgb(156, 220, 254);&quot;&gt;aria-hidden&lt;/span&gt;=&lt;span style=&quot;color: rgb(206, 145, 120);&quot;&gt;&quot;true&quot;&lt;/span&gt;&lt;span style=&quot;color: rgb(128, 128, 128);&quot;&gt;&amp;gt;&lt;/span&gt;{{ &lt;span style=&quot;color: rgb(79, 193, 255);&quot;&gt;slotProps&lt;/span&gt;.&lt;span style=&quot;color: rgb(156, 220, 254);&quot;&gt;index&lt;/span&gt; &lt;span style=&quot;color: rgb(212, 212, 212);&quot;&gt;+&lt;/span&gt; &lt;span style=&quot;color: rgb(181, 206, 168);&quot;&gt;1&lt;/span&gt; }}&lt;span style=&quot;color: rgb(128, 128, 128);&quot;&gt;&amp;lt;/&lt;/span&gt;&lt;span style=&quot;color: rgb(86, 156, 214);&quot;&gt;span&lt;/span&gt;&lt;span style=&quot;color: rgb(128, 128, 128);&quot;&gt;&amp;gt;&lt;/span&gt;&lt;/div&gt;&lt;div&gt;                        &lt;span style=&quot;color: rgb(128, 128, 128);&quot;&gt;&amp;lt;/&lt;/span&gt;&lt;span style=&quot;color: rgb(86, 156, 214);&quot;&gt;template&lt;/span&gt;&lt;span style=&quot;color: rgb(128, 128, 128);&quot;&gt;&amp;gt;&lt;/span&gt;&lt;/div&gt;&lt;div&gt;                    &lt;span style=&quot;color: rgb(128, 128, 128);&quot;&gt;&amp;lt;/&lt;/span&gt;&lt;span style=&quot;color: rgb(78, 201, 176);&quot;&gt;Column&lt;/span&gt;&lt;span style=&quot;color: rgb(128, 128, 128);&quot;&gt;&amp;gt;&lt;/span&gt;&lt;/div&gt;&lt;br&gt;&lt;div&gt;                    &lt;span style=&quot;color: rgb(128, 128, 128);&quot;&gt;&amp;lt;&lt;/span&gt;&lt;span style=&quot;color: rgb(78, 201, 176);&quot;&gt;Column&lt;/span&gt; &lt;span style=&quot;color: rgb(156, 220, 254);&quot;&gt;field&lt;/span&gt;=&lt;span style=&quot;color: rgb(206, 145, 120);&quot;&gt;&quot;email&quot;&lt;/span&gt; &lt;span style=&quot;color: rgb(156, 220, 254);&quot;&gt;header&lt;/span&gt;=&lt;span style=&quot;color: rgb(206, 145, 120);&quot;&gt;&quot;E-Mail *&quot;&lt;/span&gt; &lt;span style=&quot;color: rgb(156, 220, 254);&quot;&gt;class&lt;/span&gt;=&lt;span style=&quot;color: rgb(206, 145, 120);&quot;&gt;&quot;align-top&quot;&lt;/span&gt;&lt;span style=&quot;color: rgb(128, 128, 128);&quot;&gt;&amp;gt;&lt;/span&gt;&lt;/div&gt;&lt;div&gt;                        &lt;span style=&quot;color: rgb(128, 128, 128);&quot;&gt;&amp;lt;&lt;/span&gt;&lt;span style=&quot;color: rgb(86, 156, 214);&quot;&gt;template&lt;/span&gt; #&lt;span style=&quot;color: rgb(156, 220, 254);&quot;&gt;body&lt;/span&gt;=&quot;&lt;span style=&quot;color: rgb(79, 193, 255);&quot;&gt;slotProps&lt;/span&gt;&quot;&lt;span style=&quot;color: rgb(128, 128, 128);&quot;&gt;&amp;gt;&lt;/span&gt;&lt;/div&gt;&lt;div&gt;                            &lt;span style=&quot;color: rgb(128, 128, 128);&quot;&gt;&amp;lt;&lt;/span&gt;&lt;span style=&quot;color: rgb(78, 201, 176);&quot;&gt;InputTextField&lt;/span&gt;&lt;/div&gt;&lt;div&gt;                                :&lt;span style=&quot;color: rgb(156, 220, 254);&quot;&gt;name&lt;/span&gt;=&quot;&lt;span style=&quot;color: rgb(206, 145, 120);&quot;&gt;`users.&lt;/span&gt;&lt;span style=&quot;color: rgb(86, 156, 214);&quot;&gt;${&lt;/span&gt;&lt;span style=&quot;color: rgb(79, 193, 255);&quot;&gt;slotProps&lt;/span&gt;&lt;span style=&quot;color: rgb(212, 212, 212);&quot;&gt;.&lt;/span&gt;&lt;span style=&quot;color: rgb(156, 220, 254);&quot;&gt;index&lt;/span&gt;&lt;span style=&quot;color: rgb(86, 156, 214);&quot;&gt;}&lt;/span&gt;&lt;span style=&quot;color: rgb(206, 145, 120);&quot;&gt;.email`&lt;/span&gt;&quot;&lt;/div&gt;&lt;div&gt;                                &lt;span style=&quot;color: rgb(156, 220, 254);&quot;&gt;placeholder&lt;/span&gt;=&lt;span style=&quot;color: rgb(206, 145, 120);&quot;&gt;&quot;Email&quot;&lt;/span&gt;&lt;/div&gt;&lt;div&gt;                                :&lt;span style=&quot;color: rgb(156, 220, 254);&quot;&gt;ariaRequired&lt;/span&gt;=&quot;&lt;span style=&quot;color: rgb(86, 156, 214);&quot;&gt;true&lt;/span&gt;&quot;&lt;/div&gt;&lt;div&gt;                                &lt;span style=&quot;color: rgb(156, 220, 254);&quot;&gt;class&lt;/span&gt;=&lt;span style=&quot;color: rgb(206, 145, 120);&quot;&gt;&quot;table-cell-input&quot;&lt;/span&gt;&lt;/div&gt;&lt;div&gt;                           &lt;span style=&quot;color: rgb(128, 128, 128);&quot;&gt; /&amp;gt;&lt;/span&gt;&lt;/div&gt;&lt;div&gt;                        &lt;span style=&quot;color: rgb(128, 128, 128);&quot;&gt;&amp;lt;/&lt;/span&gt;&lt;span style=&quot;color: rgb(86, 156, 214);&quot;&gt;template&lt;/span&gt;&lt;span style=&quot;color: rgb(128, 128, 128);&quot;&gt;&amp;gt;&lt;/span&gt;&lt;/div&gt;&lt;div&gt;                    &lt;span style=&quot;color: rgb(128, 128, 128);&quot;&gt;&amp;lt;/&lt;/span&gt;&lt;span style=&quot;color: rgb(78, 201, 176);&quot;&gt;Column&lt;/span&gt;&lt;span style=&quot;color: rgb(128, 128, 128);&quot;&gt;&amp;gt;&lt;/span&gt;&lt;/div&gt;&lt;br&gt;&lt;div&gt;                    &lt;span style=&quot;color: rgb(128, 128, 128);&quot;&gt;&amp;lt;&lt;/span&gt;&lt;span style=&quot;color: rgb(78, 201, 176);&quot;&gt;Column&lt;/span&gt; &lt;span style=&quot;color: rgb(156, 220, 254);&quot;&gt;field&lt;/span&gt;=&lt;span style=&quot;color: rgb(206, 145, 120);&quot;&gt;&quot;role&quot;&lt;/span&gt; &lt;span style=&quot;color: rgb(156, 220, 254);&quot;&gt;header&lt;/span&gt;=&lt;span style=&quot;color: rgb(206, 145, 120);&quot;&gt;&quot;Rolle *&quot;&lt;/span&gt; &lt;span style=&quot;color: rgb(156, 220, 254);&quot;&gt;class&lt;/span&gt;=&lt;span style=&quot;color: rgb(206, 145, 120);&quot;&gt;&quot;align-top&quot;&lt;/span&gt;&lt;span style=&quot;color: rgb(128, 128, 128);&quot;&gt;&amp;gt;&lt;/span&gt;&lt;/div&gt;&lt;div&gt;                        &lt;span style=&quot;color: rgb(128, 128, 128);&quot;&gt;&amp;lt;&lt;/span&gt;&lt;span style=&quot;color: rgb(86, 156, 214);&quot;&gt;template&lt;/span&gt; #&lt;span style=&quot;color: rgb(156, 220, 254);&quot;&gt;body&lt;/span&gt;=&quot;&lt;span style=&quot;color: rgb(79, 193, 255);&quot;&gt;slotProps&lt;/span&gt;&quot;&lt;span style=&quot;color: rgb(128, 128, 128);&quot;&gt;&amp;gt;&lt;/span&gt;&lt;/div&gt;&lt;div&gt;                            &lt;span style=&quot;color: rgb(128, 128, 128);&quot;&gt;&amp;lt;&lt;/span&gt;&lt;span style=&quot;color: rgb(78, 201, 176);&quot;&gt;SelectField&lt;/span&gt;&lt;/div&gt;&lt;div&gt;                                :&lt;span style=&quot;color: rgb(156, 220, 254);&quot;&gt;name&lt;/span&gt;=&quot;&lt;span style=&quot;color: rgb(206, 145, 120);&quot;&gt;`users.&lt;/span&gt;&lt;span style=&quot;color: rgb(86, 156, 214);&quot;&gt;${&lt;/span&gt;&lt;span style=&quot;color: rgb(79, 193, 255);&quot;&gt;slotProps&lt;/span&gt;&lt;span style=&quot;color: rgb(212, 212, 212);&quot;&gt;.&lt;/span&gt;&lt;span style=&quot;color: rgb(156, 220, 254);&quot;&gt;index&lt;/span&gt;&lt;span style=&quot;color: rgb(86, 156, 214);&quot;&gt;}&lt;/span&gt;&lt;span style=&quot;color: rgb(206, 145, 120);&quot;&gt;.role`&lt;/span&gt;&quot;&lt;/div&gt;&lt;div&gt;                                &lt;span style=&quot;color: rgb(156, 220, 254);&quot;&gt;placeholder&lt;/span&gt;=&lt;span style=&quot;color: rgb(206, 145, 120);&quot;&gt;&quot;Rolle auswählen&quot;&lt;/span&gt;&lt;/div&gt;&lt;div&gt;                                :&lt;span style=&quot;color: rgb(156, 220, 254);&quot;&gt;options&lt;/span&gt;=&quot;&lt;span style=&quot;color: rgb(156, 220, 254);&quot;&gt;roleOptions&lt;/span&gt;&quot;&lt;/div&gt;&lt;div&gt;                                &lt;span style=&quot;color: rgb(156, 220, 254);&quot;&gt;class&lt;/span&gt;=&lt;span style=&quot;color: rgb(206, 145, 120);&quot;&gt;&quot;table-cell-input&quot;&lt;/span&gt;&lt;/div&gt;&lt;div&gt;                           &lt;span style=&quot;color: rgb(128, 128, 128);&quot;&gt; /&amp;gt;&lt;/span&gt;&lt;/div&gt;&lt;div&gt;                        &lt;span style=&quot;color: rgb(128, 128, 128);&quot;&gt;&amp;lt;/&lt;/span&gt;&lt;span style=&quot;color: rgb(86, 156, 214);&quot;&gt;template&lt;/span&gt;&lt;span style=&quot;color: rgb(128, 128, 128);&quot;&gt;&amp;gt;&lt;/span&gt;&lt;/div&gt;&lt;div&gt;                    &lt;span style=&quot;color: rgb(128, 128, 128);&quot;&gt;&amp;lt;/&lt;/span&gt;&lt;span style=&quot;color: rgb(78, 201, 176);&quot;&gt;Column&lt;/span&gt;&lt;span style=&quot;color: rgb(128, 128, 128);&quot;&gt;&amp;gt;&lt;/span&gt;&lt;/div&gt;&lt;br&gt;&lt;div&gt;                    &lt;span style=&quot;color: rgb(128, 128, 128);&quot;&gt;&amp;lt;&lt;/span&gt;&lt;span style=&quot;color: rgb(78, 201, 176);&quot;&gt;Column&lt;/span&gt; :&lt;span style=&quot;color: rgb(156, 220, 254);&quot;&gt;class&lt;/span&gt;=&quot;&lt;span style=&quot;color: rgb(206, 145, 120);&quot;&gt;&#39;table-column-sm&#39;&lt;/span&gt;&quot;&lt;span style=&quot;color: rgb(128, 128, 128);&quot;&gt;&amp;gt;&lt;/span&gt;&lt;/div&gt;&lt;div&gt;                        &lt;span style=&quot;color: rgb(128, 128, 128);&quot;&gt;&amp;lt;&lt;/span&gt;&lt;span style=&quot;color: rgb(86, 156, 214);&quot;&gt;template&lt;/span&gt; #&lt;span style=&quot;color: rgb(156, 220, 254);&quot;&gt;body&lt;/span&gt;=&quot;&lt;span style=&quot;color: rgb(79, 193, 255);&quot;&gt;slotProps&lt;/span&gt;&quot;&lt;span style=&quot;color: rgb(128, 128, 128);&quot;&gt;&amp;gt;&lt;/span&gt;&lt;/div&gt;&lt;div&gt;                            &lt;span style=&quot;color: rgb(128, 128, 128);&quot;&gt;&amp;lt;&lt;/span&gt;&lt;span style=&quot;color: rgb(78, 201, 176);&quot;&gt;Button&lt;/span&gt;&lt;/div&gt;&lt;div&gt;                                &lt;span style=&quot;color: rgb(197, 134, 192);&quot;&gt;v-if&lt;/span&gt;=&quot;&lt;span style=&quot;color: rgb(156, 220, 254);&quot;&gt;fields&lt;/span&gt;.&lt;span style=&quot;color: rgb(156, 220, 254);&quot;&gt;length&lt;/span&gt; &lt;span style=&quot;color: rgb(212, 212, 212);&quot;&gt;&amp;gt;&lt;/span&gt; &lt;span style=&quot;color: rgb(181, 206, 168);&quot;&gt;1&lt;/span&gt;&quot;&lt;/div&gt;&lt;div&gt;                                &lt;span style=&quot;color: rgb(156, 220, 254);&quot;&gt;variant&lt;/span&gt;=&lt;span style=&quot;color: rgb(206, 145, 120);&quot;&gt;&quot;text&quot;&lt;/span&gt;&lt;/div&gt;&lt;div&gt;                                &lt;span style=&quot;color: rgb(156, 220, 254);&quot;&gt;rounded&lt;/span&gt;&lt;/div&gt;&lt;div&gt;                                &lt;span style=&quot;color: rgb(156, 220, 254);&quot;&gt;icon&lt;/span&gt;=&lt;span style=&quot;color: rgb(206, 145, 120);&quot;&gt;&quot;pi pi-trash&quot;&lt;/span&gt;&lt;/div&gt;&lt;div&gt;                                :&lt;span style=&quot;color: rgb(156, 220, 254);&quot;&gt;title&lt;/span&gt;=&quot;&lt;span style=&quot;color: rgb(206, 145, 120);&quot;&gt;`Empfänger Nr. &lt;/span&gt;&lt;span style=&quot;color: rgb(86, 156, 214);&quot;&gt;${&lt;/span&gt;&lt;span style=&quot;color: rgb(79, 193, 255);&quot;&gt;slotProps&lt;/span&gt;&lt;span style=&quot;color: rgb(212, 212, 212);&quot;&gt;.&lt;/span&gt;&lt;span style=&quot;color: rgb(156, 220, 254);&quot;&gt;index&lt;/span&gt;&lt;span style=&quot;color: rgb(212, 212, 212);&quot;&gt; + &lt;/span&gt;&lt;span style=&quot;color: rgb(181, 206, 168);&quot;&gt;1&lt;/span&gt;&lt;span style=&quot;color: rgb(86, 156, 214);&quot;&gt;}&lt;/span&gt;&lt;span style=&quot;color: rgb(206, 145, 120);&quot;&gt; entfernen`&lt;/span&gt;&quot;&lt;/div&gt;&lt;div&gt;                                @&lt;span style=&quot;color: rgb(156, 220, 254);&quot;&gt;click&lt;/span&gt;=&quot;&lt;span style=&quot;color: rgb(220, 220, 170);&quot;&gt;removeUser&lt;/span&gt;(&lt;span style=&quot;color: rgb(79, 193, 255);&quot;&gt;slotProps&lt;/span&gt;.&lt;span style=&quot;color: rgb(156, 220, 254);&quot;&gt;index&lt;/span&gt;)&quot;&lt;/div&gt;&lt;div&gt;                            &lt;span style=&quot;color: rgb(244, 71, 71);&quot;&gt;/&lt;/span&gt;&lt;span style=&quot;color: rgb(128, 128, 128);&quot;&gt;&amp;gt;&lt;/span&gt;&lt;/div&gt;&lt;div&gt;                        &lt;span style=&quot;color: rgb(128, 128, 128);&quot;&gt;&amp;lt;/&lt;/span&gt;&lt;span style=&quot;color: rgb(86, 156, 214);&quot;&gt;template&lt;/span&gt;&lt;span style=&quot;color: rgb(128, 128, 128);&quot;&gt;&amp;gt;&lt;/span&gt;&lt;/div&gt;&lt;div&gt;                    &lt;span style=&quot;color: rgb(128, 128, 128);&quot;&gt;&amp;lt;/&lt;/span&gt;&lt;span style=&quot;color: rgb(78, 201, 176);&quot;&gt;Column&lt;/span&gt;&lt;span style=&quot;color: rgb(128, 128, 128);&quot;&gt;&amp;gt;&lt;/span&gt;&lt;/div&gt;&lt;div&gt;                &lt;span style=&quot;color: rgb(128, 128, 128);&quot;&gt;&amp;lt;/&lt;/span&gt;&lt;span style=&quot;color: rgb(78, 201, 176);&quot;&gt;DataTable&lt;/span&gt;&lt;span style=&quot;color: rgb(128, 128, 128);&quot;&gt;&amp;gt;&lt;/span&gt;&lt;/div&gt;&lt;div&gt;            &lt;span style=&quot;color: rgb(128, 128, 128);&quot;&gt;&amp;lt;/&lt;/span&gt;&lt;span style=&quot;color: rgb(78, 201, 176);&quot;&gt;ScrollPanel&lt;/span&gt;&lt;span style=&quot;color: rgb(128, 128, 128);&quot;&gt;&amp;gt;&lt;/span&gt;&lt;/div&gt;&lt;br&gt;&lt;div&gt;            &lt;span style=&quot;color: rgb(128, 128, 128);&quot;&gt;&amp;lt;&lt;/span&gt;&lt;span style=&quot;color: rgb(86, 156, 214);&quot;&gt;div&lt;/span&gt; &lt;span style=&quot;color: rgb(156, 220, 254);&quot;&gt;class&lt;/span&gt;=&lt;span style=&quot;color: rgb(206, 145, 120);&quot;&gt;&quot;form-input-fullsize gap-btm&quot;&lt;/span&gt;&lt;span style=&quot;color: rgb(128, 128, 128);&quot;&gt;&amp;gt;&lt;/span&gt;&lt;/div&gt;&lt;div&gt;                &lt;span style=&quot;color: rgb(128, 128, 128);&quot;&gt;&amp;lt;&lt;/span&gt;&lt;span style=&quot;color: rgb(78, 201, 176);&quot;&gt;Button&lt;/span&gt; &lt;span style=&quot;color: rgb(156, 220, 254);&quot;&gt;label&lt;/span&gt;=&lt;span style=&quot;color: rgb(206, 145, 120);&quot;&gt;&quot;Empfänger hinzufügen&quot;&lt;/span&gt; &lt;span style=&quot;color: rgb(156, 220, 254);&quot;&gt;class&lt;/span&gt;=&lt;span style=&quot;color: rgb(206, 145, 120);&quot;&gt;&quot;btn-table-footer&quot;&lt;/span&gt; &lt;span style=&quot;color: rgb(156, 220, 254);&quot;&gt;icon&lt;/span&gt;=&lt;span style=&quot;color: rgb(206, 145, 120);&quot;&gt;&quot;pi pi-plus&quot;&lt;/span&gt; @&lt;span style=&quot;color: rgb(156, 220, 254);&quot;&gt;click&lt;/span&gt;=&quot;&lt;span style=&quot;color: rgb(220, 220, 170);&quot;&gt;addUser&lt;/span&gt;&quot; &lt;span style=&quot;color: rgb(244, 71, 71);&quot;&gt;/&lt;/span&gt;&lt;span style=&quot;color: rgb(128, 128, 128);&quot;&gt;&amp;gt;&lt;/span&gt;&lt;/div&gt;&lt;div&gt;            &lt;span style=&quot;color: rgb(128, 128, 128);&quot;&gt;&amp;lt;/&lt;/span&gt;&lt;span style=&quot;color: rgb(86, 156, 214);&quot;&gt;div&lt;/span&gt;&lt;span style=&quot;color: rgb(128, 128, 128);&quot;&gt;&amp;gt;&lt;/span&gt;&lt;/div&gt;&lt;br&gt;&lt;div&gt;            &lt;span style=&quot;color: rgb(128, 128, 128);&quot;&gt;&amp;lt;&lt;/span&gt;&lt;span style=&quot;color: rgb(86, 156, 214);&quot;&gt;div&lt;/span&gt; &lt;span style=&quot;color: rgb(156, 220, 254);&quot;&gt;class&lt;/span&gt;=&lt;span style=&quot;color: rgb(206, 145, 120);&quot;&gt;&quot;gap-top btn-group&quot;&lt;/span&gt;&lt;span style=&quot;color: rgb(128, 128, 128);&quot;&gt;&amp;gt;&lt;/span&gt;&lt;/div&gt;&lt;div&gt;                &lt;span style=&quot;color: rgb(128, 128, 128);&quot;&gt;&amp;lt;&lt;/span&gt;&lt;span style=&quot;color: rgb(78, 201, 176);&quot;&gt;Button&lt;/span&gt; &lt;span style=&quot;color: rgb(156, 220, 254);&quot;&gt;severity&lt;/span&gt;=&lt;span style=&quot;color: rgb(206, 145, 120);&quot;&gt;&quot;secondary&quot;&lt;/span&gt; @&lt;span style=&quot;color: rgb(156, 220, 254);&quot;&gt;click&lt;/span&gt;=&quot;&lt;span style=&quot;color: rgb(220, 220, 170);&quot;&gt;closeFormDialog&lt;/span&gt;&quot; &lt;span style=&quot;color: rgb(156, 220, 254);&quot;&gt;label&lt;/span&gt;=&lt;span style=&quot;color: rgb(206, 145, 120);&quot;&gt;&quot;Abbrechen&quot;&lt;/span&gt; &lt;span style=&quot;color: rgb(244, 71, 71);&quot;&gt;/&lt;/span&gt;&lt;span style=&quot;color: rgb(128, 128, 128);&quot;&gt;&amp;gt;&lt;/span&gt;&lt;/div&gt;&lt;div&gt;                &lt;span style=&quot;color: rgb(128, 128, 128);&quot;&gt;&amp;lt;&lt;/span&gt;&lt;span style=&quot;color: rgb(78, 201, 176);&quot;&gt;Button&lt;/span&gt; &lt;span style=&quot;color: rgb(156, 220, 254);&quot;&gt;type&lt;/span&gt;=&lt;span style=&quot;color: rgb(206, 145, 120);&quot;&gt;&quot;submit&quot;&lt;/span&gt; &lt;span style=&quot;color: rgb(156, 220, 254);&quot;&gt;label&lt;/span&gt;=&lt;span style=&quot;color: rgb(206, 145, 120);&quot;&gt;&quot;Freigeben&quot;&lt;/span&gt; &lt;span style=&quot;color: rgb(244, 71, 71);&quot;&gt;/&lt;/span&gt;&lt;span style=&quot;color: rgb(128, 128, 128);&quot;&gt;&amp;gt;&lt;/span&gt;&lt;/div&gt;&lt;div&gt;            &lt;span style=&quot;color: rgb(128, 128, 128);&quot;&gt;&amp;lt;/&lt;/span&gt;&lt;span style=&quot;color: rgb(86, 156, 214);&quot;&gt;div&lt;/span&gt;&lt;span style=&quot;color: rgb(128, 128, 128);&quot;&gt;&amp;gt;&lt;/span&gt;&lt;/div&gt;&lt;div&gt;        &lt;span style=&quot;color: rgb(128, 128, 128);&quot;&gt;&amp;lt;/&lt;/span&gt;&lt;span style=&quot;color: rgb(86, 156, 214);&quot;&gt;form&lt;/span&gt;&lt;span style=&quot;color: rgb(128, 128, 128);&quot;&gt;&amp;gt;&lt;/span&gt;&lt;/div&gt;&lt;div&gt;    &lt;span style=&quot;color: rgb(128, 128, 128);&quot;&gt;&amp;lt;/&lt;/span&gt;&lt;span style=&quot;color: rgb(78, 201, 176);&quot;&gt;Dialog&lt;/span&gt;&lt;span style=&quot;color: rgb(128, 128, 128);&quot;&gt;&amp;gt;&lt;/span&gt;&lt;/div&gt;&lt;div&gt;&lt;span style=&quot;color: rgb(128, 128, 128);&quot;&gt;&amp;lt;/&lt;/span&gt;&lt;span style=&quot;color: rgb(86, 156, 214);&quot;&gt;template&lt;/span&gt;&lt;span style=&quot;color: rgb(128, 128, 128);&quot;&gt;&amp;gt;&lt;/span&gt;&lt;/div&gt;&lt;br&gt;&lt;div&gt;&lt;span style=&quot;color: rgb(128, 128, 128);&quot;&gt;&amp;lt;&lt;/span&gt;&lt;span style=&quot;color: rgb(86, 156, 214);&quot;&gt;script&lt;/span&gt; &lt;span style=&quot;color: rgb(156, 220, 254);&quot;&gt;setup&lt;/span&gt; &lt;span style=&quot;color: rgb(156, 220, 254);&quot;&gt;lang&lt;/span&gt;=&lt;span style=&quot;color: rgb(206, 145, 120);&quot;&gt;&quot;ts&quot;&lt;/span&gt;&lt;span style=&quot;color: rgb(128, 128, 128);&quot;&gt;&amp;gt;&lt;/span&gt;&lt;/div&gt;&lt;div&gt;&lt;span style=&quot;color: rgb(197, 134, 192);&quot;&gt;import&lt;/span&gt; { &lt;span style=&quot;color: rgb(156, 220, 254);&quot;&gt;computed&lt;/span&gt; } &lt;span style=&quot;color: rgb(197, 134, 192);&quot;&gt;from&lt;/span&gt; &lt;span style=&quot;color: rgb(206, 145, 120);&quot;&gt;&#39;vue&#39;&lt;/span&gt;;&lt;/div&gt;&lt;div&gt;&lt;span style=&quot;color: rgb(197, 134, 192);&quot;&gt;import&lt;/span&gt; &lt;span style=&quot;color: rgb(156, 220, 254);&quot;&gt;Button&lt;/span&gt; &lt;span style=&quot;color: rgb(197, 134, 192);&quot;&gt;from&lt;/span&gt; &lt;span style=&quot;color: rgb(206, 145, 120);&quot;&gt;&#39;primevue/button&#39;&lt;/span&gt;;&lt;/div&gt;&lt;div&gt;&lt;span style=&quot;color: rgb(197, 134, 192);&quot;&gt;import&lt;/span&gt; &lt;span style=&quot;color: rgb(156, 220, 254);&quot;&gt;Column&lt;/span&gt; &lt;span style=&quot;color: rgb(197, 134, 192);&quot;&gt;from&lt;/span&gt; &lt;span style=&quot;color: rgb(206, 145, 120);&quot;&gt;&#39;primevue/column&#39;&lt;/span&gt;;&lt;/div&gt;&lt;div&gt;&lt;span style=&quot;color: rgb(197, 134, 192);&quot;&gt;import&lt;/span&gt; &lt;span style=&quot;color: rgb(156, 220, 254);&quot;&gt;DataTable&lt;/span&gt; &lt;span style=&quot;color: rgb(197, 134, 192);&quot;&gt;from&lt;/span&gt; &lt;span style=&quot;color: rgb(206, 145, 120);&quot;&gt;&#39;primevue/datatable&#39;&lt;/span&gt;;&lt;/div&gt;&lt;div&gt;&lt;span style=&quot;color: rgb(197, 134, 192);&quot;&gt;import&lt;/span&gt; &lt;span style=&quot;color: rgb(156, 220, 254);&quot;&gt;Dialog&lt;/span&gt; &lt;span style=&quot;color: rgb(197, 134, 192);&quot;&gt;from&lt;/span&gt; &lt;span style=&quot;color: rgb(206, 145, 120);&quot;&gt;&#39;primevue/dialog&#39;&lt;/span&gt;;&lt;/div&gt;&lt;div&gt;&lt;span style=&quot;color: rgb(197, 134, 192);&quot;&gt;import&lt;/span&gt; &lt;span style=&quot;color: rgb(156, 220, 254);&quot;&gt;Message&lt;/span&gt; &lt;span style=&quot;color: rgb(197, 134, 192);&quot;&gt;from&lt;/span&gt; &lt;span style=&quot;color: rgb(206, 145, 120);&quot;&gt;&#39;primevue/message&#39;&lt;/span&gt;;&lt;/div&gt;&lt;div&gt;&lt;span style=&quot;color: rgb(197, 134, 192);&quot;&gt;import&lt;/span&gt; &lt;span style=&quot;color: rgb(156, 220, 254);&quot;&gt;ScrollPanel&lt;/span&gt; &lt;span style=&quot;color: rgb(197, 134, 192);&quot;&gt;from&lt;/span&gt; &lt;span style=&quot;color: rgb(206, 145, 120);&quot;&gt;&#39;primevue/scrollpanel&#39;&lt;/span&gt;;&lt;/div&gt;&lt;div&gt;&lt;span style=&quot;color: rgb(197, 134, 192);&quot;&gt;import&lt;/span&gt; &lt;span style=&quot;color: rgb(197, 134, 192);&quot;&gt;type&lt;/span&gt; { &lt;span style=&quot;color: rgb(156, 220, 254);&quot;&gt;PublicEventVersion&lt;/span&gt; } &lt;span style=&quot;color: rgb(197, 134, 192);&quot;&gt;from&lt;/span&gt; &lt;span style=&quot;color: rgb(206, 145, 120);&quot;&gt;&#39;@/features/concept-versioning/types/PublicEventVersion&#39;&lt;/span&gt;;&lt;/div&gt;&lt;div&gt;&lt;span style=&quot;color: rgb(197, 134, 192);&quot;&gt;import&lt;/span&gt; &lt;span style=&quot;color: rgb(156, 220, 254);&quot;&gt;VersionDummyService&lt;/span&gt; &lt;span style=&quot;color: rgb(197, 134, 192);&quot;&gt;from&lt;/span&gt; &lt;span style=&quot;color: rgb(206, 145, 120);&quot;&gt;&#39;../services/VersionDummyService&#39;&lt;/span&gt;;&lt;/div&gt;&lt;div&gt;&lt;span style=&quot;color: rgb(197, 134, 192);&quot;&gt;import&lt;/span&gt; { &lt;span style=&quot;color: rgb(156, 220, 254);&quot;&gt;useFormValidator&lt;/span&gt; } &lt;span style=&quot;color: rgb(197, 134, 192);&quot;&gt;from&lt;/span&gt; &lt;span style=&quot;color: rgb(206, 145, 120);&quot;&gt;&#39;@/shared/composables/useFormValidator&#39;&lt;/span&gt;;&lt;/div&gt;&lt;div&gt;&lt;span style=&quot;color: rgb(197, 134, 192);&quot;&gt;import&lt;/span&gt; { &lt;span style=&quot;color: rgb(156, 220, 254);&quot;&gt;useUserFieldArray&lt;/span&gt; } &lt;span style=&quot;color: rgb(197, 134, 192);&quot;&gt;from&lt;/span&gt; &lt;span style=&quot;color: rgb(206, 145, 120);&quot;&gt;&#39;@/features/concept-versioning/composables/useUserFieldArray&#39;&lt;/span&gt;;&lt;/div&gt;&lt;div&gt;&lt;span style=&quot;color: rgb(197, 134, 192);&quot;&gt;import&lt;/span&gt; { &lt;span style=&quot;color: rgb(156, 220, 254);&quot;&gt;useFormDialogHandler&lt;/span&gt; } &lt;span style=&quot;color: rgb(197, 134, 192);&quot;&gt;from&lt;/span&gt; &lt;span style=&quot;color: rgb(206, 145, 120);&quot;&gt;&#39;@/features/concept-versioning/composables/useFormDialogHandler&#39;&lt;/span&gt;;&lt;/div&gt;&lt;div&gt;&lt;span style=&quot;color: rgb(197, 134, 192);&quot;&gt;import&lt;/span&gt; &lt;span style=&quot;color: rgb(156, 220, 254);&quot;&gt;TextareaField&lt;/span&gt; &lt;span style=&quot;color: rgb(197, 134, 192);&quot;&gt;from&lt;/span&gt; &lt;span style=&quot;color: rgb(206, 145, 120);&quot;&gt;&#39;@/shared/components/forms/TextareaField.vue&#39;&lt;/span&gt;;&lt;/div&gt;&lt;div&gt;&lt;span style=&quot;color: rgb(197, 134, 192);&quot;&gt;import&lt;/span&gt; &lt;span style=&quot;color: rgb(156, 220, 254);&quot;&gt;InputTextField&lt;/span&gt; &lt;span style=&quot;color: rgb(197, 134, 192);&quot;&gt;from&lt;/span&gt; &lt;span style=&quot;color: rgb(206, 145, 120);&quot;&gt;&#39;@/shared/components/forms/InputTextField.vue&#39;&lt;/span&gt;;&lt;/div&gt;&lt;div&gt;&lt;span style=&quot;color: rgb(197, 134, 192);&quot;&gt;import&lt;/span&gt; &lt;span style=&quot;color: rgb(156, 220, 254);&quot;&gt;SelectField&lt;/span&gt; &lt;span style=&quot;color: rgb(197, 134, 192);&quot;&gt;from&lt;/span&gt; &lt;span style=&quot;color: rgb(206, 145, 120);&quot;&gt;&#39;@/shared/components/forms/SelectField.vue&#39;&lt;/span&gt;;&lt;/div&gt;&lt;div&gt;&lt;span style=&quot;color: rgb(197, 134, 192);&quot;&gt;import&lt;/span&gt; {&lt;/div&gt;&lt;div&gt;    &lt;span style=&quot;color: rgb(156, 220, 254);&quot;&gt;versionFormInitialValues&lt;/span&gt;,&lt;/div&gt;&lt;div&gt;    &lt;span style=&quot;color: rgb(156, 220, 254);&quot;&gt;versionFormSchema&lt;/span&gt;,&lt;/div&gt;&lt;div&gt;    &lt;span style=&quot;color: rgb(197, 134, 192);&quot;&gt;type&lt;/span&gt; &lt;span style=&quot;color: rgb(156, 220, 254);&quot;&gt;VersionFormData&lt;/span&gt;,&lt;/div&gt;&lt;div&gt;} &lt;span style=&quot;color: rgb(197, 134, 192);&quot;&gt;from&lt;/span&gt; &lt;span style=&quot;color: rgb(206, 145, 120);&quot;&gt;&#39;@/features/concept-versioning/schemas/VersionFormSchema&#39;&lt;/span&gt;;&lt;/div&gt;&lt;br&gt;&lt;div&gt;&lt;span style=&quot;color: rgb(86, 156, 214);&quot;&gt;const&lt;/span&gt; &lt;span style=&quot;color: rgb(79, 193, 255);&quot;&gt;dialogProps&lt;/span&gt; &lt;span style=&quot;color: rgb(212, 212, 212);&quot;&gt;=&lt;/span&gt; &lt;span style=&quot;color: rgb(220, 220, 170);&quot;&gt;defineProps&lt;/span&gt;&amp;lt;{&lt;/div&gt;&lt;div&gt;    &lt;span style=&quot;color: rgb(156, 220, 254);&quot;&gt;visible&lt;/span&gt;&lt;span style=&quot;color: rgb(212, 212, 212);&quot;&gt;:&lt;/span&gt; &lt;span style=&quot;color: rgb(78, 201, 176);&quot;&gt;boolean&lt;/span&gt;;&lt;/div&gt;&lt;div&gt;    &lt;span style=&quot;color: rgb(156, 220, 254);&quot;&gt;selectedVersion&lt;/span&gt;&lt;span style=&quot;color: rgb(212, 212, 212);&quot;&gt;:&lt;/span&gt; &lt;span style=&quot;color: rgb(78, 201, 176);&quot;&gt;PublicEventVersion&lt;/span&gt; &lt;span style=&quot;color: rgb(212, 212, 212);&quot;&gt;|&lt;/span&gt; &lt;span style=&quot;color: rgb(78, 201, 176);&quot;&gt;null&lt;/span&gt;;&lt;/div&gt;&lt;div&gt;}&amp;gt;();&lt;/div&gt;&lt;br&gt;&lt;div&gt;&lt;span style=&quot;color: rgb(86, 156, 214);&quot;&gt;const&lt;/span&gt; &lt;span style=&quot;color: rgb(220, 220, 170);&quot;&gt;emit&lt;/span&gt; &lt;span style=&quot;color: rgb(212, 212, 212);&quot;&gt;=&lt;/span&gt; &lt;span style=&quot;color: rgb(220, 220, 170);&quot;&gt;defineEmits&lt;/span&gt;&amp;lt;{&lt;/div&gt;&lt;div&gt;    (&lt;span style=&quot;color: rgb(156, 220, 254);&quot;&gt;e&lt;/span&gt;&lt;span style=&quot;color: rgb(212, 212, 212);&quot;&gt;:&lt;/span&gt; &lt;span style=&quot;color: rgb(206, 145, 120);&quot;&gt;&#39;update:visible&#39;&lt;/span&gt;, &lt;span style=&quot;color: rgb(156, 220, 254);&quot;&gt;value&lt;/span&gt;&lt;span style=&quot;color: rgb(212, 212, 212);&quot;&gt;:&lt;/span&gt; &lt;span style=&quot;color: rgb(78, 201, 176);&quot;&gt;boolean&lt;/span&gt;)&lt;span style=&quot;color: rgb(212, 212, 212);&quot;&gt;:&lt;/span&gt; &lt;span style=&quot;color: rgb(78, 201, 176);&quot;&gt;void&lt;/span&gt;;&lt;/div&gt;&lt;div&gt;}&amp;gt;();&lt;/div&gt;&lt;br&gt;&lt;div&gt;&lt;span style=&quot;color: rgb(86, 156, 214);&quot;&gt;const&lt;/span&gt; &lt;span style=&quot;color: rgb(79, 193, 255);&quot;&gt;dialogHeader&lt;/span&gt; &lt;span style=&quot;color: rgb(212, 212, 212);&quot;&gt;=&lt;/span&gt; &lt;span style=&quot;color: rgb(220, 220, 170);&quot;&gt;computed&lt;/span&gt;(()&lt;span style=&quot;color: rgb(212, 212, 212);&quot;&gt;:&lt;/span&gt; &lt;span style=&quot;color: rgb(78, 201, 176);&quot;&gt;string&lt;/span&gt; &lt;span style=&quot;color: rgb(86, 156, 214);&quot;&gt;=&amp;gt;&lt;/span&gt;&lt;/div&gt;&lt;div&gt;    &lt;span style=&quot;color: rgb(79, 193, 255);&quot;&gt;dialogProps&lt;/span&gt;.&lt;span style=&quot;color: rgb(156, 220, 254);&quot;&gt;selectedVersion&lt;/span&gt;?.&lt;span style=&quot;color: rgb(156, 220, 254);&quot;&gt;versionNum&lt;/span&gt;&lt;/div&gt;&lt;div&gt;        &lt;span style=&quot;color: rgb(212, 212, 212);&quot;&gt;?&lt;/span&gt; &lt;span style=&quot;color: rgb(206, 145, 120);&quot;&gt;`Version &lt;/span&gt;&lt;span style=&quot;color: rgb(86, 156, 214);&quot;&gt;${&lt;/span&gt;&lt;span style=&quot;color: rgb(79, 193, 255);&quot;&gt;dialogProps&lt;/span&gt;&lt;span style=&quot;color: rgb(212, 212, 212);&quot;&gt;.&lt;/span&gt;&lt;span style=&quot;color: rgb(156, 220, 254);&quot;&gt;selectedVersion&lt;/span&gt;&lt;span style=&quot;color: rgb(212, 212, 212);&quot;&gt;.&lt;/span&gt;&lt;span style=&quot;color: rgb(156, 220, 254);&quot;&gt;versionNum&lt;/span&gt;&lt;span style=&quot;color: rgb(86, 156, 214);&quot;&gt;}&lt;/span&gt;&lt;span style=&quot;color: rgb(206, 145, 120);&quot;&gt; freigeben`&lt;/span&gt;&lt;/div&gt;&lt;div&gt;        &lt;span style=&quot;color: rgb(212, 212, 212);&quot;&gt;:&lt;/span&gt; &lt;span style=&quot;color: rgb(206, 145, 120);&quot;&gt;&#39;Version freigeben&#39;&lt;/span&gt;,&lt;/div&gt;&lt;div&gt;);&lt;/div&gt;&lt;br&gt;&lt;div&gt;&lt;span style=&quot;color: rgb(86, 156, 214);&quot;&gt;const&lt;/span&gt; &lt;span style=&quot;color: rgb(79, 193, 255);&quot;&gt;roleOptions&lt;/span&gt; &lt;span style=&quot;color: rgb(212, 212, 212);&quot;&gt;=&lt;/span&gt; [&lt;/div&gt;&lt;div&gt;    { &lt;span style=&quot;color: rgb(156, 220, 254);&quot;&gt;label&lt;/span&gt;&lt;span style=&quot;color: rgb(156, 220, 254);&quot;&gt;:&lt;/span&gt; &lt;span style=&quot;color: rgb(206, 145, 120);&quot;&gt;&#39;Prüfer:in&#39;&lt;/span&gt;, &lt;span style=&quot;color: rgb(156, 220, 254);&quot;&gt;value&lt;/span&gt;&lt;span style=&quot;color: rgb(156, 220, 254);&quot;&gt;:&lt;/span&gt; &lt;span style=&quot;color: rgb(206, 145, 120);&quot;&gt;&#39;auditor&#39;&lt;/span&gt; },&lt;/div&gt;&lt;div&gt;    { &lt;span style=&quot;color: rgb(156, 220, 254);&quot;&gt;label&lt;/span&gt;&lt;span style=&quot;color: rgb(156, 220, 254);&quot;&gt;:&lt;/span&gt; &lt;span style=&quot;color: rgb(206, 145, 120);&quot;&gt;&#39;Mitarbeiter:in&#39;&lt;/span&gt;, &lt;span style=&quot;color: rgb(156, 220, 254);&quot;&gt;value&lt;/span&gt;&lt;span style=&quot;color: rgb(156, 220, 254);&quot;&gt;:&lt;/span&gt; &lt;span style=&quot;color: rgb(206, 145, 120);&quot;&gt;&#39;contributor&#39;&lt;/span&gt; },&lt;/div&gt;&lt;div&gt;];&lt;/div&gt;&lt;br&gt;&lt;div&gt;&lt;span style=&quot;color: rgb(86, 156, 214);&quot;&gt;const&lt;/span&gt; { &lt;span style=&quot;color: rgb(220, 220, 170);&quot;&gt;resetForm&lt;/span&gt;, &lt;span style=&quot;color: rgb(220, 220, 170);&quot;&gt;validateForm&lt;/span&gt; } &lt;span style=&quot;color: rgb(212, 212, 212);&quot;&gt;=&lt;/span&gt; &lt;span style=&quot;color: rgb(220, 220, 170);&quot;&gt;useFormValidator&lt;/span&gt;(&lt;span style=&quot;color: rgb(79, 193, 255);&quot;&gt;versionFormSchema&lt;/span&gt;, &lt;span style=&quot;color: rgb(79, 193, 255);&quot;&gt;versionFormInitialValues&lt;/span&gt;);&lt;/div&gt;&lt;div&gt;&lt;span style=&quot;color: rgb(86, 156, 214);&quot;&gt;const&lt;/span&gt; { &lt;span style=&quot;color: rgb(79, 193, 255);&quot;&gt;fields&lt;/span&gt;, &lt;span style=&quot;color: rgb(220, 220, 170);&quot;&gt;addUser&lt;/span&gt;, &lt;span style=&quot;color: rgb(220, 220, 170);&quot;&gt;removeUser&lt;/span&gt; } &lt;span style=&quot;color: rgb(212, 212, 212);&quot;&gt;=&lt;/span&gt; &lt;span style=&quot;color: rgb(220, 220, 170);&quot;&gt;useUserFieldArray&lt;/span&gt;();&lt;/div&gt;&lt;div&gt;&lt;span style=&quot;color: rgb(86, 156, 214);&quot;&gt;const&lt;/span&gt; { &lt;span style=&quot;color: rgb(220, 220, 170);&quot;&gt;openFormDialog&lt;/span&gt;, &lt;span style=&quot;color: rgb(220, 220, 170);&quot;&gt;closeFormDialog&lt;/span&gt; } &lt;span style=&quot;color: rgb(212, 212, 212);&quot;&gt;=&lt;/span&gt; &lt;span style=&quot;color: rgb(220, 220, 170);&quot;&gt;useFormDialogHandler&lt;/span&gt;(&lt;span style=&quot;color: rgb(220, 220, 170);&quot;&gt;emit&lt;/span&gt;, &lt;span style=&quot;color: rgb(220, 220, 170);&quot;&gt;resetForm&lt;/span&gt;);&lt;/div&gt;&lt;br&gt;&lt;div&gt;&lt;span style=&quot;color: rgb(86, 156, 214);&quot;&gt;const&lt;/span&gt; &lt;span style=&quot;color: rgb(220, 220, 170);&quot;&gt;onSubmit&lt;/span&gt; &lt;span style=&quot;color: rgb(212, 212, 212);&quot;&gt;=&lt;/span&gt; &lt;span style=&quot;color: rgb(220, 220, 170);&quot;&gt;validateForm&lt;/span&gt;((&lt;span style=&quot;color: rgb(156, 220, 254);&quot;&gt;formData&lt;/span&gt;&lt;span style=&quot;color: rgb(212, 212, 212);&quot;&gt;:&lt;/span&gt; &lt;span style=&quot;color: rgb(78, 201, 176);&quot;&gt;VersionFormData&lt;/span&gt;)&lt;span style=&quot;color: rgb(212, 212, 212);&quot;&gt;:&lt;/span&gt; &lt;span style=&quot;color: rgb(78, 201, 176);&quot;&gt;void&lt;/span&gt; &lt;span style=&quot;color: rgb(86, 156, 214);&quot;&gt;=&amp;gt;&lt;/span&gt; {&lt;/div&gt;&lt;div&gt;    &lt;span style=&quot;color: rgb(197, 134, 192);&quot;&gt;try&lt;/span&gt; {&lt;/div&gt;&lt;div&gt;        &lt;span style=&quot;color: rgb(86, 156, 214);&quot;&gt;const&lt;/span&gt; &lt;span style=&quot;color: rgb(79, 193, 255);&quot;&gt;userListFormat&lt;/span&gt; &lt;span style=&quot;color: rgb(212, 212, 212);&quot;&gt;=&lt;/span&gt; &lt;span style=&quot;color: rgb(156, 220, 254);&quot;&gt;formData&lt;/span&gt;.&lt;span style=&quot;color: rgb(156, 220, 254);&quot;&gt;users&lt;/span&gt;.&lt;span style=&quot;color: rgb(220, 220, 170);&quot;&gt;filter&lt;/span&gt;((&lt;span style=&quot;color: rgb(156, 220, 254);&quot;&gt;u&lt;/span&gt;&lt;span style=&quot;color: rgb(212, 212, 212);&quot;&gt;:&lt;/span&gt; { &lt;span style=&quot;color: rgb(156, 220, 254);&quot;&gt;email&lt;/span&gt;&lt;span style=&quot;color: rgb(212, 212, 212);&quot;&gt;:&lt;/span&gt; &lt;span style=&quot;color: rgb(78, 201, 176);&quot;&gt;string&lt;/span&gt; }) &lt;span style=&quot;color: rgb(86, 156, 214);&quot;&gt;=&amp;gt;&lt;/span&gt; &lt;span style=&quot;color: rgb(156, 220, 254);&quot;&gt;u&lt;/span&gt;.&lt;span style=&quot;color: rgb(156, 220, 254);&quot;&gt;email&lt;/span&gt;.&lt;span style=&quot;color: rgb(220, 220, 170);&quot;&gt;trim&lt;/span&gt;() &lt;span style=&quot;color: rgb(212, 212, 212);&quot;&gt;!==&lt;/span&gt; &lt;span style=&quot;color: rgb(206, 145, 120);&quot;&gt;&#39;&#39;&lt;/span&gt;);&lt;/div&gt;&lt;div&gt;        &lt;span style=&quot;color: rgb(86, 156, 214);&quot;&gt;const&lt;/span&gt; &lt;span style=&quot;color: rgb(79, 193, 255);&quot;&gt;timestamp&lt;/span&gt; &lt;span style=&quot;color: rgb(212, 212, 212);&quot;&gt;=&lt;/span&gt; &lt;span style=&quot;color: rgb(86, 156, 214);&quot;&gt;new&lt;/span&gt; &lt;span style=&quot;color: rgb(78, 201, 176);&quot;&gt;Date&lt;/span&gt;().&lt;span style=&quot;color: rgb(220, 220, 170);&quot;&gt;toISOString&lt;/span&gt;();&lt;/div&gt;&lt;br&gt;&lt;div&gt;        &lt;span style=&quot;color: rgb(156, 220, 254);&quot;&gt;VersionDummyService&lt;/span&gt;.&lt;span style=&quot;color: rgb(220, 220, 170);&quot;&gt;updateVersion&lt;/span&gt;({&lt;/div&gt;&lt;div&gt;            &lt;span style=&quot;color: rgb(212, 212, 212);&quot;&gt;...&lt;/span&gt;&lt;span style=&quot;color: rgb(79, 193, 255);&quot;&gt;dialogProps&lt;/span&gt;.&lt;span style=&quot;color: rgb(156, 220, 254);&quot;&gt;selectedVersion&lt;/span&gt;&lt;span style=&quot;color: rgb(212, 212, 212);&quot;&gt;!&lt;/span&gt;,&lt;/div&gt;&lt;div&gt;            &lt;span style=&quot;color: rgb(156, 220, 254);&quot;&gt;description&lt;/span&gt;&lt;span style=&quot;color: rgb(156, 220, 254);&quot;&gt;:&lt;/span&gt; &lt;span style=&quot;color: rgb(156, 220, 254);&quot;&gt;formData&lt;/span&gt;.&lt;span style=&quot;color: rgb(156, 220, 254);&quot;&gt;description&lt;/span&gt;,&lt;/div&gt;&lt;div&gt;            &lt;span style=&quot;color: rgb(156, 220, 254);&quot;&gt;isShared&lt;/span&gt;&lt;span style=&quot;color: rgb(156, 220, 254);&quot;&gt;:&lt;/span&gt; &lt;span style=&quot;color: rgb(86, 156, 214);&quot;&gt;true&lt;/span&gt;,&lt;/div&gt;&lt;div&gt;            &lt;span style=&quot;color: rgb(156, 220, 254);&quot;&gt;sharedWith&lt;/span&gt;&lt;span style=&quot;color: rgb(156, 220, 254);&quot;&gt;:&lt;/span&gt; &lt;span style=&quot;color: rgb(79, 193, 255);&quot;&gt;userListFormat&lt;/span&gt;,&lt;/div&gt;&lt;div&gt;            &lt;span style=&quot;color: rgb(156, 220, 254);&quot;&gt;sharedAt&lt;/span&gt;&lt;span style=&quot;color: rgb(156, 220, 254);&quot;&gt;:&lt;/span&gt; &lt;span style=&quot;color: rgb(79, 193, 255);&quot;&gt;timestamp&lt;/span&gt;,&lt;/div&gt;&lt;div&gt;        });&lt;/div&gt;&lt;br&gt;&lt;div&gt;        &lt;span style=&quot;color: rgb(156, 220, 254);&quot;&gt;VersionDummyService&lt;/span&gt;.&lt;span style=&quot;color: rgb(220, 220, 170);&quot;&gt;addDummyVersion&lt;/span&gt;();&lt;/div&gt;&lt;div&gt;        &lt;span style=&quot;color: rgb(156, 220, 254);&quot;&gt;console&lt;/span&gt;.&lt;span style=&quot;color: rgb(220, 220, 170);&quot;&gt;debug&lt;/span&gt;(&lt;span style=&quot;color: rgb(206, 145, 120);&quot;&gt;&#39;Form submitted:&#39;&lt;/span&gt;, &lt;span style=&quot;color: rgb(156, 220, 254);&quot;&gt;formData&lt;/span&gt;);&lt;/div&gt;&lt;div&gt;    } &lt;span style=&quot;color: rgb(197, 134, 192);&quot;&gt;catch&lt;/span&gt; (&lt;span style=&quot;color: rgb(156, 220, 254);&quot;&gt;error&lt;/span&gt;) {&lt;/div&gt;&lt;div&gt;        &lt;span style=&quot;color: rgb(197, 134, 192);&quot;&gt;throw&lt;/span&gt; &lt;span style=&quot;color: rgb(86, 156, 214);&quot;&gt;new&lt;/span&gt; &lt;span style=&quot;color: rgb(78, 201, 176);&quot;&gt;Error&lt;/span&gt;(&lt;span style=&quot;color: rgb(206, 145, 120);&quot;&gt;`Dialog Error. &lt;/span&gt;&lt;span style=&quot;color: rgb(86, 156, 214);&quot;&gt;${&lt;/span&gt;&lt;span style=&quot;color: rgb(156, 220, 254);&quot;&gt;error&lt;/span&gt;&lt;span style=&quot;color: rgb(86, 156, 214);&quot;&gt;}&lt;/span&gt;&lt;span style=&quot;color: rgb(206, 145, 120);&quot;&gt;`&lt;/span&gt;);&lt;/div&gt;&lt;div&gt;    }&lt;/div&gt;&lt;div&gt;    &lt;span style=&quot;color: rgb(220, 220, 170);&quot;&gt;closeFormDialog&lt;/span&gt;();&lt;/div&gt;&lt;div&gt;});&lt;/div&gt;&lt;div&gt;&lt;span style=&quot;color: rgb(128, 128, 128);&quot;&gt;&amp;lt;/&lt;/span&gt;&lt;span style=&quot;color: rgb(86, 156, 214);&quot;&gt;script&lt;/span&gt;&lt;span style=&quot;color: rgb(128, 128, 128);&quot;&gt;&amp;gt;&lt;/span&gt;&lt;/div&gt;&lt;br&gt;&lt;div&gt;&lt;span style=&quot;color: rgb(128, 128, 128);&quot;&gt;&amp;lt;&lt;/span&gt;&lt;span style=&quot;color: rgb(86, 156, 214);&quot;&gt;style&lt;/span&gt; &lt;span style=&quot;color: rgb(156, 220, 254);&quot;&gt;scoped&lt;/span&gt;&lt;span style=&quot;color: rgb(128, 128, 128);&quot;&gt;&amp;gt;&lt;/span&gt;&lt;/div&gt;&lt;div&gt;&lt;span style=&quot;color: rgb(215, 186, 125);&quot;&gt;.form-input-fullsize&lt;/span&gt; {&lt;/div&gt;&lt;div&gt;    &lt;span style=&quot;color: rgb(156, 220, 254);&quot;&gt;display&lt;/span&gt;: &lt;span style=&quot;color: rgb(206, 145, 120);&quot;&gt;grid&lt;/span&gt;;&lt;/div&gt;&lt;div&gt;}&lt;/div&gt;&lt;br&gt;&lt;div&gt;&lt;span style=&quot;color: rgb(215, 186, 125);&quot;&gt;.btn-group&lt;/span&gt; {&lt;/div&gt;&lt;div&gt;    &lt;span style=&quot;color: rgb(156, 220, 254);&quot;&gt;display&lt;/span&gt;: &lt;span style=&quot;color: rgb(206, 145, 120);&quot;&gt;grid&lt;/span&gt;;&lt;/div&gt;&lt;div&gt;    &lt;span style=&quot;color: rgb(156, 220, 254);&quot;&gt;grid-template-columns&lt;/span&gt;: &lt;span style=&quot;color: rgb(220, 220, 170);&quot;&gt;repeat&lt;/span&gt;(&lt;span style=&quot;color: rgb(181, 206, 168);&quot;&gt;2&lt;/span&gt;, &lt;span style=&quot;color: rgb(181, 206, 168);&quot;&gt;1fr&lt;/span&gt;);&lt;/div&gt;&lt;div&gt;    &lt;span style=&quot;color: rgb(156, 220, 254);&quot;&gt;gap&lt;/span&gt;: &lt;span style=&quot;color: rgb(181, 206, 168);&quot;&gt;1rem&lt;/span&gt;;&lt;/div&gt;&lt;div&gt;}&lt;/div&gt;&lt;br&gt;&lt;div&gt;&lt;span style=&quot;color: rgb(215, 186, 125);&quot;&gt;.table-cell-input&lt;/span&gt; {&lt;/div&gt;&lt;div&gt;    &lt;span style=&quot;color: rgb(156, 220, 254);&quot;&gt;width&lt;/span&gt;: &lt;span style=&quot;color: rgb(181, 206, 168);&quot;&gt;100%&lt;/span&gt;;&lt;/div&gt;&lt;div&gt;    &lt;span style=&quot;color: rgb(156, 220, 254);&quot;&gt;height&lt;/span&gt;: &lt;span style=&quot;color: rgb(181, 206, 168);&quot;&gt;2.5rem&lt;/span&gt;;&lt;/div&gt;&lt;div&gt;    &lt;span style=&quot;color: rgb(156, 220, 254);&quot;&gt;box-sizing&lt;/span&gt;: &lt;span style=&quot;color: rgb(206, 145, 120);&quot;&gt;border-box&lt;/span&gt;;&lt;/div&gt;&lt;div&gt;}&lt;/div&gt;&lt;div&gt;&lt;span style=&quot;color: rgb(128, 128, 128);&quot;&gt;&amp;lt;/&lt;/span&gt;&lt;span style=&quot;color: rgb(86, 156, 214);&quot;&gt;style&lt;/span&gt;&lt;span style=&quot;color: rgb(128, 128, 128);&quot;&gt;&amp;gt;&lt;/span&gt;&lt;/div&gt;&lt;br&gt;&lt;/div&gt;&lt;/div&gt;" style="rounded=0;whiteSpace=wrap;html=1;align=left;verticalAlign=top;" vertex="1" parent="1">
          <mxGeometry x="100" y="3280" width="870" height="3120" as="geometry" />
        </mxCell>
        <mxCell id="7iGNXJQkttV0HCJYnzMc-6" value="src/features/concept-versioning/composables/useFormDialogHandler.ts&lt;div&gt;&lt;div style=&quot;color: rgb(204, 204, 204); background-color: rgb(31, 31, 31); font-family: Menlo, Monaco, &amp;quot;Courier New&amp;quot;, monospace; line-height: 18px; white-space: pre;&quot;&gt;&lt;div&gt;&lt;span style=&quot;color: rgb(86, 156, 214);&quot;&gt;interface&lt;/span&gt; &lt;span style=&quot;color: rgb(78, 201, 176);&quot;&gt;FormDialogHandler&lt;/span&gt; {&lt;/div&gt;&lt;div&gt;    &lt;span style=&quot;color: rgb(220, 220, 170);&quot;&gt;openFormDialog&lt;/span&gt;&lt;span style=&quot;color: rgb(212, 212, 212);&quot;&gt;:&lt;/span&gt; () &lt;span style=&quot;color: rgb(86, 156, 214);&quot;&gt;=&amp;gt;&lt;/span&gt; &lt;span style=&quot;color: rgb(78, 201, 176);&quot;&gt;void&lt;/span&gt;;&lt;/div&gt;&lt;div&gt;    &lt;span style=&quot;color: rgb(220, 220, 170);&quot;&gt;closeFormDialog&lt;/span&gt;&lt;span style=&quot;color: rgb(212, 212, 212);&quot;&gt;:&lt;/span&gt; () &lt;span style=&quot;color: rgb(86, 156, 214);&quot;&gt;=&amp;gt;&lt;/span&gt; &lt;span style=&quot;color: rgb(78, 201, 176);&quot;&gt;void&lt;/span&gt;;&lt;/div&gt;&lt;div&gt;}&lt;/div&gt;&lt;br&gt;&lt;div&gt;&lt;span style=&quot;color: rgb(106, 153, 85);&quot;&gt;/**&lt;/span&gt;&lt;/div&gt;&lt;div&gt;&lt;span style=&quot;color: rgb(106, 153, 85);&quot;&gt; * Composable to handle form reset within dialog open/close.&lt;/span&gt;&lt;/div&gt;&lt;div&gt;&lt;span style=&quot;color: rgb(106, 153, 85);&quot;&gt; * &lt;/span&gt;&lt;span style=&quot;color: rgb(86, 156, 214);&quot;&gt;@param&lt;/span&gt;&lt;span style=&quot;color: rgb(106, 153, 85);&quot;&gt; &lt;/span&gt;&lt;span style=&quot;color: rgb(156, 220, 254);&quot;&gt;emit&lt;/span&gt;&lt;span style=&quot;color: rgb(106, 153, 85);&quot;&gt; - Emit function from the component.&lt;/span&gt;&lt;/div&gt;&lt;div&gt;&lt;span style=&quot;color: rgb(106, 153, 85);&quot;&gt; * &lt;/span&gt;&lt;span style=&quot;color: rgb(86, 156, 214);&quot;&gt;@param&lt;/span&gt;&lt;span style=&quot;color: rgb(106, 153, 85);&quot;&gt; &lt;/span&gt;&lt;span style=&quot;color: rgb(156, 220, 254);&quot;&gt;reset&lt;/span&gt;&lt;span style=&quot;color: rgb(106, 153, 85);&quot;&gt; - Function to reset the form.&lt;/span&gt;&lt;/div&gt;&lt;div&gt;&lt;span style=&quot;color: rgb(106, 153, 85);&quot;&gt; * &lt;/span&gt;&lt;span style=&quot;color: rgb(86, 156, 214);&quot;&gt;@returns&lt;/span&gt;&lt;span style=&quot;color: rgb(106, 153, 85);&quot;&gt; Handlers for dialog open and close events.&lt;/span&gt;&lt;/div&gt;&lt;div&gt;&lt;span style=&quot;color: rgb(106, 153, 85);&quot;&gt; */&lt;/span&gt;&lt;/div&gt;&lt;div&gt;&lt;span style=&quot;color: rgb(197, 134, 192);&quot;&gt;export&lt;/span&gt; &lt;span style=&quot;color: rgb(86, 156, 214);&quot;&gt;function&lt;/span&gt; &lt;span style=&quot;color: rgb(220, 220, 170);&quot;&gt;useFormDialogHandler&lt;/span&gt;(&lt;/div&gt;&lt;div&gt;    &lt;span style=&quot;color: rgb(220, 220, 170);&quot;&gt;emit&lt;/span&gt;&lt;span style=&quot;color: rgb(212, 212, 212);&quot;&gt;:&lt;/span&gt; (&lt;span style=&quot;color: rgb(156, 220, 254);&quot;&gt;e&lt;/span&gt;&lt;span style=&quot;color: rgb(212, 212, 212);&quot;&gt;:&lt;/span&gt; &lt;span style=&quot;color: rgb(206, 145, 120);&quot;&gt;&#39;update:visible&#39;&lt;/span&gt;, &lt;span style=&quot;color: rgb(156, 220, 254);&quot;&gt;value&lt;/span&gt;&lt;span style=&quot;color: rgb(212, 212, 212);&quot;&gt;:&lt;/span&gt; &lt;span style=&quot;color: rgb(78, 201, 176);&quot;&gt;boolean&lt;/span&gt;) &lt;span style=&quot;color: rgb(86, 156, 214);&quot;&gt;=&amp;gt;&lt;/span&gt; &lt;span style=&quot;color: rgb(78, 201, 176);&quot;&gt;void&lt;/span&gt;,&lt;/div&gt;&lt;div&gt;    &lt;span style=&quot;color: rgb(220, 220, 170);&quot;&gt;reset&lt;/span&gt;&lt;span style=&quot;color: rgb(212, 212, 212);&quot;&gt;:&lt;/span&gt; () &lt;span style=&quot;color: rgb(86, 156, 214);&quot;&gt;=&amp;gt;&lt;/span&gt; &lt;span style=&quot;color: rgb(78, 201, 176);&quot;&gt;void&lt;/span&gt;,&lt;/div&gt;&lt;div&gt;)&lt;span style=&quot;color: rgb(212, 212, 212);&quot;&gt;:&lt;/span&gt; &lt;span style=&quot;color: rgb(78, 201, 176);&quot;&gt;FormDialogHandler&lt;/span&gt; {&lt;/div&gt;&lt;div&gt;    &lt;span style=&quot;color: rgb(106, 153, 85);&quot;&gt;/**&lt;/span&gt;&lt;/div&gt;&lt;div&gt;&lt;span style=&quot;color: rgb(106, 153, 85);&quot;&gt;     * Opens the dialog and emit visibility change.&lt;/span&gt;&lt;/div&gt;&lt;div&gt;&lt;span style=&quot;color: rgb(106, 153, 85);&quot;&gt;     */&lt;/span&gt;&lt;/div&gt;&lt;div&gt;    &lt;span style=&quot;color: rgb(86, 156, 214);&quot;&gt;const&lt;/span&gt; &lt;span style=&quot;color: rgb(220, 220, 170);&quot;&gt;openFormDialog&lt;/span&gt; &lt;span style=&quot;color: rgb(212, 212, 212);&quot;&gt;=&lt;/span&gt; ()&lt;span style=&quot;color: rgb(212, 212, 212);&quot;&gt;:&lt;/span&gt; &lt;span style=&quot;color: rgb(78, 201, 176);&quot;&gt;void&lt;/span&gt; &lt;span style=&quot;color: rgb(86, 156, 214);&quot;&gt;=&amp;gt;&lt;/span&gt; {&lt;/div&gt;&lt;div&gt;        &lt;span style=&quot;color: rgb(220, 220, 170);&quot;&gt;reset&lt;/span&gt;();&lt;/div&gt;&lt;div&gt;        &lt;span style=&quot;color: rgb(220, 220, 170);&quot;&gt;emit&lt;/span&gt;(&lt;span style=&quot;color: rgb(206, 145, 120);&quot;&gt;&#39;update:visible&#39;&lt;/span&gt;, &lt;span style=&quot;color: rgb(86, 156, 214);&quot;&gt;true&lt;/span&gt;);&lt;/div&gt;&lt;div&gt;    };&lt;/div&gt;&lt;br&gt;&lt;div&gt;    &lt;span style=&quot;color: rgb(106, 153, 85);&quot;&gt;/**&lt;/span&gt;&lt;/div&gt;&lt;div&gt;&lt;span style=&quot;color: rgb(106, 153, 85);&quot;&gt;     * Closes the dialog and emit visibility change.&lt;/span&gt;&lt;/div&gt;&lt;div&gt;&lt;span style=&quot;color: rgb(106, 153, 85);&quot;&gt;     */&lt;/span&gt;&lt;/div&gt;&lt;div&gt;    &lt;span style=&quot;color: rgb(86, 156, 214);&quot;&gt;const&lt;/span&gt; &lt;span style=&quot;color: rgb(220, 220, 170);&quot;&gt;closeFormDialog&lt;/span&gt; &lt;span style=&quot;color: rgb(212, 212, 212);&quot;&gt;=&lt;/span&gt; ()&lt;span style=&quot;color: rgb(212, 212, 212);&quot;&gt;:&lt;/span&gt; &lt;span style=&quot;color: rgb(78, 201, 176);&quot;&gt;void&lt;/span&gt; &lt;span style=&quot;color: rgb(86, 156, 214);&quot;&gt;=&amp;gt;&lt;/span&gt; {&lt;/div&gt;&lt;div&gt;        &lt;span style=&quot;color: rgb(220, 220, 170);&quot;&gt;reset&lt;/span&gt;();&lt;/div&gt;&lt;div&gt;        &lt;span style=&quot;color: rgb(220, 220, 170);&quot;&gt;emit&lt;/span&gt;(&lt;span style=&quot;color: rgb(206, 145, 120);&quot;&gt;&#39;update:visible&#39;&lt;/span&gt;, &lt;span style=&quot;color: rgb(86, 156, 214);&quot;&gt;false&lt;/span&gt;);&lt;/div&gt;&lt;div&gt;    };&lt;/div&gt;&lt;br&gt;&lt;div&gt;    &lt;span style=&quot;color: rgb(197, 134, 192);&quot;&gt;return&lt;/span&gt; { &lt;span style=&quot;color: rgb(220, 220, 170);&quot;&gt;openFormDialog&lt;/span&gt;, &lt;span style=&quot;color: rgb(220, 220, 170);&quot;&gt;closeFormDialog&lt;/span&gt; };&lt;/div&gt;&lt;div&gt;}&lt;/div&gt;&lt;br&gt;&lt;/div&gt;&lt;/div&gt;" style="rounded=0;whiteSpace=wrap;html=1;align=left;verticalAlign=top;" vertex="1" parent="1">
          <mxGeometry x="916" y="110" width="444" height="640" as="geometry" />
        </mxCell>
        <mxCell id="7iGNXJQkttV0HCJYnzMc-7" value="src/features/concept-versioning/composables/useUserFieldArray.ts&lt;div&gt;&lt;div style=&quot;color: rgb(204, 204, 204); background-color: rgb(31, 31, 31); font-family: Menlo, Monaco, &amp;quot;Courier New&amp;quot;, monospace; line-height: 18px; white-space: pre;&quot;&gt;&lt;div&gt;&lt;span style=&quot;color: rgb(197, 134, 192);&quot;&gt;import&lt;/span&gt; { &lt;span style=&quot;color: rgb(156, 220, 254);&quot;&gt;useFieldArray&lt;/span&gt; } &lt;span style=&quot;color: rgb(197, 134, 192);&quot;&gt;from&lt;/span&gt; &lt;span style=&quot;color: rgb(206, 145, 120);&quot;&gt;&#39;vee-validate&#39;&lt;/span&gt;;&lt;/div&gt;&lt;br&gt;&lt;div&gt;&lt;span style=&quot;color: rgb(106, 153, 85);&quot;&gt;/**&lt;/span&gt;&lt;/div&gt;&lt;div&gt;&lt;span style=&quot;color: rgb(106, 153, 85);&quot;&gt; * Composable to manage dynamic user fields in a form.&lt;/span&gt;&lt;/div&gt;&lt;div&gt;&lt;span style=&quot;color: rgb(106, 153, 85);&quot;&gt; * &lt;/span&gt;&lt;span style=&quot;color: rgb(86, 156, 214);&quot;&gt;@returns&lt;/span&gt;&lt;span style=&quot;color: rgb(106, 153, 85);&quot;&gt; Field array state and helper functions for adding/removing users.&lt;/span&gt;&lt;/div&gt;&lt;div&gt;&lt;span style=&quot;color: rgb(106, 153, 85);&quot;&gt; */&lt;/span&gt;&lt;/div&gt;&lt;div&gt;&lt;span style=&quot;color: rgb(197, 134, 192);&quot;&gt;export&lt;/span&gt; &lt;span style=&quot;color: rgb(86, 156, 214);&quot;&gt;function&lt;/span&gt; &lt;span style=&quot;color: rgb(220, 220, 170);&quot;&gt;useUserFieldArray&lt;/span&gt;() {&lt;/div&gt;&lt;div&gt;    &lt;span style=&quot;color: rgb(86, 156, 214);&quot;&gt;const&lt;/span&gt; { &lt;span style=&quot;color: rgb(79, 193, 255);&quot;&gt;fields&lt;/span&gt;, &lt;span style=&quot;color: rgb(220, 220, 170);&quot;&gt;push&lt;/span&gt;, &lt;span style=&quot;color: rgb(220, 220, 170);&quot;&gt;remove&lt;/span&gt; } &lt;span style=&quot;color: rgb(212, 212, 212);&quot;&gt;=&lt;/span&gt; &lt;span style=&quot;color: rgb(220, 220, 170);&quot;&gt;useFieldArray&lt;/span&gt;(&lt;span style=&quot;color: rgb(206, 145, 120);&quot;&gt;&#39;users&#39;&lt;/span&gt;);&lt;/div&gt;&lt;br&gt;&lt;div&gt;    &lt;span style=&quot;color: rgb(106, 153, 85);&quot;&gt;/**&lt;/span&gt;&lt;/div&gt;&lt;div&gt;&lt;span style=&quot;color: rgb(106, 153, 85);&quot;&gt;     * Adds a new user row to the form.&lt;/span&gt;&lt;/div&gt;&lt;div&gt;&lt;span style=&quot;color: rgb(106, 153, 85);&quot;&gt;     */&lt;/span&gt;&lt;/div&gt;&lt;div&gt;    &lt;span style=&quot;color: rgb(86, 156, 214);&quot;&gt;const&lt;/span&gt; &lt;span style=&quot;color: rgb(220, 220, 170);&quot;&gt;addUser&lt;/span&gt; &lt;span style=&quot;color: rgb(212, 212, 212);&quot;&gt;=&lt;/span&gt; ()&lt;span style=&quot;color: rgb(212, 212, 212);&quot;&gt;:&lt;/span&gt; &lt;span style=&quot;color: rgb(78, 201, 176);&quot;&gt;void&lt;/span&gt; &lt;span style=&quot;color: rgb(86, 156, 214);&quot;&gt;=&amp;gt;&lt;/span&gt; &lt;span style=&quot;color: rgb(220, 220, 170);&quot;&gt;push&lt;/span&gt;({ &lt;span style=&quot;color: rgb(156, 220, 254);&quot;&gt;email&lt;/span&gt;&lt;span style=&quot;color: rgb(156, 220, 254);&quot;&gt;:&lt;/span&gt; &lt;span style=&quot;color: rgb(206, 145, 120);&quot;&gt;&#39;&#39;&lt;/span&gt;, &lt;span style=&quot;color: rgb(156, 220, 254);&quot;&gt;role&lt;/span&gt;&lt;span style=&quot;color: rgb(156, 220, 254);&quot;&gt;:&lt;/span&gt; &lt;span style=&quot;color: rgb(206, 145, 120);&quot;&gt;&#39;&#39;&lt;/span&gt; });&lt;/div&gt;&lt;br&gt;&lt;div&gt;    &lt;span style=&quot;color: rgb(106, 153, 85);&quot;&gt;/**&lt;/span&gt;&lt;/div&gt;&lt;div&gt;&lt;span style=&quot;color: rgb(106, 153, 85);&quot;&gt;     * Removes a user row at the specified index.&lt;/span&gt;&lt;/div&gt;&lt;div&gt;&lt;span style=&quot;color: rgb(106, 153, 85);&quot;&gt;     * &lt;/span&gt;&lt;span style=&quot;color: rgb(86, 156, 214);&quot;&gt;@param&lt;/span&gt;&lt;span style=&quot;color: rgb(106, 153, 85);&quot;&gt; &lt;/span&gt;&lt;span style=&quot;color: rgb(156, 220, 254);&quot;&gt;index&lt;/span&gt;&lt;span style=&quot;color: rgb(106, 153, 85);&quot;&gt; - Index of the user to remove.&lt;/span&gt;&lt;/div&gt;&lt;div&gt;&lt;span style=&quot;color: rgb(106, 153, 85);&quot;&gt;     */&lt;/span&gt;&lt;/div&gt;&lt;div&gt;    &lt;span style=&quot;color: rgb(86, 156, 214);&quot;&gt;const&lt;/span&gt; &lt;span style=&quot;color: rgb(220, 220, 170);&quot;&gt;removeUser&lt;/span&gt; &lt;span style=&quot;color: rgb(212, 212, 212);&quot;&gt;=&lt;/span&gt; (&lt;span style=&quot;color: rgb(156, 220, 254);&quot;&gt;index&lt;/span&gt;&lt;span style=&quot;color: rgb(212, 212, 212);&quot;&gt;:&lt;/span&gt; &lt;span style=&quot;color: rgb(78, 201, 176);&quot;&gt;number&lt;/span&gt;)&lt;span style=&quot;color: rgb(212, 212, 212);&quot;&gt;:&lt;/span&gt; &lt;span style=&quot;color: rgb(78, 201, 176);&quot;&gt;void&lt;/span&gt; &lt;span style=&quot;color: rgb(86, 156, 214);&quot;&gt;=&amp;gt;&lt;/span&gt; &lt;span style=&quot;color: rgb(220, 220, 170);&quot;&gt;remove&lt;/span&gt;(&lt;span style=&quot;color: rgb(156, 220, 254);&quot;&gt;index&lt;/span&gt;);&lt;/div&gt;&lt;br&gt;&lt;div&gt;    &lt;span style=&quot;color: rgb(197, 134, 192);&quot;&gt;return&lt;/span&gt; { &lt;span style=&quot;color: rgb(156, 220, 254);&quot;&gt;fields&lt;/span&gt;, &lt;span style=&quot;color: rgb(220, 220, 170);&quot;&gt;addUser&lt;/span&gt;, &lt;span style=&quot;color: rgb(220, 220, 170);&quot;&gt;removeUser&lt;/span&gt; };&lt;/div&gt;&lt;div&gt;}&lt;/div&gt;&lt;br&gt;&lt;/div&gt;&lt;/div&gt;" style="rounded=0;whiteSpace=wrap;html=1;align=left;verticalAlign=top;" vertex="1" parent="1">
          <mxGeometry x="916" y="780" width="564" height="440" as="geometry" />
        </mxCell>
        <mxCell id="7iGNXJQkttV0HCJYnzMc-8" value="src/features/concept-versioning/schemas/VersionFormSchema.ts&lt;div&gt;&lt;div style=&quot;color: rgb(204, 204, 204); background-color: rgb(31, 31, 31); font-family: Menlo, Monaco, &amp;quot;Courier New&amp;quot;, monospace; line-height: 18px; white-space: pre;&quot;&gt;&lt;div&gt;&lt;span style=&quot;color: rgb(197, 134, 192);&quot;&gt;import&lt;/span&gt; { &lt;span style=&quot;color: rgb(156, 220, 254);&quot;&gt;z&lt;/span&gt; } &lt;span style=&quot;color: rgb(197, 134, 192);&quot;&gt;from&lt;/span&gt; &lt;span style=&quot;color: rgb(206, 145, 120);&quot;&gt;&#39;zod&#39;&lt;/span&gt;;&lt;/div&gt;&lt;div&gt;&lt;span style=&quot;color: rgb(197, 134, 192);&quot;&gt;import&lt;/span&gt; { &lt;span style=&quot;color: rgb(156, 220, 254);&quot;&gt;ErrorMessages&lt;/span&gt; } &lt;span style=&quot;color: rgb(197, 134, 192);&quot;&gt;from&lt;/span&gt; &lt;span style=&quot;color: rgb(206, 145, 120);&quot;&gt;&#39;@/locale/ErrorMessages&#39;&lt;/span&gt;;&lt;/div&gt;&lt;br&gt;&lt;div&gt;&lt;span style=&quot;color: rgb(106, 153, 85);&quot;&gt;/**&lt;/span&gt;&lt;/div&gt;&lt;div&gt;&lt;span style=&quot;color: rgb(106, 153, 85);&quot;&gt; * Zod schema for a single user entry in the form.&lt;/span&gt;&lt;/div&gt;&lt;div&gt;&lt;span style=&quot;color: rgb(106, 153, 85);&quot;&gt; */&lt;/span&gt;&lt;/div&gt;&lt;div&gt;&lt;span style=&quot;color: rgb(197, 134, 192);&quot;&gt;export&lt;/span&gt; &lt;span style=&quot;color: rgb(86, 156, 214);&quot;&gt;const&lt;/span&gt; &lt;span style=&quot;color: rgb(79, 193, 255);&quot;&gt;userSchema&lt;/span&gt; &lt;span style=&quot;color: rgb(212, 212, 212);&quot;&gt;=&lt;/span&gt; &lt;span style=&quot;color: rgb(156, 220, 254);&quot;&gt;z&lt;/span&gt;.&lt;span style=&quot;color: rgb(220, 220, 170);&quot;&gt;object&lt;/span&gt;({&lt;/div&gt;&lt;div&gt;    &lt;span style=&quot;color: rgb(156, 220, 254);&quot;&gt;email&lt;/span&gt;&lt;span style=&quot;color: rgb(156, 220, 254);&quot;&gt;:&lt;/span&gt; &lt;span style=&quot;color: rgb(156, 220, 254);&quot;&gt;z&lt;/span&gt;.&lt;span style=&quot;color: rgb(220, 220, 170);&quot;&gt;string&lt;/span&gt;().&lt;span style=&quot;color: rgb(220, 220, 170);&quot;&gt;min&lt;/span&gt;(&lt;span style=&quot;color: rgb(181, 206, 168);&quot;&gt;1&lt;/span&gt;, { &lt;span style=&quot;color: rgb(156, 220, 254);&quot;&gt;message&lt;/span&gt;&lt;span style=&quot;color: rgb(156, 220, 254);&quot;&gt;:&lt;/span&gt; &lt;span style=&quot;color: rgb(79, 193, 255);&quot;&gt;ErrorMessages&lt;/span&gt;.&lt;span style=&quot;color: rgb(156, 220, 254);&quot;&gt;required&lt;/span&gt; }).&lt;span style=&quot;color: rgb(220, 220, 170);&quot;&gt;email&lt;/span&gt;({ &lt;span style=&quot;color: rgb(156, 220, 254);&quot;&gt;message&lt;/span&gt;&lt;span style=&quot;color: rgb(156, 220, 254);&quot;&gt;:&lt;/span&gt; &lt;span style=&quot;color: rgb(79, 193, 255);&quot;&gt;ErrorMessages&lt;/span&gt;.&lt;span style=&quot;color: rgb(156, 220, 254);&quot;&gt;email&lt;/span&gt; }),&lt;/div&gt;&lt;div&gt;    &lt;span style=&quot;color: rgb(156, 220, 254);&quot;&gt;role&lt;/span&gt;&lt;span style=&quot;color: rgb(156, 220, 254);&quot;&gt;:&lt;/span&gt; &lt;span style=&quot;color: rgb(156, 220, 254);&quot;&gt;z&lt;/span&gt;.&lt;span style=&quot;color: rgb(220, 220, 170);&quot;&gt;string&lt;/span&gt;().&lt;span style=&quot;color: rgb(220, 220, 170);&quot;&gt;min&lt;/span&gt;(&lt;span style=&quot;color: rgb(181, 206, 168);&quot;&gt;1&lt;/span&gt;, { &lt;span style=&quot;color: rgb(156, 220, 254);&quot;&gt;message&lt;/span&gt;&lt;span style=&quot;color: rgb(156, 220, 254);&quot;&gt;:&lt;/span&gt; &lt;span style=&quot;color: rgb(79, 193, 255);&quot;&gt;ErrorMessages&lt;/span&gt;.&lt;span style=&quot;color: rgb(156, 220, 254);&quot;&gt;roleRequired&lt;/span&gt; }),&lt;/div&gt;&lt;div&gt;});&lt;/div&gt;&lt;br&gt;&lt;div&gt;&lt;span style=&quot;color: rgb(106, 153, 85);&quot;&gt;/**&lt;/span&gt;&lt;/div&gt;&lt;div&gt;&lt;span style=&quot;color: rgb(106, 153, 85);&quot;&gt; * Zod schema for the entire version form.&lt;/span&gt;&lt;/div&gt;&lt;div&gt;&lt;span style=&quot;color: rgb(106, 153, 85);&quot;&gt; */&lt;/span&gt;&lt;/div&gt;&lt;div&gt;&lt;span style=&quot;color: rgb(197, 134, 192);&quot;&gt;export&lt;/span&gt; &lt;span style=&quot;color: rgb(86, 156, 214);&quot;&gt;const&lt;/span&gt; &lt;span style=&quot;color: rgb(79, 193, 255);&quot;&gt;versionFormSchema&lt;/span&gt; &lt;span style=&quot;color: rgb(212, 212, 212);&quot;&gt;=&lt;/span&gt; &lt;span style=&quot;color: rgb(156, 220, 254);&quot;&gt;z&lt;/span&gt;.&lt;span style=&quot;color: rgb(220, 220, 170);&quot;&gt;object&lt;/span&gt;({&lt;/div&gt;&lt;div&gt;    &lt;span style=&quot;color: rgb(156, 220, 254);&quot;&gt;description&lt;/span&gt;&lt;span style=&quot;color: rgb(156, 220, 254);&quot;&gt;:&lt;/span&gt; &lt;span style=&quot;color: rgb(156, 220, 254);&quot;&gt;z&lt;/span&gt;.&lt;span style=&quot;color: rgb(220, 220, 170);&quot;&gt;string&lt;/span&gt;().&lt;span style=&quot;color: rgb(220, 220, 170);&quot;&gt;min&lt;/span&gt;(&lt;span style=&quot;color: rgb(181, 206, 168);&quot;&gt;1&lt;/span&gt;, { &lt;span style=&quot;color: rgb(156, 220, 254);&quot;&gt;message&lt;/span&gt;&lt;span style=&quot;color: rgb(156, 220, 254);&quot;&gt;:&lt;/span&gt; &lt;span style=&quot;color: rgb(79, 193, 255);&quot;&gt;ErrorMessages&lt;/span&gt;.&lt;span style=&quot;color: rgb(156, 220, 254);&quot;&gt;descriptionRequired&lt;/span&gt; }),&lt;/div&gt;&lt;div&gt;    &lt;span style=&quot;color: rgb(156, 220, 254);&quot;&gt;users&lt;/span&gt;&lt;span style=&quot;color: rgb(156, 220, 254);&quot;&gt;:&lt;/span&gt; &lt;span style=&quot;color: rgb(156, 220, 254);&quot;&gt;z&lt;/span&gt;.&lt;span style=&quot;color: rgb(220, 220, 170);&quot;&gt;array&lt;/span&gt;(&lt;span style=&quot;color: rgb(79, 193, 255);&quot;&gt;userSchema&lt;/span&gt;).&lt;span style=&quot;color: rgb(220, 220, 170);&quot;&gt;min&lt;/span&gt;(&lt;span style=&quot;color: rgb(181, 206, 168);&quot;&gt;1&lt;/span&gt;, { &lt;span style=&quot;color: rgb(156, 220, 254);&quot;&gt;message&lt;/span&gt;&lt;span style=&quot;color: rgb(156, 220, 254);&quot;&gt;:&lt;/span&gt; &lt;span style=&quot;color: rgb(79, 193, 255);&quot;&gt;ErrorMessages&lt;/span&gt;.&lt;span style=&quot;color: rgb(156, 220, 254);&quot;&gt;atLeastOneUser&lt;/span&gt; }),&lt;/div&gt;&lt;div&gt;});&lt;/div&gt;&lt;br&gt;&lt;div&gt;&lt;span style=&quot;color: rgb(106, 153, 85);&quot;&gt;/**&lt;/span&gt;&lt;/div&gt;&lt;div&gt;&lt;span style=&quot;color: rgb(106, 153, 85);&quot;&gt; * Type infered form data structure.&lt;/span&gt;&lt;/div&gt;&lt;div&gt;&lt;span style=&quot;color: rgb(106, 153, 85);&quot;&gt; * &lt;/span&gt;&lt;span style=&quot;color: rgb(86, 156, 214);&quot;&gt;@property&lt;/span&gt;&lt;span style=&quot;color: rgb(106, 153, 85);&quot;&gt; description - A short description of the version changes&lt;/span&gt;&lt;/div&gt;&lt;div&gt;&lt;span style=&quot;color: rgb(106, 153, 85);&quot;&gt; * &lt;/span&gt;&lt;span style=&quot;color: rgb(86, 156, 214);&quot;&gt;@property&lt;/span&gt;&lt;span style=&quot;color: rgb(106, 153, 85);&quot;&gt; users - An array of user-role assignments, where each entry includes an email and a role.&lt;/span&gt;&lt;/div&gt;&lt;div&gt;&lt;span style=&quot;color: rgb(106, 153, 85);&quot;&gt; */&lt;/span&gt;&lt;/div&gt;&lt;div&gt;&lt;span style=&quot;color: rgb(197, 134, 192);&quot;&gt;export&lt;/span&gt; &lt;span style=&quot;color: rgb(86, 156, 214);&quot;&gt;type&lt;/span&gt; &lt;span style=&quot;color: rgb(78, 201, 176);&quot;&gt;VersionFormData&lt;/span&gt; &lt;span style=&quot;color: rgb(212, 212, 212);&quot;&gt;=&lt;/span&gt; &lt;span style=&quot;color: rgb(78, 201, 176);&quot;&gt;z&lt;/span&gt;.&lt;span style=&quot;color: rgb(78, 201, 176);&quot;&gt;infer&lt;/span&gt;&amp;lt;&lt;span style=&quot;color: rgb(86, 156, 214);&quot;&gt;typeof&lt;/span&gt; &lt;span style=&quot;color: rgb(79, 193, 255);&quot;&gt;versionFormSchema&lt;/span&gt;&amp;gt;;&lt;/div&gt;&lt;br&gt;&lt;div&gt;&lt;span style=&quot;color: rgb(106, 153, 85);&quot;&gt;/**&lt;/span&gt;&lt;/div&gt;&lt;div&gt;&lt;span style=&quot;color: rgb(106, 153, 85);&quot;&gt; * Initial values for the version form.&lt;/span&gt;&lt;/div&gt;&lt;div&gt;&lt;span style=&quot;color: rgb(106, 153, 85);&quot;&gt; */&lt;/span&gt;&lt;/div&gt;&lt;div&gt;&lt;span style=&quot;color: rgb(197, 134, 192);&quot;&gt;export&lt;/span&gt; &lt;span style=&quot;color: rgb(86, 156, 214);&quot;&gt;const&lt;/span&gt; &lt;span style=&quot;color: rgb(79, 193, 255);&quot;&gt;versionFormInitialValues&lt;/span&gt;&lt;span style=&quot;color: rgb(212, 212, 212);&quot;&gt;:&lt;/span&gt; &lt;span style=&quot;color: rgb(78, 201, 176);&quot;&gt;VersionFormData&lt;/span&gt; &lt;span style=&quot;color: rgb(212, 212, 212);&quot;&gt;=&lt;/span&gt; {&lt;/div&gt;&lt;div&gt;    &lt;span style=&quot;color: rgb(156, 220, 254);&quot;&gt;description&lt;/span&gt;&lt;span style=&quot;color: rgb(156, 220, 254);&quot;&gt;:&lt;/span&gt; &lt;span style=&quot;color: rgb(206, 145, 120);&quot;&gt;&#39;&#39;&lt;/span&gt;,&lt;/div&gt;&lt;div&gt;    &lt;span style=&quot;color: rgb(156, 220, 254);&quot;&gt;users&lt;/span&gt;&lt;span style=&quot;color: rgb(156, 220, 254);&quot;&gt;:&lt;/span&gt; [{ &lt;span style=&quot;color: rgb(156, 220, 254);&quot;&gt;email&lt;/span&gt;&lt;span style=&quot;color: rgb(156, 220, 254);&quot;&gt;:&lt;/span&gt; &lt;span style=&quot;color: rgb(206, 145, 120);&quot;&gt;&#39;&#39;&lt;/span&gt;, &lt;span style=&quot;color: rgb(156, 220, 254);&quot;&gt;role&lt;/span&gt;&lt;span style=&quot;color: rgb(156, 220, 254);&quot;&gt;:&lt;/span&gt; &lt;span style=&quot;color: rgb(206, 145, 120);&quot;&gt;&#39;&#39;&lt;/span&gt; }],&lt;/div&gt;&lt;div&gt;};&lt;/div&gt;&lt;br&gt;&lt;/div&gt;&lt;/div&gt;" style="rounded=0;whiteSpace=wrap;html=1;align=left;verticalAlign=top;" vertex="1" parent="1">
          <mxGeometry x="1624" y="110" width="776" height="640" as="geometry" />
        </mxCell>
        <mxCell id="7iGNXJQkttV0HCJYnzMc-9" value="src/features/concept-versioning/services/VersionDummyService.ts&lt;div&gt;&lt;div style=&quot;color: rgb(204, 204, 204); background-color: rgb(31, 31, 31); font-family: Menlo, Monaco, &amp;quot;Courier New&amp;quot;, monospace; line-height: 18px; white-space: pre;&quot;&gt;&lt;div&gt;&lt;span style=&quot;color: rgb(197, 134, 192);&quot;&gt;import&lt;/span&gt; { &lt;span style=&quot;color: rgb(156, 220, 254);&quot;&gt;ref&lt;/span&gt; } &lt;span style=&quot;color: rgb(197, 134, 192);&quot;&gt;from&lt;/span&gt; &lt;span style=&quot;color: rgb(206, 145, 120);&quot;&gt;&#39;vue&#39;&lt;/span&gt;;&lt;/div&gt;&lt;div&gt;&lt;span style=&quot;color: rgb(197, 134, 192);&quot;&gt;import&lt;/span&gt; { &lt;span style=&quot;color: rgb(156, 220, 254);&quot;&gt;v4&lt;/span&gt; &lt;span style=&quot;color: rgb(197, 134, 192);&quot;&gt;as&lt;/span&gt; &lt;span style=&quot;color: rgb(156, 220, 254);&quot;&gt;uuidv4&lt;/span&gt; } &lt;span style=&quot;color: rgb(197, 134, 192);&quot;&gt;from&lt;/span&gt; &lt;span style=&quot;color: rgb(206, 145, 120);&quot;&gt;&#39;uuid&#39;&lt;/span&gt;;&lt;/div&gt;&lt;div&gt;&lt;span style=&quot;color: rgb(197, 134, 192);&quot;&gt;import&lt;/span&gt; { &lt;span style=&quot;color: rgb(197, 134, 192);&quot;&gt;type&lt;/span&gt; &lt;span style=&quot;color: rgb(156, 220, 254);&quot;&gt;PublicEventVersion&lt;/span&gt; } &lt;span style=&quot;color: rgb(197, 134, 192);&quot;&gt;from&lt;/span&gt; &lt;span style=&quot;color: rgb(206, 145, 120);&quot;&gt;&#39;../types/PublicEventVersion&#39;&lt;/span&gt;;&lt;/div&gt;&lt;br&gt;&lt;div&gt;&lt;span style=&quot;color: rgb(86, 156, 214);&quot;&gt;const&lt;/span&gt; &lt;span style=&quot;color: rgb(79, 193, 255);&quot;&gt;versions&lt;/span&gt; &lt;span style=&quot;color: rgb(212, 212, 212);&quot;&gt;=&lt;/span&gt; &lt;span style=&quot;color: rgb(220, 220, 170);&quot;&gt;ref&lt;/span&gt;&amp;lt;&lt;span style=&quot;color: rgb(78, 201, 176);&quot;&gt;PublicEventVersion&lt;/span&gt;[]&amp;gt;([]);&lt;/div&gt;&lt;br&gt;&lt;div&gt;&lt;span style=&quot;color: rgb(86, 156, 214);&quot;&gt;function&lt;/span&gt; &lt;span style=&quot;color: rgb(220, 220, 170);&quot;&gt;createDummyVersion&lt;/span&gt;()&lt;span style=&quot;color: rgb(212, 212, 212);&quot;&gt;:&lt;/span&gt; &lt;span style=&quot;color: rgb(78, 201, 176);&quot;&gt;any&lt;/span&gt; {&lt;/div&gt;&lt;div&gt;    &lt;span style=&quot;color: rgb(86, 156, 214);&quot;&gt;const&lt;/span&gt; &lt;span style=&quot;color: rgb(79, 193, 255);&quot;&gt;now&lt;/span&gt; &lt;span style=&quot;color: rgb(212, 212, 212);&quot;&gt;=&lt;/span&gt; &lt;span style=&quot;color: rgb(86, 156, 214);&quot;&gt;new&lt;/span&gt; &lt;span style=&quot;color: rgb(78, 201, 176);&quot;&gt;Date&lt;/span&gt;();&lt;/div&gt;&lt;div&gt;    &lt;span style=&quot;color: rgb(86, 156, 214);&quot;&gt;const&lt;/span&gt; &lt;span style=&quot;color: rgb(79, 193, 255);&quot;&gt;createdAt&lt;/span&gt; &lt;span style=&quot;color: rgb(212, 212, 212);&quot;&gt;=&lt;/span&gt; &lt;span style=&quot;color: rgb(86, 156, 214);&quot;&gt;new&lt;/span&gt; &lt;span style=&quot;color: rgb(78, 201, 176);&quot;&gt;Date&lt;/span&gt;(&lt;span style=&quot;color: rgb(79, 193, 255);&quot;&gt;now&lt;/span&gt;.&lt;span style=&quot;color: rgb(220, 220, 170);&quot;&gt;getTime&lt;/span&gt;() &lt;span style=&quot;color: rgb(212, 212, 212);&quot;&gt;-&lt;/span&gt; &lt;span style=&quot;color: rgb(156, 220, 254);&quot;&gt;Math&lt;/span&gt;.&lt;span style=&quot;color: rgb(220, 220, 170);&quot;&gt;floor&lt;/span&gt;(&lt;span style=&quot;color: rgb(156, 220, 254);&quot;&gt;Math&lt;/span&gt;.&lt;span style=&quot;color: rgb(220, 220, 170);&quot;&gt;random&lt;/span&gt;() &lt;span style=&quot;color: rgb(212, 212, 212);&quot;&gt;*&lt;/span&gt; &lt;span style=&quot;color: rgb(181, 206, 168);&quot;&gt;1_000_000_000&lt;/span&gt;));&lt;/div&gt;&lt;div&gt;    &lt;span style=&quot;color: rgb(86, 156, 214);&quot;&gt;const&lt;/span&gt; &lt;span style=&quot;color: rgb(79, 193, 255);&quot;&gt;updatedAt&lt;/span&gt; &lt;span style=&quot;color: rgb(212, 212, 212);&quot;&gt;=&lt;/span&gt; &lt;span style=&quot;color: rgb(86, 156, 214);&quot;&gt;new&lt;/span&gt; &lt;span style=&quot;color: rgb(78, 201, 176);&quot;&gt;Date&lt;/span&gt;(&lt;span style=&quot;color: rgb(79, 193, 255);&quot;&gt;createdAt&lt;/span&gt;.&lt;span style=&quot;color: rgb(220, 220, 170);&quot;&gt;getTime&lt;/span&gt;() &lt;span style=&quot;color: rgb(212, 212, 212);&quot;&gt;+&lt;/span&gt; &lt;span style=&quot;color: rgb(156, 220, 254);&quot;&gt;Math&lt;/span&gt;.&lt;span style=&quot;color: rgb(220, 220, 170);&quot;&gt;floor&lt;/span&gt;(&lt;span style=&quot;color: rgb(156, 220, 254);&quot;&gt;Math&lt;/span&gt;.&lt;span style=&quot;color: rgb(220, 220, 170);&quot;&gt;random&lt;/span&gt;() &lt;span style=&quot;color: rgb(212, 212, 212);&quot;&gt;*&lt;/span&gt; &lt;span style=&quot;color: rgb(181, 206, 168);&quot;&gt;100_000_000&lt;/span&gt;));&lt;/div&gt;&lt;br&gt;&lt;div&gt;    &lt;span style=&quot;color: rgb(197, 134, 192);&quot;&gt;return&lt;/span&gt; {&lt;/div&gt;&lt;div&gt;        &lt;span style=&quot;color: rgb(156, 220, 254);&quot;&gt;id&lt;/span&gt;&lt;span style=&quot;color: rgb(156, 220, 254);&quot;&gt;:&lt;/span&gt; &lt;span style=&quot;color: rgb(220, 220, 170);&quot;&gt;uuidv4&lt;/span&gt;(),&lt;/div&gt;&lt;div&gt;        &lt;span style=&quot;color: rgb(156, 220, 254);&quot;&gt;publicEventId&lt;/span&gt;&lt;span style=&quot;color: rgb(156, 220, 254);&quot;&gt;:&lt;/span&gt; &lt;span style=&quot;color: rgb(220, 220, 170);&quot;&gt;uuidv4&lt;/span&gt;(),&lt;/div&gt;&lt;div&gt;        &lt;span style=&quot;color: rgb(156, 220, 254);&quot;&gt;versionNum&lt;/span&gt;&lt;span style=&quot;color: rgb(156, 220, 254);&quot;&gt;:&lt;/span&gt; &lt;span style=&quot;color: rgb(79, 193, 255);&quot;&gt;versions&lt;/span&gt;.&lt;span style=&quot;color: rgb(156, 220, 254);&quot;&gt;value&lt;/span&gt;.&lt;span style=&quot;color: rgb(156, 220, 254);&quot;&gt;length&lt;/span&gt; &lt;span style=&quot;color: rgb(212, 212, 212);&quot;&gt;+&lt;/span&gt; &lt;span style=&quot;color: rgb(181, 206, 168);&quot;&gt;1&lt;/span&gt;,&lt;/div&gt;&lt;div&gt;        &lt;span style=&quot;color: rgb(156, 220, 254);&quot;&gt;isShared&lt;/span&gt;&lt;span style=&quot;color: rgb(156, 220, 254);&quot;&gt;:&lt;/span&gt; &lt;span style=&quot;color: rgb(86, 156, 214);&quot;&gt;false&lt;/span&gt;,&lt;/div&gt;&lt;div&gt;        &lt;span style=&quot;color: rgb(156, 220, 254);&quot;&gt;updatedAt&lt;/span&gt;&lt;span style=&quot;color: rgb(156, 220, 254);&quot;&gt;:&lt;/span&gt; &lt;span style=&quot;color: rgb(79, 193, 255);&quot;&gt;updatedAt&lt;/span&gt;.&lt;span style=&quot;color: rgb(220, 220, 170);&quot;&gt;toISOString&lt;/span&gt;(),&lt;/div&gt;&lt;div&gt;        &lt;span style=&quot;color: rgb(156, 220, 254);&quot;&gt;createdAt&lt;/span&gt;&lt;span style=&quot;color: rgb(156, 220, 254);&quot;&gt;:&lt;/span&gt; &lt;span style=&quot;color: rgb(79, 193, 255);&quot;&gt;now&lt;/span&gt;.&lt;span style=&quot;color: rgb(220, 220, 170);&quot;&gt;toISOString&lt;/span&gt;(),&lt;/div&gt;&lt;div&gt;        &lt;span style=&quot;color: rgb(156, 220, 254);&quot;&gt;createdBy&lt;/span&gt;&lt;span style=&quot;color: rgb(156, 220, 254);&quot;&gt;:&lt;/span&gt; &lt;span style=&quot;color: rgb(206, 145, 120);&quot;&gt;`user_&lt;/span&gt;&lt;span style=&quot;color: rgb(86, 156, 214);&quot;&gt;${&lt;/span&gt;&lt;span style=&quot;color: rgb(156, 220, 254);&quot;&gt;Math&lt;/span&gt;&lt;span style=&quot;color: rgb(212, 212, 212);&quot;&gt;.&lt;/span&gt;&lt;span style=&quot;color: rgb(220, 220, 170);&quot;&gt;floor&lt;/span&gt;&lt;span style=&quot;color: rgb(212, 212, 212);&quot;&gt;(&lt;/span&gt;&lt;span style=&quot;color: rgb(156, 220, 254);&quot;&gt;Math&lt;/span&gt;&lt;span style=&quot;color: rgb(212, 212, 212);&quot;&gt;.&lt;/span&gt;&lt;span style=&quot;color: rgb(220, 220, 170);&quot;&gt;random&lt;/span&gt;&lt;span style=&quot;color: rgb(212, 212, 212);&quot;&gt;() * &lt;/span&gt;&lt;span style=&quot;color: rgb(181, 206, 168);&quot;&gt;1000&lt;/span&gt;&lt;span style=&quot;color: rgb(212, 212, 212);&quot;&gt;)&lt;/span&gt;&lt;span style=&quot;color: rgb(86, 156, 214);&quot;&gt;}&lt;/span&gt;&lt;span style=&quot;color: rgb(206, 145, 120);&quot;&gt;`&lt;/span&gt;,&lt;/div&gt;&lt;div&gt;        &lt;span style=&quot;color: rgb(156, 220, 254);&quot;&gt;comments&lt;/span&gt;&lt;span style=&quot;color: rgb(156, 220, 254);&quot;&gt;:&lt;/span&gt; [],&lt;/div&gt;&lt;div&gt;    };&lt;/div&gt;&lt;div&gt;}&lt;/div&gt;&lt;br&gt;&lt;div&gt;&lt;span style=&quot;color: rgb(86, 156, 214);&quot;&gt;const&lt;/span&gt; &lt;span style=&quot;color: rgb(79, 193, 255);&quot;&gt;firstDummy&lt;/span&gt; &lt;span style=&quot;color: rgb(212, 212, 212);&quot;&gt;=&lt;/span&gt; &lt;span style=&quot;color: rgb(220, 220, 170);&quot;&gt;createDummyVersion&lt;/span&gt;();&lt;/div&gt;&lt;div&gt;&lt;span style=&quot;color: rgb(79, 193, 255);&quot;&gt;versions&lt;/span&gt;.&lt;span style=&quot;color: rgb(156, 220, 254);&quot;&gt;value&lt;/span&gt;.&lt;span style=&quot;color: rgb(220, 220, 170);&quot;&gt;push&lt;/span&gt;(&lt;span style=&quot;color: rgb(79, 193, 255);&quot;&gt;firstDummy&lt;/span&gt;);&lt;/div&gt;&lt;br&gt;&lt;div&gt;&lt;span style=&quot;color: rgb(197, 134, 192);&quot;&gt;export&lt;/span&gt; &lt;span style=&quot;color: rgb(197, 134, 192);&quot;&gt;default&lt;/span&gt; {&lt;/div&gt;&lt;div&gt;    &lt;span style=&quot;color: rgb(220, 220, 170);&quot;&gt;getVersions&lt;/span&gt;() {&lt;/div&gt;&lt;div&gt;        &lt;span style=&quot;color: rgb(197, 134, 192);&quot;&gt;return&lt;/span&gt; &lt;span style=&quot;color: rgb(79, 193, 255);&quot;&gt;versions&lt;/span&gt;;&lt;/div&gt;&lt;div&gt;    },&lt;/div&gt;&lt;br&gt;&lt;div&gt;    &lt;span style=&quot;color: rgb(220, 220, 170);&quot;&gt;getVersionById&lt;/span&gt;(&lt;span style=&quot;color: rgb(156, 220, 254);&quot;&gt;id&lt;/span&gt;&lt;span style=&quot;color: rgb(212, 212, 212);&quot;&gt;:&lt;/span&gt; &lt;span style=&quot;color: rgb(78, 201, 176);&quot;&gt;string&lt;/span&gt;) {&lt;/div&gt;&lt;div&gt;        &lt;span style=&quot;color: rgb(86, 156, 214);&quot;&gt;const&lt;/span&gt; &lt;span style=&quot;color: rgb(79, 193, 255);&quot;&gt;version&lt;/span&gt; &lt;span style=&quot;color: rgb(212, 212, 212);&quot;&gt;=&lt;/span&gt; &lt;span style=&quot;color: rgb(79, 193, 255);&quot;&gt;versions&lt;/span&gt;.&lt;span style=&quot;color: rgb(156, 220, 254);&quot;&gt;value&lt;/span&gt;.&lt;span style=&quot;color: rgb(220, 220, 170);&quot;&gt;find&lt;/span&gt;((&lt;span style=&quot;color: rgb(156, 220, 254);&quot;&gt;v&lt;/span&gt;) &lt;span style=&quot;color: rgb(86, 156, 214);&quot;&gt;=&amp;gt;&lt;/span&gt; &lt;span style=&quot;color: rgb(156, 220, 254);&quot;&gt;v&lt;/span&gt;.&lt;span style=&quot;color: rgb(156, 220, 254);&quot;&gt;id&lt;/span&gt; &lt;span style=&quot;color: rgb(212, 212, 212);&quot;&gt;===&lt;/span&gt; &lt;span style=&quot;color: rgb(156, 220, 254);&quot;&gt;id&lt;/span&gt;);&lt;/div&gt;&lt;div&gt;        &lt;span style=&quot;color: rgb(197, 134, 192);&quot;&gt;return&lt;/span&gt; &lt;span style=&quot;color: rgb(79, 193, 255);&quot;&gt;version&lt;/span&gt;;&lt;/div&gt;&lt;div&gt;    },&lt;/div&gt;&lt;br&gt;&lt;div&gt;    &lt;span style=&quot;color: rgb(220, 220, 170);&quot;&gt;addDummyVersion&lt;/span&gt;() {&lt;/div&gt;&lt;div&gt;        &lt;span style=&quot;color: rgb(86, 156, 214);&quot;&gt;const&lt;/span&gt; &lt;span style=&quot;color: rgb(79, 193, 255);&quot;&gt;dummyVersion&lt;/span&gt; &lt;span style=&quot;color: rgb(212, 212, 212);&quot;&gt;=&lt;/span&gt; &lt;span style=&quot;color: rgb(220, 220, 170);&quot;&gt;createDummyVersion&lt;/span&gt;();&lt;/div&gt;&lt;div&gt;        &lt;span style=&quot;color: rgb(79, 193, 255);&quot;&gt;versions&lt;/span&gt;.&lt;span style=&quot;color: rgb(156, 220, 254);&quot;&gt;value&lt;/span&gt;.&lt;span style=&quot;color: rgb(220, 220, 170);&quot;&gt;push&lt;/span&gt;(&lt;span style=&quot;color: rgb(79, 193, 255);&quot;&gt;dummyVersion&lt;/span&gt;);&lt;/div&gt;&lt;div&gt;    },&lt;/div&gt;&lt;br&gt;&lt;div&gt;    &lt;span style=&quot;color: rgb(220, 220, 170);&quot;&gt;updateVersion&lt;/span&gt;(&lt;span style=&quot;color: rgb(156, 220, 254);&quot;&gt;updated&lt;/span&gt;&lt;span style=&quot;color: rgb(212, 212, 212);&quot;&gt;:&lt;/span&gt; &lt;span style=&quot;color: rgb(78, 201, 176);&quot;&gt;PublicEventVersion&lt;/span&gt;) {&lt;/div&gt;&lt;div&gt;        &lt;span style=&quot;color: rgb(86, 156, 214);&quot;&gt;const&lt;/span&gt; &lt;span style=&quot;color: rgb(79, 193, 255);&quot;&gt;index&lt;/span&gt; &lt;span style=&quot;color: rgb(212, 212, 212);&quot;&gt;=&lt;/span&gt; &lt;span style=&quot;color: rgb(79, 193, 255);&quot;&gt;versions&lt;/span&gt;.&lt;span style=&quot;color: rgb(156, 220, 254);&quot;&gt;value&lt;/span&gt;.&lt;span style=&quot;color: rgb(220, 220, 170);&quot;&gt;findIndex&lt;/span&gt;((&lt;span style=&quot;color: rgb(156, 220, 254);&quot;&gt;v&lt;/span&gt;) &lt;span style=&quot;color: rgb(86, 156, 214);&quot;&gt;=&amp;gt;&lt;/span&gt; &lt;span style=&quot;color: rgb(156, 220, 254);&quot;&gt;v&lt;/span&gt;.&lt;span style=&quot;color: rgb(156, 220, 254);&quot;&gt;id&lt;/span&gt; &lt;span style=&quot;color: rgb(212, 212, 212);&quot;&gt;===&lt;/span&gt; &lt;span style=&quot;color: rgb(156, 220, 254);&quot;&gt;updated&lt;/span&gt;.&lt;span style=&quot;color: rgb(156, 220, 254);&quot;&gt;id&lt;/span&gt;);&lt;/div&gt;&lt;div&gt;        &lt;span style=&quot;color: rgb(197, 134, 192);&quot;&gt;if&lt;/span&gt; (&lt;span style=&quot;color: rgb(79, 193, 255);&quot;&gt;index&lt;/span&gt; &lt;span style=&quot;color: rgb(212, 212, 212);&quot;&gt;!==&lt;/span&gt; &lt;span style=&quot;color: rgb(212, 212, 212);&quot;&gt;-&lt;/span&gt;&lt;span style=&quot;color: rgb(181, 206, 168);&quot;&gt;1&lt;/span&gt;) {&lt;/div&gt;&lt;div&gt;            &lt;span style=&quot;color: rgb(79, 193, 255);&quot;&gt;versions&lt;/span&gt;.&lt;span style=&quot;color: rgb(156, 220, 254);&quot;&gt;value&lt;/span&gt;[&lt;span style=&quot;color: rgb(79, 193, 255);&quot;&gt;index&lt;/span&gt;] &lt;span style=&quot;color: rgb(212, 212, 212);&quot;&gt;=&lt;/span&gt; {&lt;/div&gt;&lt;div&gt;                &lt;span style=&quot;color: rgb(212, 212, 212);&quot;&gt;...&lt;/span&gt;&lt;span style=&quot;color: rgb(79, 193, 255);&quot;&gt;versions&lt;/span&gt;.&lt;span style=&quot;color: rgb(156, 220, 254);&quot;&gt;value&lt;/span&gt;[&lt;span style=&quot;color: rgb(79, 193, 255);&quot;&gt;index&lt;/span&gt;],&lt;/div&gt;&lt;div&gt;                &lt;span style=&quot;color: rgb(156, 220, 254);&quot;&gt;description&lt;/span&gt;&lt;span style=&quot;color: rgb(156, 220, 254);&quot;&gt;:&lt;/span&gt; &lt;span style=&quot;color: rgb(156, 220, 254);&quot;&gt;updated&lt;/span&gt;.&lt;span style=&quot;color: rgb(156, 220, 254);&quot;&gt;description&lt;/span&gt;,&lt;/div&gt;&lt;div&gt;                &lt;span style=&quot;color: rgb(156, 220, 254);&quot;&gt;sharedWith&lt;/span&gt;&lt;span style=&quot;color: rgb(156, 220, 254);&quot;&gt;:&lt;/span&gt; &lt;span style=&quot;color: rgb(156, 220, 254);&quot;&gt;updated&lt;/span&gt;.&lt;span style=&quot;color: rgb(156, 220, 254);&quot;&gt;sharedWith&lt;/span&gt;,&lt;/div&gt;&lt;div&gt;                &lt;span style=&quot;color: rgb(156, 220, 254);&quot;&gt;isShared&lt;/span&gt;&lt;span style=&quot;color: rgb(156, 220, 254);&quot;&gt;:&lt;/span&gt; &lt;span style=&quot;color: rgb(86, 156, 214);&quot;&gt;true&lt;/span&gt;,&lt;/div&gt;&lt;div&gt;            };&lt;/div&gt;&lt;div&gt;        }&lt;/div&gt;&lt;div&gt;    },&lt;/div&gt;&lt;div&gt;};&lt;/div&gt;&lt;br&gt;&lt;/div&gt;&lt;/div&gt;" style="rounded=0;whiteSpace=wrap;html=1;align=left;verticalAlign=top;" vertex="1" parent="1">
          <mxGeometry x="2460" y="110" width="690" height="1000" as="geometry" />
        </mxCell>
        <mxCell id="7iGNXJQkttV0HCJYnzMc-10" value="src/features/concept-versioning/types/PublicEventVersion.ts&lt;div&gt;&lt;div style=&quot;color: rgb(204, 204, 204); background-color: rgb(31, 31, 31); font-family: Menlo, Monaco, &amp;quot;Courier New&amp;quot;, monospace; line-height: 18px; white-space: pre;&quot;&gt;&lt;div&gt;&lt;span style=&quot;color: rgb(197, 134, 192);&quot;&gt;import&lt;/span&gt; &lt;span style=&quot;color: rgb(197, 134, 192);&quot;&gt;type&lt;/span&gt; { &lt;span style=&quot;color: rgb(156, 220, 254);&quot;&gt;UserRoles&lt;/span&gt; } &lt;span style=&quot;color: rgb(197, 134, 192);&quot;&gt;from&lt;/span&gt; &lt;span style=&quot;color: rgb(206, 145, 120);&quot;&gt;&#39;./UserRoles&#39;&lt;/span&gt;;&lt;/div&gt;&lt;br&gt;&lt;div&gt;&lt;span style=&quot;color: rgb(197, 134, 192);&quot;&gt;export&lt;/span&gt; &lt;span style=&quot;color: rgb(86, 156, 214);&quot;&gt;interface&lt;/span&gt; &lt;span style=&quot;color: rgb(78, 201, 176);&quot;&gt;PublicEventVersion&lt;/span&gt; {&lt;/div&gt;&lt;div&gt;    &lt;span style=&quot;color: rgb(156, 220, 254);&quot;&gt;id&lt;/span&gt;&lt;span style=&quot;color: rgb(212, 212, 212);&quot;&gt;:&lt;/span&gt; &lt;span style=&quot;color: rgb(78, 201, 176);&quot;&gt;string&lt;/span&gt;; &lt;span style=&quot;color: rgb(106, 153, 85);&quot;&gt;// UUID&lt;/span&gt;&lt;/div&gt;&lt;div&gt;    &lt;span style=&quot;color: rgb(156, 220, 254);&quot;&gt;publicEventId&lt;/span&gt;&lt;span style=&quot;color: rgb(212, 212, 212);&quot;&gt;:&lt;/span&gt; &lt;span style=&quot;color: rgb(78, 201, 176);&quot;&gt;string&lt;/span&gt;;&lt;/div&gt;&lt;div&gt;    &lt;span style=&quot;color: rgb(156, 220, 254);&quot;&gt;versionNum&lt;/span&gt;&lt;span style=&quot;color: rgb(212, 212, 212);&quot;&gt;:&lt;/span&gt; &lt;span style=&quot;color: rgb(78, 201, 176);&quot;&gt;number&lt;/span&gt;;&lt;/div&gt;&lt;div&gt;    &lt;span style=&quot;color: rgb(156, 220, 254);&quot;&gt;isShared&lt;/span&gt;&lt;span style=&quot;color: rgb(212, 212, 212);&quot;&gt;:&lt;/span&gt; &lt;span style=&quot;color: rgb(78, 201, 176);&quot;&gt;boolean&lt;/span&gt;;&lt;/div&gt;&lt;div&gt;    &lt;span style=&quot;color: rgb(156, 220, 254);&quot;&gt;updatedAt&lt;/span&gt;&lt;span style=&quot;color: rgb(212, 212, 212);&quot;&gt;:&lt;/span&gt; &lt;span style=&quot;color: rgb(78, 201, 176);&quot;&gt;string&lt;/span&gt;; &lt;span style=&quot;color: rgb(106, 153, 85);&quot;&gt;// ISO 8601 date string&lt;/span&gt;&lt;/div&gt;&lt;div&gt;    &lt;span style=&quot;color: rgb(156, 220, 254);&quot;&gt;createdAt&lt;/span&gt;&lt;span style=&quot;color: rgb(212, 212, 212);&quot;&gt;:&lt;/span&gt; &lt;span style=&quot;color: rgb(78, 201, 176);&quot;&gt;string&lt;/span&gt;; &lt;span style=&quot;color: rgb(106, 153, 85);&quot;&gt;// ISO 8601 date string&lt;/span&gt;&lt;/div&gt;&lt;div&gt;    &lt;span style=&quot;color: rgb(156, 220, 254);&quot;&gt;createdBy&lt;/span&gt;&lt;span style=&quot;color: rgb(212, 212, 212);&quot;&gt;:&lt;/span&gt; &lt;span style=&quot;color: rgb(78, 201, 176);&quot;&gt;string&lt;/span&gt;;&lt;/div&gt;&lt;div&gt;    &lt;span style=&quot;color: rgb(156, 220, 254);&quot;&gt;sharedAt&lt;/span&gt;&lt;span style=&quot;color: rgb(212, 212, 212);&quot;&gt;?:&lt;/span&gt; &lt;span style=&quot;color: rgb(78, 201, 176);&quot;&gt;string&lt;/span&gt;;&lt;/div&gt;&lt;div&gt;    &lt;span style=&quot;color: rgb(156, 220, 254);&quot;&gt;sharedWith&lt;/span&gt;&lt;span style=&quot;color: rgb(212, 212, 212);&quot;&gt;?:&lt;/span&gt; &lt;span style=&quot;color: rgb(78, 201, 176);&quot;&gt;UserRoles&lt;/span&gt;[];&lt;/div&gt;&lt;div&gt;    &lt;span style=&quot;color: rgb(156, 220, 254);&quot;&gt;description&lt;/span&gt;&lt;span style=&quot;color: rgb(212, 212, 212);&quot;&gt;?:&lt;/span&gt; &lt;span style=&quot;color: rgb(78, 201, 176);&quot;&gt;string&lt;/span&gt;;&lt;/div&gt;&lt;div&gt;    &lt;span style=&quot;color: rgb(156, 220, 254);&quot;&gt;comments&lt;/span&gt;&lt;span style=&quot;color: rgb(212, 212, 212);&quot;&gt;?:&lt;/span&gt; [];&lt;/div&gt;&lt;div&gt;}&lt;/div&gt;&lt;br&gt;&lt;/div&gt;&lt;/div&gt;" style="rounded=0;whiteSpace=wrap;html=1;align=left;verticalAlign=top;" vertex="1" parent="1">
          <mxGeometry x="3340" y="90" width="340" height="320" as="geometry" />
        </mxCell>
        <mxCell id="7iGNXJQkttV0HCJYnzMc-11" value="&lt;div&gt;src/features/concept-versioning/types/UserRoles.ts&lt;br&gt;&lt;/div&gt;&lt;div&gt;&lt;div style=&quot;color: rgb(204, 204, 204); background-color: rgb(31, 31, 31); font-family: Menlo, Monaco, &amp;quot;Courier New&amp;quot;, monospace; line-height: 18px; white-space: pre;&quot;&gt;&lt;div&gt;&lt;span style=&quot;color: rgb(106, 153, 85);&quot;&gt;/**&lt;/span&gt;&lt;/div&gt;&lt;div&gt;&lt;span style=&quot;color: rgb(106, 153, 85);&quot;&gt; * Represents a user and their assigned role in the form.&lt;/span&gt;&lt;/div&gt;&lt;div&gt;&lt;span style=&quot;color: rgb(106, 153, 85);&quot;&gt; * &lt;/span&gt;&lt;span style=&quot;color: rgb(86, 156, 214);&quot;&gt;@property&lt;/span&gt;&lt;span style=&quot;color: rgb(106, 153, 85);&quot;&gt; email - The user&#39;s email address. Must be a valid email string.&lt;/span&gt;&lt;/div&gt;&lt;div&gt;&lt;span style=&quot;color: rgb(106, 153, 85);&quot;&gt; * &lt;/span&gt;&lt;span style=&quot;color: rgb(86, 156, 214);&quot;&gt;@property&lt;/span&gt;&lt;span style=&quot;color: rgb(106, 153, 85);&quot;&gt; role - The role assigned to the user (e.g., &#39;auditor&#39;, &#39;contributor&#39;).&lt;/span&gt;&lt;/div&gt;&lt;div&gt;&lt;span style=&quot;color: rgb(106, 153, 85);&quot;&gt; */&lt;/span&gt;&lt;/div&gt;&lt;div&gt;&lt;span style=&quot;color: rgb(197, 134, 192);&quot;&gt;export&lt;/span&gt; &lt;span style=&quot;color: rgb(86, 156, 214);&quot;&gt;interface&lt;/span&gt; &lt;span style=&quot;color: rgb(78, 201, 176);&quot;&gt;UserRoles&lt;/span&gt; {&lt;/div&gt;&lt;div&gt;    &lt;span style=&quot;color: rgb(156, 220, 254);&quot;&gt;email&lt;/span&gt;&lt;span style=&quot;color: rgb(212, 212, 212);&quot;&gt;:&lt;/span&gt; &lt;span style=&quot;color: rgb(78, 201, 176);&quot;&gt;string&lt;/span&gt;;&lt;/div&gt;&lt;div&gt;    &lt;span style=&quot;color: rgb(156, 220, 254);&quot;&gt;role&lt;/span&gt;&lt;span style=&quot;color: rgb(212, 212, 212);&quot;&gt;:&lt;/span&gt; &lt;span style=&quot;color: rgb(78, 201, 176);&quot;&gt;string&lt;/span&gt;;&lt;/div&gt;&lt;div&gt;}&lt;/div&gt;&lt;br&gt;&lt;/div&gt;&lt;/div&gt;" style="rounded=0;whiteSpace=wrap;html=1;align=left;verticalAlign=top;" vertex="1" parent="1">
          <mxGeometry x="3340" y="425" width="610" height="205" as="geometry" />
        </mxCell>
      </root>
    </mxGraphModel>
  </diagram>
</mxfile>
